<svg xmlns="http://www.w3.org/2000/svg" xmlns:xlink="http://www.w3.org/1999/xlink" width="2000" zoomAndPan="magnify" viewBox="0 0 1500 1499.999933" height="2000" preserveAspectRatio="xMidYMid meet" version="1.0"><defs><clipPath id="e1955029f1"><path d="M 57.605469 279 L 1322 279 L 1322 1107 L 57.605469 1107 Z M 57.605469 279 " clip-rule="nonzero"/></clipPath><clipPath id="ca5c0d27f1"><path d="M 633 394.234375 L 695 394.234375 L 695 496 L 633 496 Z M 633 394.234375 " clip-rule="nonzero"/></clipPath><clipPath id="16ff5ee576"><path d="M 566.199219 455 L 622 455 L 622 545 L 566.199219 545 Z M 566.199219 455 " clip-rule="nonzero"/></clipPath><clipPath id="699076e646"><path d="M 968.648438 748.84375 L 1442.394531 748.84375 L 1442.394531 1222.589844 L 968.648438 1222.589844 Z M 968.648438 748.84375 " clip-rule="nonzero"/></clipPath><clipPath id="28768cb6f3"><path d="M 1205.519531 748.84375 C 1074.699219 748.84375 968.648438 854.894531 968.648438 985.714844 C 968.648438 1116.535156 1074.699219 1222.589844 1205.519531 1222.589844 C 1336.339844 1222.589844 1442.394531 1116.535156 1442.394531 985.714844 C 1442.394531 854.894531 1336.339844 748.84375 1205.519531 748.84375 Z M 1205.519531 748.84375 " clip-rule="nonzero"/></clipPath><clipPath id="276a3994b9"><path d="M 0.648438 0.84375 L 474.394531 0.84375 L 474.394531 474.589844 L 0.648438 474.589844 Z M 0.648438 0.84375 " clip-rule="nonzero"/></clipPath><clipPath id="a77d2938c1"><path d="M 237.519531 0.84375 C 106.699219 0.84375 0.648438 106.894531 0.648438 237.714844 C 0.648438 368.535156 106.699219 474.589844 237.519531 474.589844 C 368.339844 474.589844 474.394531 368.535156 474.394531 237.714844 C 474.394531 106.894531 368.339844 0.84375 237.519531 0.84375 Z M 237.519531 0.84375 " clip-rule="nonzero"/></clipPath><clipPath id="a3848af67b"><rect x="0" width="475" y="0" height="475"/></clipPath><clipPath id="05613e44be"><path d="M 968.648438 748.84375 L 1442.390625 748.84375 L 1442.390625 1222.585938 L 968.648438 1222.585938 Z M 968.648438 748.84375 " clip-rule="nonzero"/></clipPath><clipPath id="84708e7e59"><path d="M 1205.519531 748.84375 C 1074.699219 748.84375 968.648438 854.894531 968.648438 985.714844 C 968.648438 1116.535156 1074.699219 1222.585938 1205.519531 1222.585938 C 1336.339844 1222.585938 1442.390625 1116.535156 1442.390625 985.714844 C 1442.390625 854.894531 1336.339844 748.84375 1205.519531 748.84375 Z M 1205.519531 748.84375 " clip-rule="nonzero"/></clipPath><clipPath id="9c182da00a"><path d="M 1117.910156 867.03125 L 1293.410156 867.03125 L 1293.410156 1104.03125 L 1117.910156 1104.03125 Z M 1117.910156 867.03125 " clip-rule="nonzero"/></clipPath></defs><g clip-path="url(#e1955029f1)"><path fill="#59a5a0" d="M 1249.792969 279.566406 L 128.988281 279.566406 C 127.8125 279.570312 126.636719 279.597656 125.460938 279.660156 C 124.289062 279.71875 123.117188 279.804688 121.949219 279.921875 C 120.777344 280.035156 119.613281 280.183594 118.449219 280.355469 C 117.289062 280.527344 116.128906 280.730469 114.976562 280.960938 C 113.824219 281.191406 112.679688 281.449219 111.539062 281.734375 C 110.398438 282.023438 109.265625 282.335938 108.140625 282.679688 C 107.015625 283.019531 105.902344 283.390625 104.796875 283.785156 C 103.6875 284.183594 102.59375 284.605469 101.507812 285.054688 C 100.421875 285.507812 99.347656 285.984375 98.285156 286.484375 C 97.222656 286.988281 96.175781 287.519531 95.136719 288.074219 C 94.101562 288.625 93.078125 289.207031 92.070312 289.8125 C 91.0625 290.414062 90.070312 291.042969 89.09375 291.699219 C 88.117188 292.351562 87.15625 293.027344 86.210938 293.726562 C 85.269531 294.429688 84.34375 295.152344 83.433594 295.898438 C 82.527344 296.644531 81.636719 297.410156 80.765625 298.199219 C 79.894531 298.988281 79.042969 299.800781 78.210938 300.628906 C 77.382812 301.460938 76.570312 302.3125 75.78125 303.183594 C 74.992188 304.054688 74.226562 304.945312 73.480469 305.851562 C 72.734375 306.761719 72.011719 307.6875 71.308594 308.628906 C 70.609375 309.574219 69.933594 310.535156 69.28125 311.511719 C 68.625 312.488281 67.996094 313.480469 67.394531 314.488281 C 66.789062 315.496094 66.207031 316.519531 65.652344 317.554688 C 65.101562 318.59375 64.570312 319.640625 64.066406 320.703125 C 63.566406 321.765625 63.089844 322.839844 62.636719 323.925781 C 62.1875 325.011719 61.765625 326.105469 61.367188 327.214844 C 60.972656 328.320312 60.601562 329.433594 60.261719 330.558594 C 59.917969 331.683594 59.605469 332.816406 59.316406 333.957031 C 59.03125 335.097656 58.773438 336.242188 58.542969 337.394531 C 58.3125 338.546875 58.109375 339.707031 57.9375 340.867188 C 57.765625 342.03125 57.617188 343.195312 57.503906 344.367188 C 57.386719 345.535156 57.296875 346.707031 57.238281 347.882812 C 57.179688 349.054688 57.152344 350.230469 57.148438 351.40625 L 57.148438 1034.542969 C 57.152344 1035.71875 57.179688 1036.894531 57.238281 1038.070312 C 57.296875 1039.242188 57.386719 1040.414062 57.503906 1041.582031 C 57.617188 1042.753906 57.765625 1043.917969 57.9375 1045.082031 C 58.109375 1046.242188 58.3125 1047.402344 58.542969 1048.554688 C 58.773438 1049.707031 59.03125 1050.851562 59.316406 1051.992188 C 59.605469 1053.132812 59.917969 1054.265625 60.261719 1055.390625 C 60.601562 1056.515625 60.972656 1057.628906 61.367188 1058.734375 C 61.765625 1059.84375 62.1875 1060.9375 62.636719 1062.023438 C 63.089844 1063.109375 63.566406 1064.183594 64.066406 1065.246094 C 64.570312 1066.308594 65.101562 1067.355469 65.652344 1068.394531 C 66.207031 1069.429688 66.789062 1070.453125 67.394531 1071.460938 C 67.996094 1072.46875 68.625 1073.460938 69.28125 1074.4375 C 69.933594 1075.414062 70.609375 1076.375 71.308594 1077.320312 C 72.011719 1078.261719 72.734375 1079.1875 73.480469 1080.097656 C 74.226562 1081.003906 74.992188 1081.894531 75.78125 1082.765625 C 76.570312 1083.636719 77.382812 1084.488281 78.210938 1085.320312 C 79.042969 1086.148438 79.894531 1086.960938 80.765625 1087.75 C 81.636719 1088.539062 82.527344 1089.308594 83.433594 1090.050781 C 84.34375 1090.796875 85.269531 1091.519531 86.210938 1092.222656 C 87.15625 1092.921875 88.117188 1093.597656 89.09375 1094.253906 C 90.070312 1094.90625 91.0625 1095.535156 92.070312 1096.136719 C 93.078125 1096.742188 94.101562 1097.324219 95.136719 1097.878906 C 96.175781 1098.429688 97.222656 1098.960938 98.285156 1099.464844 C 99.347656 1099.964844 100.421875 1100.441406 101.507812 1100.894531 C 102.59375 1101.34375 103.6875 1101.765625 104.796875 1102.164062 C 105.902344 1102.558594 107.015625 1102.929688 108.140625 1103.269531 C 109.265625 1103.613281 110.398438 1103.925781 111.539062 1104.214844 C 112.679688 1104.5 113.824219 1104.757812 114.976562 1104.988281 C 116.128906 1105.21875 117.289062 1105.421875 118.449219 1105.59375 C 119.613281 1105.765625 120.777344 1105.914062 121.949219 1106.027344 C 123.117188 1106.144531 124.289062 1106.234375 125.460938 1106.292969 C 126.636719 1106.351562 127.8125 1106.378906 128.988281 1106.382812 L 1249.792969 1106.382812 C 1250.96875 1106.378906 1252.144531 1106.351562 1253.316406 1106.292969 C 1254.492188 1106.234375 1255.664062 1106.144531 1256.832031 1106.03125 C 1258.003906 1105.914062 1259.167969 1105.769531 1260.332031 1105.59375 C 1261.496094 1105.421875 1262.652344 1105.21875 1263.804688 1104.992188 C 1264.957031 1104.761719 1266.105469 1104.503906 1267.246094 1104.214844 C 1268.382812 1103.929688 1269.515625 1103.617188 1270.640625 1103.273438 C 1271.765625 1102.933594 1272.882812 1102.5625 1273.988281 1102.167969 C 1275.09375 1101.769531 1276.191406 1101.347656 1277.277344 1100.894531 C 1278.363281 1100.445312 1279.4375 1099.96875 1280.5 1099.464844 C 1281.5625 1098.964844 1282.609375 1098.433594 1283.648438 1097.878906 C 1284.683594 1097.324219 1285.707031 1096.746094 1286.714844 1096.140625 C 1287.722656 1095.539062 1288.714844 1094.910156 1289.691406 1094.253906 C 1290.667969 1093.601562 1291.628906 1092.925781 1292.574219 1092.226562 C 1293.519531 1091.523438 1294.445312 1090.800781 1295.351562 1090.054688 C 1296.261719 1089.308594 1297.152344 1088.542969 1298.023438 1087.753906 C 1298.894531 1086.964844 1299.746094 1086.152344 1300.574219 1085.324219 C 1301.40625 1084.492188 1302.21875 1083.640625 1303.007812 1082.769531 C 1303.796875 1081.898438 1304.5625 1081.007812 1305.308594 1080.101562 C 1306.054688 1079.191406 1306.777344 1078.265625 1307.480469 1077.324219 C 1308.179688 1076.378906 1308.855469 1075.417969 1309.511719 1074.441406 C 1310.164062 1073.464844 1310.792969 1072.472656 1311.398438 1071.464844 C 1312 1070.453125 1312.582031 1069.433594 1313.136719 1068.394531 C 1313.691406 1067.359375 1314.21875 1066.3125 1314.722656 1065.25 C 1315.226562 1064.1875 1315.703125 1063.113281 1316.152344 1062.027344 C 1316.601562 1060.941406 1317.027344 1059.84375 1317.421875 1058.738281 C 1317.820312 1057.632812 1318.1875 1056.515625 1318.53125 1055.390625 C 1318.871094 1054.265625 1319.1875 1053.132812 1319.472656 1051.996094 C 1319.761719 1050.855469 1320.019531 1049.707031 1320.25 1048.554688 C 1320.480469 1047.402344 1320.679688 1046.246094 1320.855469 1045.082031 C 1321.027344 1043.921875 1321.171875 1042.753906 1321.289062 1041.585938 C 1321.40625 1040.414062 1321.492188 1039.242188 1321.550781 1038.070312 C 1321.609375 1036.894531 1321.640625 1035.71875 1321.640625 1034.542969 L 1321.640625 351.40625 C 1321.640625 350.230469 1321.609375 349.054688 1321.550781 347.878906 C 1321.492188 346.707031 1321.40625 345.535156 1321.289062 344.367188 C 1321.171875 343.195312 1321.027344 342.03125 1320.855469 340.867188 C 1320.679688 339.703125 1320.480469 338.546875 1320.25 337.394531 C 1320.019531 336.242188 1319.761719 335.09375 1319.472656 333.953125 C 1319.1875 332.816406 1318.871094 331.683594 1318.53125 330.558594 C 1318.1875 329.433594 1317.820312 328.316406 1317.421875 327.210938 C 1317.027344 326.105469 1316.601562 325.007812 1316.152344 323.921875 C 1315.703125 322.835938 1315.226562 321.761719 1314.722656 320.703125 C 1314.21875 319.640625 1313.691406 318.589844 1313.136719 317.554688 C 1312.582031 316.515625 1312 315.496094 1311.398438 314.488281 C 1310.792969 313.480469 1310.164062 312.484375 1309.511719 311.507812 C 1308.855469 310.53125 1308.179688 309.570312 1307.480469 308.628906 C 1306.777344 307.683594 1306.054688 306.757812 1305.308594 305.847656 C 1304.5625 304.941406 1303.796875 304.050781 1303.007812 303.179688 C 1302.21875 302.308594 1301.40625 301.457031 1300.574219 300.625 C 1299.746094 299.796875 1298.894531 298.984375 1298.023438 298.195312 C 1297.152344 297.40625 1296.261719 296.640625 1295.351562 295.894531 C 1294.445312 295.148438 1293.519531 294.425781 1292.574219 293.722656 C 1291.628906 293.023438 1290.667969 292.347656 1289.691406 291.695312 C 1288.714844 291.039062 1287.722656 290.410156 1286.714844 289.808594 C 1285.707031 289.203125 1284.683594 288.625 1283.648438 288.070312 C 1282.609375 287.515625 1281.5625 286.984375 1280.5 286.484375 C 1279.4375 285.980469 1278.363281 285.503906 1277.277344 285.054688 C 1276.191406 284.601562 1275.09375 284.179688 1273.988281 283.78125 C 1272.882812 283.386719 1271.765625 283.015625 1270.640625 282.675781 C 1269.515625 282.332031 1268.382812 282.019531 1267.246094 281.734375 C 1266.105469 281.445312 1264.957031 281.1875 1263.804688 280.957031 C 1262.652344 280.730469 1261.496094 280.527344 1260.332031 280.355469 C 1259.167969 280.179688 1258.003906 280.035156 1256.832031 279.917969 C 1255.664062 279.804688 1254.492188 279.714844 1253.316406 279.65625 C 1252.144531 279.597656 1250.96875 279.570312 1249.792969 279.566406 Z M 888.121094 692.976562 L 1282.722656 341.226562 C 1283.8125 344.53125 1284.378906 347.925781 1284.425781 351.40625 L 1284.425781 1034.542969 C 1284.378906 1038.023438 1283.8125 1041.417969 1282.722656 1044.722656 Z M 1249.75 316.792969 C 1251.070312 316.851562 1252.382812 316.980469 1253.6875 317.1875 L 712.304688 799.75 C 711.523438 800.449219 710.710938 801.113281 709.867188 801.738281 C 709.023438 802.363281 708.152344 802.949219 707.257812 803.492188 C 706.359375 804.039062 705.4375 804.542969 704.496094 805.003906 C 703.554688 805.464844 702.59375 805.882812 701.613281 806.257812 C 700.628906 806.632812 699.632812 806.960938 698.625 807.242188 C 697.613281 807.527344 696.589844 807.765625 695.558594 807.953125 C 694.527344 808.144531 693.488281 808.289062 692.441406 808.382812 C 691.398438 808.476562 690.351562 808.527344 689.300781 808.527344 C 688.25 808.527344 687.203125 808.476562 686.15625 808.382812 C 685.113281 808.289062 684.074219 808.144531 683.039062 807.953125 C 682.007812 807.765625 680.988281 807.527344 679.976562 807.242188 C 678.964844 806.960938 677.96875 806.632812 676.988281 806.257812 C 676.007812 805.882812 675.046875 805.464844 674.101562 805.003906 C 673.160156 804.542969 672.242188 804.039062 671.34375 803.492188 C 670.449219 802.949219 669.578125 802.363281 668.734375 801.738281 C 667.890625 801.113281 667.078125 800.449219 666.292969 799.75 L 125.0625 317.1875 C 126.363281 316.980469 127.671875 316.851562 128.988281 316.792969 Z M 96.078125 1044.722656 C 94.988281 1041.417969 94.421875 1038.023438 94.375 1034.542969 L 94.375 351.40625 C 94.421875 347.925781 94.988281 344.53125 96.078125 341.226562 L 490.667969 692.976562 Z M 128.988281 1069.1875 C 127.671875 1069.132812 126.363281 1069 125.0625 1068.792969 L 518.601562 717.9375 L 641.628906 827.542969 C 643.253906 828.996094 644.945312 830.367188 646.695312 831.664062 C 648.445312 832.960938 650.253906 834.175781 652.117188 835.308594 C 653.976562 836.441406 655.886719 837.484375 657.84375 838.441406 C 659.804688 839.402344 661.800781 840.269531 663.835938 841.042969 C 665.871094 841.820312 667.941406 842.503906 670.039062 843.089844 C 672.136719 843.679688 674.257812 844.167969 676.402344 844.566406 C 678.542969 844.960938 680.699219 845.253906 682.871094 845.453125 C 685.042969 845.652344 687.214844 845.75 689.394531 845.75 C 691.574219 845.75 693.75 845.652344 695.921875 845.453125 C 698.089844 845.253906 700.246094 844.960938 702.390625 844.566406 C 704.535156 844.171875 706.65625 843.679688 708.753906 843.089844 C 710.851562 842.503906 712.917969 841.820312 714.957031 841.042969 C 716.992188 840.269531 718.988281 839.402344 720.945312 838.441406 C 722.902344 837.484375 724.8125 836.441406 726.675781 835.308594 C 728.539062 834.175781 730.34375 832.960938 732.097656 831.664062 C 733.847656 830.367188 735.535156 828.996094 737.164062 827.542969 L 860.160156 717.90625 L 1253.699219 1068.761719 C 1252.394531 1068.96875 1251.082031 1069.097656 1249.761719 1069.15625 Z M 128.988281 1069.1875 " fill-opacity="1" fill-rule="nonzero"/></g><g clip-path="url(#ca5c0d27f1)"><path fill="#81c0bc" d="M 669.617188 394.867188 C 685.628906 395.886719 692.742188 414.019531 694.015625 427.421875 C 695.433594 442.332031 693.136719 456.605469 687.121094 470.25 C 682.761719 480.136719 674.519531 492.398438 663.277344 495.0625 C 659.816406 495.882812 656.46875 495.640625 653.230469 494.339844 C 641.195312 489.496094 635.863281 473.035156 634.4375 461.464844 C 632.054688 442.0625 636.167969 421.367188 648.378906 406.03125 C 653.269531 399.902344 661.515625 394.355469 669.617188 394.867188 Z M 669.617188 394.867188 " fill-opacity="1" fill-rule="nonzero"/></g><path fill="#81c0bc" d="M 718.140625 433.605469 C 724.625 425.816406 735.273438 420.421875 745.316406 424.664062 C 754.632812 428.59375 759.710938 438.144531 761.386719 447.664062 C 763.761719 461.1875 761.4375 474.125 756.492188 487.1875 C 751.730469 499.78125 739.054688 520.816406 722.035156 515.492188 C 711.832031 512.296875 706.144531 498.328125 704.308594 488.945312 C 700.464844 469.292969 705.199219 449.136719 718.140625 433.605469 Z M 718.140625 433.605469 " fill-opacity="1" fill-rule="nonzero"/><g clip-path="url(#16ff5ee576)"><path fill="#81c0bc" d="M 566.199219 496.605469 L 566.199219 488.105469 C 566.664062 481.34375 568.226562 475.179688 570.875 469.617188 C 577.441406 455.84375 592.179688 450.773438 604.515625 460.976562 C 613.273438 468.214844 618.394531 478.460938 620.453125 489.558594 C 622.515625 500.671875 621.519531 511.78125 617.46875 522.878906 C 614.644531 530.613281 609.847656 538.949219 602.632812 542.597656 C 588.65625 549.65625 576.996094 533.832031 572.515625 523.058594 C 569.015625 514.644531 566.910156 505.828125 566.199219 496.605469 Z M 566.199219 496.605469 " fill-opacity="1" fill-rule="nonzero"/></g><path fill="#81c0bc" d="M 782.328125 577.75 C 771.082031 581.152344 762.933594 572.714844 758.9375 563.40625 C 751.015625 544.917969 752.957031 523.710938 763.941406 506.914062 C 769.925781 497.769531 781.472656 487.847656 793.34375 490.527344 C 810.578125 494.402344 813.664062 516.847656 811.410156 531.058594 C 808.988281 546.367188 799.164062 572.667969 782.328125 577.75 Z M 782.328125 577.75 " fill-opacity="1" fill-rule="nonzero"/><path fill="#81c0bc" d="M 681.566406 517.902344 C 708.644531 522.886719 718.070312 545.777344 730.9375 566.441406 C 735.765625 574.199219 741.769531 580.839844 748.941406 586.359375 C 752.703125 589.253906 754.585938 590.707031 754.597656 590.714844 C 762.847656 597.785156 768.402344 606.519531 771.265625 616.914062 C 776.386719 635.507812 766.625 652.855469 747.574219 657.695312 C 732.839844 661.429688 718.320312 655.660156 703.15625 649.90625 C 686.878906 643.730469 670.296875 642.878906 653.414062 647.347656 C 643.371094 650.007812 630.546875 655.324219 618.488281 656.660156 C 604.070312 658.261719 590.875 653.675781 581.636719 642.445312 C 575.226562 634.652344 572.519531 625.53125 573.75 615.46875 C 575.46875 601.316406 584 587.984375 595.261719 579.503906 C 596.398438 578.652344 598.765625 577.1875 602.367188 575.117188 C 615.730469 567.429688 624.542969 556.65625 633.28125 544.195312 C 642.816406 530.613281 655.792969 518.34375 673.476562 517.664062 C 677.222656 517.523438 679.917969 517.601562 681.566406 517.902344 Z M 681.566406 517.902344 " fill-opacity="1" fill-rule="nonzero"/><g clip-path="url(#699076e646)"><g clip-path="url(#28768cb6f3)"><g transform="matrix(1, 0, 0, 1, 968, 748)"><g clip-path="url(#a3848af67b)"><g clip-path="url(#276a3994b9)"><g clip-path="url(#a77d2938c1)"><path fill="#81c0bc" d="M 0.648438 0.84375 L 474.394531 0.84375 L 474.394531 474.589844 L 0.648438 474.589844 Z M 0.648438 0.84375 " fill-opacity="1" fill-rule="nonzero"/></g></g></g></g></g></g><g clip-path="url(#05613e44be)"><g clip-path="url(#84708e7e59)"><path stroke-linecap="butt" transform="matrix(0.75, 0, 0, 0.75, 968.648734, 748.844267)" fill="none" stroke-linejoin="miter" d="M 315.827757 -0.000689999 C 141.400659 -0.000689999 -0.000395223 141.400364 -0.000395223 315.827462 C -0.000395223 490.254561 141.400659 631.655614 315.827757 631.655614 C 490.254855 631.655614 631.655909 490.254561 631.655909 315.827462 C 631.655909 141.400364 490.254855 -0.000689999 315.827757 -0.000689999 Z M 315.827757 -0.000689999 " stroke="#59a5a0" stroke-width="30" stroke-opacity="1" stroke-miterlimit="4"/></g></g><g clip-path="url(#9c182da00a)"><path fill="#2c8984" d="M 1284.347656 963.257812 L 1272.242188 963.257812 L 1272.242188 933.824219 C 1272.289062 896.984375 1242.332031 867.03125 1205.496094 867.03125 C 1168.65625 867.03125 1138.699219 896.984375 1138.699219 933.824219 L 1138.699219 963.257812 L 1126.640625 963.257812 C 1121.847656 963.257812 1117.953125 967.148438 1117.953125 971.945312 L 1117.953125 1095.753906 C 1117.953125 1100.5 1121.847656 1104.394531 1126.640625 1104.394531 L 1284.394531 1104.394531 C 1289.1875 1104.394531 1293.082031 1100.5 1293.082031 1095.707031 L 1293.082031 971.945312 C 1293.035156 967.148438 1289.140625 963.257812 1284.347656 963.257812 Z M 1156.074219 933.824219 C 1156.074219 906.574219 1178.246094 884.40625 1205.496094 884.40625 C 1232.742188 884.40625 1254.914062 906.574219 1254.914062 933.824219 L 1254.914062 963.257812 L 1156.074219 963.257812 Z M 1214.183594 1040.066406 L 1214.183594 1062.902344 C 1214.183594 1067.695312 1210.289062 1071.589844 1205.496094 1071.589844 C 1200.699219 1071.589844 1196.808594 1067.695312 1196.808594 1062.902344 L 1196.808594 1040.066406 C 1190.824219 1036.933594 1186.742188 1030.667969 1186.742188 1023.5 C 1186.742188 1013.152344 1195.144531 1004.796875 1205.445312 1004.796875 C 1215.796875 1004.796875 1224.152344 1013.199219 1224.152344 1023.5 C 1224.246094 1030.667969 1220.164062 1036.933594 1214.183594 1040.066406 Z M 1214.183594 1040.066406 " fill-opacity="1" fill-rule="nonzero"/></g></svg>