<svg xmlns="http://www.w3.org/2000/svg" xmlns:xlink="http://www.w3.org/1999/xlink" width="2000" zoomAndPan="magnify" viewBox="0 0 1500 1499.999933" height="2000" preserveAspectRatio="xMidYMid meet" version="1.0"><defs><clipPath id="28ffbf1dc2"><path d="M 142.875 140 L 1357.125 140 L 1357.125 1354.253906 L 142.875 1354.253906 Z M 142.875 140 " clip-rule="nonzero"/></clipPath><clipPath id="698ea3fa2e"><path d="M 750 140 C 414.695312 140 142.875 411.820312 142.875 747.125 C 142.875 1082.433594 414.695312 1354.253906 750 1354.253906 C 1085.304688 1354.253906 1357.125 1082.433594 1357.125 747.125 C 1357.125 411.820312 1085.304688 140 750 140 Z M 750 140 " clip-rule="nonzero"/></clipPath><clipPath id="2d46e5667a"><path d="M 0.875 0 L 1215.125 0 L 1215.125 1214.253906 L 0.875 1214.253906 Z M 0.875 0 " clip-rule="nonzero"/></clipPath><clipPath id="81093f2cb9"><path d="M 608 0 C 272.695312 0 0.875 271.820312 0.875 607.125 C 0.875 942.433594 272.695312 1214.253906 608 1214.253906 C 943.304688 1214.253906 1215.125 942.433594 1215.125 607.125 C 1215.125 271.820312 943.304688 0 608 0 Z M 608 0 " clip-rule="nonzero"/></clipPath><clipPath id="fa11e5f007"><rect x="0" width="1216" y="0" height="1215"/></clipPath><clipPath id="19d5496e29"><path d="M 142.875 140 L 1357.125 140 L 1357.125 1354.25 L 142.875 1354.25 Z M 142.875 140 " clip-rule="nonzero"/></clipPath><clipPath id="2b9b26905a"><path d="M 750 140 C 414.695312 140 142.875 411.820312 142.875 747.125 C 142.875 1082.433594 414.695312 1354.25 750 1354.25 C 1085.304688 1354.25 1357.125 1082.433594 1357.125 747.125 C 1357.125 411.820312 1085.304688 140 750 140 Z M 750 140 " clip-rule="nonzero"/></clipPath><clipPath id="3c89d43f94"><path d="M 290.382812 292.171875 L 1179 292.171875 L 1179 1201.921875 L 290.382812 1201.921875 Z M 290.382812 292.171875 " clip-rule="nonzero"/></clipPath><clipPath id="151139325c"><path d="M 750 871.484375 L 1046.25 871.484375 L 1046.25 1202.234375 L 750 1202.234375 Z M 750 871.484375 " clip-rule="nonzero"/></clipPath><clipPath id="8198f095ca"><path d="M 0 0.679688 L 296.160156 0.679688 L 296.160156 331.234375 L 0 331.234375 Z M 0 0.679688 " clip-rule="nonzero"/></clipPath><clipPath id="814f31339e"><rect x="0" width="297" y="0" height="332"/></clipPath><clipPath id="84dd243d48"><path d="M 290.382812 868 L 820 868 L 820 1055.960938 L 290.382812 1055.960938 Z M 290.382812 868 " clip-rule="nonzero"/></clipPath><clipPath id="b869b44720"><path d="M 290.382812 870 L 818 870 L 818 1055.960938 L 290.382812 1055.960938 Z M 290.382812 870 " clip-rule="nonzero"/></clipPath></defs><g clip-path="url(#28ffbf1dc2)"><g clip-path="url(#698ea3fa2e)"><g transform="matrix(1, 0, 0, 1, 142, 140)"><g clip-path="url(#fa11e5f007)"><g clip-path="url(#2d46e5667a)"><g clip-path="url(#81093f2cb9)"><path fill="#f4f4f4" d="M 0.875 0 L 1215.125 0 L 1215.125 1214.253906 L 0.875 1214.253906 Z M 0.875 0 " fill-opacity="1" fill-rule="nonzero"/></g></g></g></g></g></g><g clip-path="url(#19d5496e29)"><g clip-path="url(#2b9b26905a)"><path stroke-linecap="butt" transform="matrix(0.75, 0, 0, 0.75, 142.874435, 140.001179)" fill="none" stroke-linejoin="miter" d="M 809.500822 -0.00157219 C 362.427867 -0.00157219 0.000752742 362.425542 0.000752742 809.498498 C 0.000752742 1256.576661 362.427867 1618.998567 809.500822 1618.998567 C 1256.573778 1618.998567 1619.000892 1256.576661 1619.000892 809.498498 C 1619.000892 362.425542 1256.573778 -0.00157219 809.500822 -0.00157219 Z M 809.500822 -0.00157219 " stroke="#81c0bc" stroke-width="30" stroke-opacity="1" stroke-miterlimit="4"/></g></g><g clip-path="url(#3c89d43f94)"><path fill="#16898b" d="M 1064.910156 648.734375 L 768.429688 647.160156 L 1004.039062 292.953125 L 665.054688 294.527344 L 290.382812 837.644531 L 290.382812 1054.886719 L 733.269531 1054.886719 L 733.269531 1201.292969 L 1064.910156 1201.292969 L 1064.910156 1054.886719 L 1178.257812 1054.886719 L 1178.257812 778.871094 L 1064.910156 778.871094 Z M 741.140625 805.109375 L 651.933594 805.109375 L 741.667969 670.773438 Z M 741.140625 805.109375 " fill-opacity="1" fill-rule="nonzero"/></g><g clip-path="url(#151139325c)"><g transform="matrix(1, 0, 0, 1, 750, 871)"><g clip-path="url(#814f31339e)"><g clip-path="url(#8198f095ca)"><path fill="#f4f4f4" d="M 0.0195312 316.113281 C 0.171875 317.214844 0.0625 316.667969 0.53125 318.589844 C 0.855469 319.207031 0.738281 318.957031 1.054688 319.683594 C 0.992188 319.8125 1.019531 319.648438 0.945312 320.644531 C 1.171875 321.746094 1.019531 321.265625 1.652344 322.78125 C 2.15625 323.949219 1.9375 323.628906 3.082031 325.234375 C 3.734375 325.785156 3.46875 325.582031 4.253906 326.117188 C 5.542969 326.496094 4.976562 326.296875 6.773438 327.023438 C 7.476562 328.386719 7.25 328.050781 7.773438 328.582031 C 8.804688 329.335938 8.488281 329.144531 9.179688 329.46875 C 10.082031 329.753906 9.78125 329.574219 10.476562 330.304688 C 10.859375 330.589844 10.597656 330.417969 11.644531 331.042969 C 12.789062 331.488281 11.710938 331.277344 16.230469 331.632812 C 43.457031 332.019531 94.390625 332.160156 94.394531 332.160156 C 103.453125 331.976562 100.9375 332.253906 106.363281 331.503906 C 111.035156 331.242188 110.554688 331.253906 111.5625 330.863281 C 113.105469 329.710938 110.859375 331.179688 118.117188 327.800781 C 120.816406 326.871094 120.28125 327.097656 120.914062 326.714844 C 122.9375 326.003906 122.28125 326.222656 123.835938 325.730469 C 128.820312 324.746094 126.421875 324.828125 128.414062 324.769531 C 134.585938 322.882812 128.648438 324.269531 137.253906 322.320312 C 141.53125 320.664062 139.957031 321.039062 148.621094 319.179688 C 152.050781 318.78125 151.046875 318.960938 154.5625 318.175781 C 157.054688 317.617188 156.675781 318.058594 160.300781 317.316406 C 165.59375 316.5 167.289062 315.945312 167.566406 315.902344 C 173.714844 314.367188 182.511719 311.390625 188.746094 308.796875 C 191.972656 307.738281 192.121094 307.601562 193.808594 307.554688 C 196.496094 305.535156 194.722656 306.503906 196.925781 305.25 C 209.925781 298.933594 210.144531 298.316406 216.546875 294.019531 C 226.1875 287.761719 224.335938 289.464844 230.246094 284.285156 C 231.617188 282.414062 229.894531 284.730469 233.398438 281.054688 C 238.222656 276.390625 237.523438 275.980469 241.515625 270.75 C 244.226562 266.511719 243.726562 267.023438 244.132812 266.914062 C 245.429688 266.183594 245.164062 266.339844 245.867188 265.617188 C 246.546875 264.53125 246.433594 264.734375 246.511719 264.523438 L 246.847656 264.199219 C 247.71875 264.503906 247.027344 264.28125 247.988281 264.425781 C 248.414062 266.292969 248.160156 265.027344 248.511719 266.15625 C 248.910156 266.695312 248.734375 266.566406 249.261719 266.761719 C 249.59375 267.738281 249.722656 267.917969 249.90625 270.726562 C 252.128906 278.019531 251.820312 275.015625 253.464844 282.339844 C 254.152344 284.796875 253.875 283.902344 254.707031 286.238281 C 256.878906 294.328125 256.832031 294.664062 257.035156 298.691406 C 256.734375 300.738281 256.859375 299.855469 256.472656 302.625 C 255.742188 304.609375 256.03125 303.96875 255.222656 305.476562 C 254.078125 307.855469 254.535156 306.984375 253.234375 309.285156 C 253.636719 309.019531 253.882812 308.621094 251.730469 311.410156 C 249.46875 314.605469 249.054688 314.402344 247.511719 316.882812 C 246.464844 318.101562 246.722656 317.859375 246.28125 318.132812 C 244.765625 318.691406 245.285156 318.609375 243.988281 318.542969 C 241.679688 318.476562 242.355469 318.394531 240.941406 318.84375 C 239.546875 319.6875 240.25 319.152344 237.753906 321.328125 C 236.746094 322.359375 236.933594 322.164062 236.75 322.378906 C 234.875 325.1875 234.4375 326.605469 234.152344 327.328125 C 234.101562 328.5 234 328.070312 234.863281 330.492188 C 236.566406 332.574219 237.429688 332.0625 260.671875 332.140625 C 263.988281 332.117188 264.488281 332.222656 268.007812 331.589844 C 269.320312 331.449219 268.84375 331.535156 270.074219 331.199219 C 272.054688 330.246094 272.390625 329.5625 273.5 327.960938 C 274.421875 326.179688 274.132812 326.894531 274.730469 324.816406 C 275.769531 319.464844 275.6875 319.886719 275.710938 319.789062 C 277.695312 314.007812 276.863281 315.835938 279.285156 307.933594 C 280.894531 303.210938 280.570312 303.996094 280.984375 303.398438 C 282.589844 300.28125 282.160156 301.191406 282.945312 299.300781 C 285.710938 293.660156 285.59375 293.921875 285.78125 292.332031 C 285.707031 291.421875 285.648438 291.765625 286.089844 290.835938 C 287.71875 287.269531 286.832031 283.683594 286.15625 280.6875 C 285.433594 277.300781 285.585938 278.664062 285.296875 274.117188 C 285.257812 272.125 285.351562 269.863281 285.265625 268.03125 C 285.140625 262.804688 285.347656 262.300781 285.761719 260.023438 C 286.4375 254.484375 285.84375 256.734375 286.457031 254.285156 C 286.839844 252.855469 286.578125 253.613281 287.679688 250.84375 C 288.15625 248.941406 288.019531 249.757812 288.246094 247.21875 C 288.664062 245.570312 288.90625 244.492188 289.570312 242.585938 C 290.925781 238.039062 290.15625 240.832031 291.492188 233.507812 C 293.152344 225.894531 291.589844 230.832031 293.484375 221.796875 C 296.210938 205.238281 295.773438 205.449219 296 200.636719 C 296.210938 199.289062 296.007812 198.367188 295.984375 195.382812 C 295.367188 190.449219 295.488281 191.300781 295.082031 190.121094 C 294.328125 187.652344 294.675781 188.644531 293.523438 185.734375 C 289.777344 174.648438 292.101562 181.089844 285.226562 170.945312 C 280.324219 164.527344 281.996094 166.75 279.582031 162.484375 C 278.21875 159.117188 278.542969 160.195312 278.085938 157.699219 C 278.085938 154.195312 278.164062 156.128906 278.011719 153.503906 C 278.296875 151.359375 278.101562 152.21875 278.925781 149.71875 C 279.902344 147.003906 279.550781 147.804688 280.460938 146.117188 C 281.546875 143.449219 281.238281 144.285156 281.855469 142.394531 C 283.101562 139.550781 282.574219 140.074219 284.160156 135.386719 C 284.351562 133.773438 284.214844 134.507812 284.792969 132.09375 C 284.988281 130.496094 286.558594 121.914062 286.5625 121.902344 C 287.160156 120.089844 287.367188 117.972656 288.109375 111.773438 C 289.167969 101.664062 289.195312 104.375 290.191406 97.675781 C 290.671875 93.292969 290.601562 94.472656 290.5625 92.679688 C 290.714844 90.757812 290.636719 91.425781 290.894531 89.734375 C 292.089844 80.863281 291.671875 78.210938 291.289062 71 C 290.769531 64.582031 290.96875 71.613281 290.707031 60.304688 C 288.988281 49.410156 289.550781 52.714844 287.421875 45.25 C 286.785156 43.1875 287.25 44.097656 282.570312 34.417969 C 279.292969 28.453125 280.113281 29.804688 277.5 25.972656 C 272.882812 19.707031 273.367188 20.296875 272.96875 20.132812 C 268.066406 14.734375 271.125 18.109375 264.023438 11.414062 C 258.910156 7.566406 260.730469 8.492188 253.226562 3.683594 C 246.023438 0.488281 246.460938 0.824219 243.503906 0.761719 C 241.839844 0.785156 241.839844 0.648438 239.957031 1.5625 C 238.789062 2.125 239.265625 1.832031 237.863281 2.910156 C 236.589844 4.070312 237.082031 3.585938 235.710938 5.058594 C 234.71875 6.40625 234.976562 5.972656 234.519531 6.992188 C 234.347656 7.371094 234.40625 7.136719 234.304688 7.980469 C 234.605469 9.273438 234.46875 9.425781 237.28125 12.28125 C 238.71875 13.296875 237.816406 12.570312 241.183594 15.507812 C 242.621094 16.945312 242.058594 16.425781 243.625 17.777344 C 250.117188 22.65625 246.492188 20.132812 249.945312 22.546875 C 251.566406 24.128906 257.148438 28.945312 259.484375 33.027344 C 261.097656 37.117188 260.253906 35.457031 261.449219 37.496094 C 262.324219 38.832031 261.882812 38.035156 263.445312 41.171875 C 264.601562 43.332031 264.082031 42.089844 265.78125 46.890625 C 268.738281 58.628906 268.539062 59.9375 269.183594 70.039062 C 269.183594 72.414062 269.21875 71.5625 269.058594 73.777344 C 269.042969 81.636719 268.570312 76.910156 268.730469 83.78125 C 268.515625 87.347656 268.058594 88.277344 267.449219 92.042969 C 267.046875 96.160156 266.699219 96.515625 266.695312 98.992188 C 266.582031 100.535156 265.972656 102.363281 266.085938 104.539062 C 265.980469 105.472656 266.097656 104.871094 265.511719 107.242188 C 265.222656 108.980469 265.300781 108.613281 265.15625 109.113281 C 262.335938 120.464844 264.097656 113.847656 262.488281 120.257812 C 259.976562 127.847656 260.347656 126.675781 258.511719 130.667969 C 255.273438 136.007812 256.65625 134.816406 253.40625 139.730469 C 252.570312 141.183594 252.976562 140.582031 251.566406 142.414062 C 249.542969 144.59375 250.347656 143.882812 248.066406 145.566406 C 245.242188 146.988281 246.824219 146.296875 242.335938 147.886719 C 238.164062 149.285156 239.492188 148.636719 235.761719 150.679688 C 234.746094 151.402344 235.324219 151.09375 233.109375 152.0625 C 223.394531 157.421875 228.761719 153.976562 222.648438 157.558594 C 220.960938 158.507812 220.332031 158.707031 218.539062 159.988281 C 217.410156 160.621094 213.480469 162.824219 212.089844 163.828125 C 207.128906 167.777344 210.179688 164.875 205.210938 169.496094 C 200.351562 175.578125 202.816406 171.804688 198.195312 178.210938 C 195.074219 182.414062 195.320312 182.082031 193.957031 184.972656 C 191.042969 190.0625 191.203125 190.832031 187.304688 199.191406 C 183.316406 209.261719 184.066406 208.726562 182.195312 213.582031 C 181.367188 215.347656 181.671875 214.640625 180.855469 216.644531 C 179.375 219.84375 178.226562 220.828125 176.007812 223.171875 C 173.992188 225.132812 174.0625 225.066406 174.054688 225.070312 C 171.335938 227.214844 172.09375 226.675781 170.875 227.394531 C 165.375 231.179688 167.03125 230.492188 163.332031 231.691406 C 160.996094 232.300781 160.773438 232.546875 158.285156 231.839844 C 155.257812 231.871094 154.007812 231.605469 150.636719 231.46875 C 148.800781 231.347656 149.402344 231.308594 147.976562 231.589844 C 146.371094 231.675781 147.265625 231.671875 143.878906 231.574219 C 141.96875 231.847656 142.703125 231.652344 140.667969 232.5 C 139.121094 233.179688 139.652344 232.992188 137.101562 233.828125 C 136.265625 233.875 136.640625 233.949219 135.4375 233.449219 C 134.3125 232.972656 134.757812 233.1875 133.476562 232.488281 C 130.972656 230.296875 131.429688 230.707031 130.617188 229.84375 C 130.703125 228.285156 131.136719 223.953125 129.855469 220.398438 C 129.082031 218.511719 129.480469 219.738281 128.25 215.191406 C 127.574219 211.007812 126.636719 207.902344 125.511719 204.128906 C 124.605469 201.691406 124.992188 202.558594 123.796875 200.363281 C 122.589844 198.734375 123.027344 199.222656 121.886719 198.171875 C 119.789062 196.941406 119.542969 196.640625 117.761719 194.847656 C 116.792969 193.945312 117.0625 194.144531 116.582031 193.925781 C 116.257812 193.820312 116.390625 193.808594 115.992188 194.011719 C 115.226562 194.4375 115.503906 194.199219 114.796875 195.089844 C 114.640625 195.324219 114.792969 195.03125 113.953125 196.789062 C 112.898438 199.582031 113.371094 199.328125 112.515625 203.265625 C 112.402344 204.921875 112.441406 204.628906 112.347656 204.867188 C 111.691406 205.957031 111.917969 205.632812 111.355469 206.3125 C 110.472656 207.804688 111.261719 206.140625 109.023438 209.601562 C 108.394531 210.359375 108.960938 209.789062 106.523438 211.34375 C 104.394531 212.867188 104.566406 212.789062 101.378906 213.015625 C 98.65625 212.832031 101.210938 213.246094 97.023438 212.515625 C 93.300781 212.101562 88.457031 211.511719 84.617188 211.875 C 83.257812 211.914062 83.46875 211.902344 83.339844 211.921875 C 81.769531 212.355469 82.550781 212.050781 79.792969 213.351562 C 73.765625 216.433594 79.128906 214.023438 72.792969 217.152344 C 69.234375 218.273438 71.265625 217.609375 62.347656 218.824219 C 58.964844 219.167969 59.074219 219.242188 58.484375 219.558594 C 57.960938 219.960938 58.121094 219.6875 57.875 220.457031 C 57.109375 225.949219 57.378906 224.050781 57.484375 226.1875 C 56.785156 229.765625 56.886719 229.0625 56.882812 229.796875 C 56.980469 231.570312 57.015625 230.847656 56.90625 231.757812 C 56.902344 232.832031 56.847656 232.394531 57.191406 233.691406 C 57.683594 235.191406 57.554688 234.816406 57.773438 235.382812 C 57.335938 235.761719 57.511719 235.621094 57.007812 235.996094 C 56.445312 236.894531 56.644531 236.46875 56.15625 237.917969 C 56.03125 239.386719 56.035156 238.785156 56.167969 240.582031 C 56.589844 241.796875 56.4375 241.453125 56.828125 242.144531 C 58.445312 243.859375 57.714844 243.195312 60.097656 245.058594 C 64.789062 247.882812 67.167969 249.941406 71.75 252.789062 C 74.28125 254.636719 73.710938 254.203125 74.5625 254.902344 C 77.144531 257.210938 76.242188 256.296875 78.53125 258.871094 C 84.003906 265.351562 80.035156 260.597656 80.320312 261.066406 C 80.519531 261.59375 80.320312 261.300781 81.226562 262.273438 C 82.75 263.757812 82.34375 263.335938 83.085938 264.179688 C 84.621094 266.539062 84.289062 265.980469 84.742188 266.867188 C 87.519531 271.894531 85.65625 267.941406 87.777344 272.15625 C 88.074219 273.402344 88.042969 272.867188 87.851562 274.546875 C 87.664062 275.585938 87.777344 275.0625 87.332031 276.90625 C 85.472656 281.648438 85.425781 280.941406 84.648438 282.867188 C 83.679688 284.730469 84.699219 283.289062 83.238281 286.011719 C 82.425781 288.164062 82.679688 287.371094 82.101562 289.484375 C 81.890625 292.160156 82.082031 289.207031 81.429688 294.246094 C 81.429688 294.253906 81.445312 294.203125 80.925781 295.9375 C 80.4375 297.417969 79.960938 298.855469 80.441406 297.394531 C 79.832031 298.628906 80.085938 298.210938 79.34375 299.246094 C 78.320312 300.167969 78.351562 300.191406 78.035156 300.273438 C 77.300781 300.484375 72.941406 301.769531 72.707031 301.847656 C 69.445312 302.554688 71.007812 302.058594 67.195312 303.125 C 64.324219 303.734375 61.691406 304.359375 56.308594 304.558594 C 49.78125 304.929688 48.324219 304.835938 46.234375 304.789062 C 43.09375 305.371094 43.824219 305.195312 42.703125 305.570312 C 37.488281 307.539062 38.421875 305.917969 29.992188 306.007812 C 27.515625 305.1875 28.484375 305.574219 25.730469 304.269531 C 23.644531 303.011719 24.347656 303.597656 22.617188 301.777344 C 19.914062 298.125 19.917969 298.125 17.367188 296.007812 C 16.15625 295.019531 16.5625 295.253906 15.5625 294.914062 C 14.546875 294.410156 14.703125 294.3125 12.8125 294.390625 C 11.449219 294.738281 11.898438 294.511719 10.816406 295.328125 C 10 296.277344 10.195312 295.988281 9.902344 296.625 C 9.46875 297.328125 9.574219 297.117188 9.410156 297.570312 C 8.859375 298.933594 8.957031 298.527344 8.921875 299.390625 C 8.773438 299.648438 8.839844 299.433594 8.632812 300.527344 C 8.902344 302.359375 8.765625 301.691406 9.261719 303.449219 C 9.976562 305.703125 9.644531 304.855469 10.625 306.808594 C 11.257812 307.613281 11 307.34375 11.773438 307.953125 C 12.15625 308.25 12.117188 308.214844 12.121094 308.234375 C 12.078125 308.363281 12.121094 308.285156 11.902344 308.585938 C 11.769531 309.753906 11.78125 309.117188 11.867188 311.484375 C 12.023438 313.046875 11.914062 312.601562 12.3125 313.503906 C 12.304688 313.601562 12.46875 313.597656 11.21875 313.421875 C 9.722656 313.304688 10.25 313.378906 8.90625 313.113281 C 6.929688 312.953125 5.386719 312.78125 3.3125 313.367188 C 2.527344 313.613281 2.914062 313.425781 1.566406 314.246094 C 0.410156 315.433594 0.652344 315.222656 0.316406 315.421875 L 0.0234375 316.113281 Z M 0.0195312 316.113281 " fill-opacity="1" fill-rule="nonzero"/></g></g></g></g><g clip-path="url(#84dd243d48)"><path fill="#f4f4f4" d="M 695.558594 1347.113281 L 695.574219 1347.113281 L 695.5625 1347.113281 C 700.574219 1347.386719 705.449219 1347.652344 708.929688 1347.347656 C 709.800781 1347.269531 710.558594 1347.160156 711.191406 1347.011719 C 714.183594 1346.320312 714.257812 1344.949219 714.148438 1344.488281 C 714.144531 1344.460938 714.136719 1344.433594 714.128906 1344.40625 C 713.882812 1343.613281 712.863281 1342.996094 711.03125 1342.054688 C 710.71875 1341.894531 710.488281 1341.609375 710.394531 1341.269531 C 710.042969 1339.980469 709.855469 1338.921875 707.128906 1338.152344 C 706.082031 1337.859375 704.695312 1337.621094 703.078125 1337.347656 C 701.171875 1337.027344 698.996094 1336.660156 696.960938 1336.085938 C 695.71875 1335.734375 694.5 1335.300781 693.402344 1334.734375 C 688.710938 1332.308594 686.921875 1327.761719 686.054688 1314.5625 C 685.179688 1301.210938 685.25 1278.394531 688.617188 1250.828125 C 691.984375 1223.277344 698.652344 1190.964844 704.59375 1170.683594 C 707.449219 1160.941406 710.140625 1153.976562 712.5625 1147.699219 C 714.566406 1142.5 716.382812 1137.796875 717.980469 1132.347656 C 718.476562 1130.65625 718.949219 1128.886719 719.402344 1127.011719 C 721.632812 1117.785156 723.328125 1105.921875 725.269531 1092.300781 C 726.527344 1083.46875 727.886719 1073.921875 729.566406 1063.929688 C 733.824219 1038.574219 740.117188 1010.355469 745.386719 993.878906 C 750.6875 977.308594 754.988281 972.492188 759.078125 968.320312 C 763.109375 964.214844 767.039062 960.582031 775.769531 959.371094 C 776.535156 959.265625 777.332031 959.175781 778.152344 959.105469 C 781.605469 958.800781 785.582031 958.757812 789.515625 958.714844 C 793.515625 958.671875 797.472656 958.625 800.917969 958.324219 C 802.371094 958.199219 803.714844 958.027344 804.917969 957.792969 C 812.375 956.355469 814.703125 952.601562 814.992188 948.9375 C 815.300781 945.015625 813.339844 940.835938 811.140625 936.238281 L 811.144531 936.25 L 808.875 931.613281 L 810.8125 932.011719 L 805.71875 936.40625 C 805.492188 936.601562 805.207031 936.707031 804.910156 936.710938 L 800.425781 936.734375 C 799.910156 936.734375 799.445312 936.421875 799.257812 935.941406 L 797.789062 932.21875 L 799.761719 932.710938 L 796.886719 935.175781 C 796.648438 935.382812 796.335938 935.488281 796.019531 935.472656 L 759.589844 933.828125 C 758.964844 933.796875 758.457031 933.316406 758.402344 932.695312 C 758.34375 932.074219 758.753906 931.503906 759.363281 931.363281 C 774.851562 927.753906 790.097656 924.195312 799.527344 919.40625 C 808.816406 914.695312 812.375 908.816406 813.996094 903.699219 C 815.632812 898.527344 815.320312 894.054688 814.980469 889.347656 C 814.964844 889.121094 815.011719 888.894531 815.113281 888.691406 C 816.761719 885.46875 817.972656 882.933594 817.246094 880.699219 C 816.535156 878.503906 813.707031 876.128906 809.132812 876.027344 C 808.554688 876.015625 807.945312 876.039062 807.300781 876.097656 C 804.578125 876.335938 801.476562 877.128906 798.230469 877.964844 C 796.210938 878.484375 794.144531 879.019531 792.152344 879.410156 C 790.765625 879.679688 789.414062 879.882812 788.027344 880.003906 C 783.460938 880.402344 778.648438 879.914062 771.292969 878.226562 C 769.042969 877.710938 766.554688 877.082031 763.898438 876.410156 C 760.816406 875.632812 757.511719 874.800781 754.0625 874.007812 C 747.78125 872.570312 741.074219 871.28125 734.515625 870.765625 C 729.878906 870.398438 725.304688 870.417969 720.722656 870.820312 C 712.214844 871.566406 703.644531 873.636719 694.523438 877.039062 C 680.128906 882.414062 665.574219 890.664062 664.125 898.480469 C 663.261719 903.117188 666.992188 908 671.050781 913.160156 C 673.445312 916.203125 675.957031 919.355469 676.878906 922.300781 C 678.460938 927.347656 675.386719 931.503906 672.347656 935.769531 C 670.457031 938.421875 668.441406 941.257812 666.917969 944.683594 C 664.890625 949.253906 663.714844 954.925781 662.601562 960.320312 C 661.667969 964.851562 660.765625 969.257812 659.386719 972.359375 C 659.125 972.949219 658.839844 973.503906 658.53125 974.011719 C 656.511719 977.304688 653.613281 978.242188 650.582031 978.507812 C 649.359375 978.613281 648.082031 978.617188 646.828125 978.617188 C 645.472656 978.621094 644.132812 978.625 642.78125 978.746094 C 642.242188 978.792969 641.707031 978.859375 641.171875 978.949219 C 637.828125 979.511719 634.414062 981.074219 629.976562 983.117188 C 626.238281 984.835938 621.859375 986.851562 616.390625 988.726562 C 604.667969 992.742188 587.972656 996.085938 573.054688 999.078125 L 572.566406 999.171875 L 572.152344 999.257812 C 562.921875 1001.105469 554.269531 1002.835938 545.917969 1003.570312 C 540.792969 1004.019531 535.761719 1004.09375 530.753906 1003.59375 C 525.285156 1003.042969 519.875 1001.808594 513.882812 1000.441406 C 506.125 998.671875 497.296875 996.65625 485.796875 995.503906 C 484.578125 995.382812 483.328125 995.269531 482.046875 995.167969 C 468.347656 994.082031 450.980469 994.253906 434.308594 995.71875 C 423.300781 996.683594 412.625 998.207031 403.527344 1000.292969 C 382.101562 1005.207031 369.34375 1013.25 358.636719 1020.003906 C 357.9375 1020.445312 357.238281 1020.886719 356.554688 1021.316406 C 345.355469 1028.335938 336.140625 1033.460938 326.949219 1038.574219 C 326.90625 1038.597656 326.863281 1038.621094 326.816406 1038.636719 L 326.78125 1038.652344 C 315.605469 1043.242188 304.226562 1047.921875 291.570312 1049.03125 C 289.347656 1049.226562 287.078125 1049.308594 284.765625 1049.265625 C 269.503906 1048.96875 251.394531 1042.921875 248.097656 1026.433594 C 244.898438 1010.414062 256.140625 984.886719 267.023438 960.035156 L 268.71875 961.65625 C 245.53125 973.089844 223.285156 984.171875 219.34375 1006.273438 C 215.359375 1028.648438 230.007812 1062.433594 250.277344 1073.128906 C 257.445312 1076.910156 265.386719 1077.835938 273.394531 1077.132812 C 286.765625 1075.960938 300.101562 1070.277344 309.90625 1066.09375 C 310.675781 1065.765625 311.433594 1065.441406 312.15625 1065.132812 C 327.601562 1058.589844 331.710938 1057.921875 335.851562 1057.269531 C 336.234375 1057.207031 336.625 1057.328125 336.90625 1057.597656 C 337.1875 1057.867188 337.328125 1058.25 337.289062 1058.636719 C 334.769531 1082.214844 332.296875 1105.496094 335.457031 1121.820312 C 337.019531 1129.890625 339.96875 1136.28125 342.972656 1142.777344 C 345.945312 1149.210938 348.976562 1155.753906 350.566406 1163.96875 C 350.59375 1164.109375 350.621094 1164.25 350.644531 1164.390625 C 353.753906 1181.066406 350.90625 1204.523438 343.691406 1222.695312 C 340.53125 1230.648438 336.539062 1237.578125 332.980469 1243.757812 C 330.042969 1248.859375 327.429688 1253.402344 325.742188 1257.65625 C 324.78125 1260.074219 324.136719 1262.355469 323.898438 1264.550781 C 323.164062 1271.34375 326.269531 1277.695312 329.789062 1284.800781 C 331.808594 1288.878906 333.941406 1293.175781 335.335938 1297.78125 C 337.378906 1304.511719 337.832031 1311.832031 338.230469 1318.167969 C 338.554688 1323.289062 338.835938 1327.667969 339.792969 1330.816406 C 339.863281 1331.054688 339.941406 1331.285156 340.019531 1331.503906 C 341.789062 1336.421875 345.652344 1337.75 349.28125 1338.957031 C 350.394531 1339.328125 351.550781 1339.710938 352.519531 1340.203125 C 356.828125 1342.390625 357.261719 1346.546875 357.667969 1349.875 L 356.402344 1348.777344 L 356.40625 1348.777344 L 356.398438 1348.777344 C 362.253906 1348.613281 368.058594 1348.445312 372.941406 1348.019531 C 376.363281 1347.71875 379.257812 1347.296875 381.371094 1346.679688 C 385.769531 1345.394531 386.117188 1343.59375 385.875 1342.765625 C 385.808594 1342.53125 385.683594 1342.28125 385.492188 1342.023438 C 384.191406 1340.285156 380.578125 1339.023438 376.25 1337.585938 L 376.433594 1337.628906 L 376.410156 1337.625 L 376.40625 1337.625 C 374.738281 1337.335938 373.035156 1337.019531 369.359375 1335.058594 C 365.667969 1333.09375 359.886719 1329.414062 355.367188 1320.964844 C 350.90625 1312.628906 347.65625 1299.59375 348.605469 1289.472656 C 349.566406 1279.242188 354.808594 1272.089844 359.816406 1265.21875 C 360.097656 1264.832031 360.578125 1264.640625 361.046875 1264.726562 C 361.519531 1264.8125 361.902344 1265.160156 362.027344 1265.625 C 364.429688 1274.328125 366.796875 1282.886719 371.992188 1292.066406 C 377.214844 1301.304688 385.261719 1311.101562 391.921875 1315.800781 C 396.425781 1318.980469 400.324219 1319.847656 403.585938 1320.570312 C 405.054688 1320.894531 406.496094 1321.207031 407.757812 1321.722656 C 409.375 1322.386719 410.640625 1323.355469 411.738281 1324.191406 C 412.8125 1325.003906 413.707031 1325.675781 414.75 1326.101562 C 415.375 1326.359375 416.0625 1326.527344 416.859375 1326.558594 L 416.886719 1326.558594 L 416.863281 1326.558594 C 417.195312 1326.570312 417.558594 1326.558594 417.949219 1326.527344 C 421.828125 1326.183594 427.519531 1323.644531 433.542969 1320.933594 L 433.523438 1323.207031 L 408.597656 1311.53125 C 408.535156 1311.503906 408.476562 1311.46875 408.421875 1311.429688 C 397.0625 1303.65625 385.015625 1295.492188 384.386719 1278.953125 C 383.769531 1262.71875 394.195312 1238.625 406.402344 1221.671875 C 411.222656 1214.984375 416.332031 1209.378906 421.140625 1204.105469 C 425.507812 1199.3125 429.613281 1194.808594 433.109375 1189.953125 C 435.574219 1186.527344 437.730469 1182.941406 439.441406 1178.980469 C 446.292969 1163.136719 446.222656 1141.085938 446.132812 1118.640625 C 446.128906 1118.273438 446.289062 1117.925781 446.566406 1117.6875 C 446.847656 1117.449219 447.214844 1117.34375 447.578125 1117.402344 L 455.125 1118.605469 L 455.035156 1118.597656 C 465.902344 1119.53125 476.972656 1120.484375 491.84375 1131.285156 C 497.128906 1135.128906 502.894531 1140.214844 508.9375 1145.542969 C 515.765625 1151.566406 522.976562 1157.921875 530.390625 1163.3125 C 534.753906 1166.480469 539.171875 1169.304688 543.601562 1171.511719 C 562.214844 1180.804688 581.421875 1179.511719 601.019531 1178.167969 C 601.355469 1178.144531 601.6875 1178.257812 601.9375 1178.484375 C 602.1875 1178.707031 602.335938 1179.027344 602.351562 1179.363281 C 603.5625 1209.769531 604.78125 1240.273438 602.621094 1267.757812 C 601.433594 1282.835938 599.230469 1296.996094 597.421875 1308.644531 C 596.140625 1316.859375 595.066406 1323.78125 594.660156 1328.949219 C 594.589844 1329.824219 594.542969 1330.648438 594.515625 1331.414062 C 594.1875 1340.476562 596.835938 1341.671875 598.964844 1342.875 C 599.589844 1343.230469 600.324219 1343.636719 600.972656 1344.195312 C 604.082031 1346.871094 604.75 1352.546875 605.382812 1357.355469 L 604.171875 1356.269531 C 609.894531 1356.398438 615.640625 1356.523438 620.5 1356.6875 L 620.515625 1356.6875 L 620.503906 1356.6875 C 625.371094 1356.847656 629.351562 1357.046875 633.332031 1357.242188 L 633.339844 1357.242188 L 632.058594 1358.21875 C 633.351562 1352.445312 634.265625 1347.808594 632.097656 1345.351562 C 629.824219 1342.765625 623.910156 1342.101562 617.035156 1341.433594 C 616.355469 1341.367188 615.855469 1340.769531 615.910156 1340.089844 C 617.917969 1315.019531 619.929688 1289.882812 624.578125 1263.507812 C 629.226562 1237.136719 636.515625 1209.550781 643.78125 1182.023438 C 643.871094 1181.695312 644.089844 1181.414062 644.390625 1181.25 C 648.054688 1179.242188 652.007812 1177.058594 655.101562 1176.496094 L 655.105469 1176.496094 L 655.101562 1176.496094 C 655.417969 1176.4375 655.726562 1176.394531 656.027344 1176.371094 C 658.847656 1176.121094 660.902344 1177.210938 662.644531 1178.113281 C 663.023438 1178.3125 663.277344 1178.6875 663.316406 1179.113281 C 664.875 1196.617188 666.433594 1214.144531 667.394531 1230.207031 C 668.359375 1246.277344 668.722656 1260.890625 668.253906 1277.085938 C 668.160156 1280.210938 668.039062 1283.386719 667.917969 1286.566406 C 667.796875 1289.757812 667.671875 1292.945312 667.582031 1296.085938 C 667.292969 1306.070312 667.316406 1315.441406 668.613281 1322.585938 C 670.703125 1334.082031 676.09375 1339.875 681.6875 1345.867188 L 680.910156 1345.476562 L 695.628906 1347.117188 L 695.558594 1347.113281 M 695.421875 1349.605469 C 695.398438 1349.605469 695.375 1349.605469 695.351562 1349.601562 L 680.632812 1347.960938 C 680.335938 1347.925781 680.0625 1347.789062 679.859375 1347.570312 C 674.21875 1341.527344 668.382812 1335.28125 666.15625 1323.03125 C 664.808594 1315.601562 664.792969 1305.988281 665.085938 1296.011719 C 665.175781 1292.863281 665.300781 1289.65625 665.421875 1286.46875 C 665.542969 1283.289062 665.664062 1280.125 665.753906 1277.015625 C 666.222656 1260.90625 665.863281 1246.371094 664.902344 1230.355469 C 663.941406 1214.335938 662.386719 1196.847656 660.828125 1179.335938 L 661.496094 1180.332031 C 659.722656 1179.414062 658.261719 1178.679688 656.246094 1178.859375 C 656.023438 1178.878906 655.792969 1178.90625 655.550781 1178.953125 L 655.546875 1178.953125 L 655.550781 1178.953125 C 652.949219 1179.425781 649.414062 1181.34375 645.589844 1183.4375 L 646.195312 1182.664062 C 638.921875 1210.210938 631.667969 1237.695312 627.039062 1263.941406 C 622.410156 1290.179688 620.40625 1315.203125 618.402344 1340.289062 L 617.277344 1338.949219 C 623.59375 1339.5625 630.875 1340.183594 633.972656 1343.699219 C 637.183594 1347.339844 635.648438 1353.617188 634.496094 1358.765625 C 634.363281 1359.355469 633.824219 1359.769531 633.214844 1359.738281 L 633.210938 1359.738281 C 629.226562 1359.539062 625.265625 1359.34375 620.417969 1359.183594 L 620.402344 1359.183594 L 620.417969 1359.183594 C 615.578125 1359.023438 609.839844 1358.894531 604.117188 1358.769531 C 603.5 1358.753906 602.988281 1358.292969 602.90625 1357.683594 C 602.210938 1352.40625 601.554688 1347.992188 599.34375 1346.089844 C 598.914062 1345.71875 598.402344 1345.425781 597.738281 1345.050781 C 594.796875 1343.390625 591.65625 1341.320312 592.019531 1331.324219 C 592.046875 1330.515625 592.097656 1329.65625 592.171875 1328.75 C 592.585938 1323.46875 593.679688 1316.4375 594.953125 1308.261719 C 596.765625 1296.605469 598.953125 1282.53125 600.128906 1267.558594 C 602.277344 1240.253906 601.070312 1209.90625 599.855469 1179.464844 L 601.1875 1180.660156 C 581.6875 1181.996094 561.800781 1183.386719 542.484375 1173.75 C 537.894531 1171.457031 533.359375 1168.554688 528.921875 1165.332031 C 521.394531 1159.863281 514.097656 1153.425781 507.285156 1147.417969 C 501.214844 1142.0625 495.546875 1137.0625 490.375 1133.304688 C 476.0625 1122.910156 465.546875 1122.007812 454.824219 1121.085938 C 454.792969 1121.082031 454.761719 1121.078125 454.734375 1121.074219 L 447.183594 1119.867188 L 448.628906 1118.628906 C 448.722656 1140.886719 448.839844 1163.542969 441.734375 1179.972656 C 439.9375 1184.132812 437.683594 1187.875 435.136719 1191.414062 C 431.542969 1196.40625 427.335938 1201.019531 422.984375 1205.789062 C 418.167969 1211.074219 413.152344 1216.574219 408.429688 1223.132812 C 396.347656 1239.914062 386.296875 1263.445312 386.882812 1278.855469 C 387.457031 1293.964844 398.300781 1301.472656 409.832031 1309.371094 L 409.65625 1309.269531 L 434.585938 1320.941406 C 435.027344 1321.148438 435.308594 1321.59375 435.304688 1322.082031 C 435.300781 1322.570312 435.011719 1323.011719 434.566406 1323.214844 C 428.734375 1325.835938 422.574219 1328.628906 418.167969 1329.015625 C 417.6875 1329.054688 417.21875 1329.070312 416.765625 1329.054688 L 416.738281 1329.050781 L 416.765625 1329.054688 C 415.652344 1329.011719 414.683594 1328.773438 413.804688 1328.414062 C 412.410156 1327.84375 411.257812 1326.960938 410.230469 1326.179688 C 409.101562 1325.324219 408.082031 1324.554688 406.808594 1324.035156 C 405.789062 1323.617188 404.574219 1323.34375 403.046875 1323.007812 C 399.726562 1322.273438 395.414062 1321.324219 390.480469 1317.84375 C 383.417969 1312.855469 375.148438 1302.722656 369.816406 1293.296875 C 364.453125 1283.816406 362.019531 1274.980469 359.621094 1266.289062 L 361.832031 1266.691406 C 356.789062 1273.609375 351.980469 1280.246094 351.09375 1289.703125 C 350.195312 1299.265625 353.300781 1311.8125 357.570312 1319.789062 C 361.777344 1327.652344 367.105469 1331.027344 370.535156 1332.855469 C 373.941406 1334.671875 375.382812 1334.914062 376.832031 1335.164062 L 376.855469 1335.167969 C 376.917969 1335.179688 376.976562 1335.195312 377.039062 1335.214844 C 380.960938 1336.519531 385.597656 1338 387.488281 1340.523438 C 387.839844 1340.992188 388.113281 1341.507812 388.273438 1342.066406 C 389.160156 1345.101562 386.691406 1347.726562 382.070312 1349.078125 C 379.714844 1349.765625 376.625 1350.203125 373.160156 1350.507812 C 368.191406 1350.941406 362.300781 1351.109375 356.46875 1351.277344 L 356.453125 1351.277344 C 355.820312 1351.292969 355.265625 1350.820312 355.1875 1350.179688 C 354.757812 1346.644531 354.355469 1343.933594 351.390625 1342.429688 C 350.617188 1342.039062 349.65625 1341.714844 348.496094 1341.328125 C 344.898438 1340.132812 339.882812 1338.503906 337.667969 1332.351562 C 337.574219 1332.085938 337.484375 1331.816406 337.402344 1331.539062 C 336.34375 1328.050781 336.054688 1323.332031 335.738281 1318.324219 C 335.335938 1311.9375 334.890625 1304.910156 332.945312 1298.507812 C 331.621094 1294.132812 329.585938 1290.015625 327.550781 1285.90625 C 324.109375 1278.960938 320.589844 1271.929688 321.417969 1264.28125 C 321.683594 1261.796875 322.40625 1259.289062 323.417969 1256.734375 C 325.1875 1252.28125 327.90625 1247.570312 330.816406 1242.511719 C 334.382812 1236.316406 338.285156 1229.53125 341.367188 1221.773438 C 348.441406 1203.964844 351.199219 1180.988281 348.191406 1164.847656 C 348.167969 1164.714844 348.140625 1164.574219 348.113281 1164.445312 C 346.589844 1156.566406 343.6875 1150.277344 340.707031 1143.828125 C 337.710938 1137.34375 334.632812 1130.699219 333.003906 1122.296875 C 329.757812 1105.515625 332.300781 1081.792969 334.804688 1058.371094 L 336.238281 1059.734375 C 332.363281 1060.347656 328.453125 1060.941406 313.132812 1067.433594 C 312.417969 1067.738281 311.652344 1068.0625 310.886719 1068.390625 C 301.140625 1072.550781 287.445312 1078.410156 273.613281 1079.621094 C 265.28125 1080.351562 256.824219 1079.40625 249.113281 1075.339844 C 227.773438 1064.082031 212.730469 1029.15625 216.886719 1005.835938 C 221.089844 982.242188 244.820312 970.652344 267.613281 959.414062 C 268.085938 959.183594 268.648438 959.269531 269.03125 959.632812 C 269.410156 959.996094 269.519531 960.554688 269.3125 961.035156 C 258.246094 986.308594 247.542969 1010.902344 250.546875 1025.945312 C 253.460938 1040.519531 269.714844 1046.476562 284.816406 1046.769531 C 287.035156 1046.8125 289.210938 1046.730469 291.355469 1046.542969 C 303.566406 1045.472656 314.601562 1040.953125 325.835938 1036.34375 L 325.867188 1036.328125 L 325.734375 1036.390625 C 334.925781 1031.28125 344.089844 1026.183594 355.226562 1019.199219 C 355.90625 1018.773438 356.605469 1018.332031 357.304688 1017.890625 C 368.066406 1011.101562 381.121094 1002.871094 402.96875 997.859375 C 412.210938 995.738281 423.007812 994.199219 434.09375 993.230469 C 450.875 991.757812 468.382812 991.582031 482.242188 992.679688 C 483.542969 992.78125 484.808594 992.894531 486.046875 993.019531 C 497.710938 994.1875 506.671875 996.234375 514.4375 998.003906 C 520.464844 999.378906 525.71875 1000.578125 531.003906 1001.105469 C 535.820312 1001.589844 540.691406 1001.519531 545.699219 1001.082031 C 553.890625 1000.363281 562.402344 998.664062 571.660156 996.808594 L 571.867188 996.765625 L 572.078125 996.722656 L 572.5625 996.628906 C 587.542969 993.625 604.046875 990.3125 615.578125 986.363281 C 620.917969 984.535156 625.195312 982.566406 628.933594 980.847656 C 633.28125 978.84375 637.019531 977.117188 640.757812 976.484375 C 641.363281 976.382812 641.96875 976.308594 642.5625 976.257812 C 644.035156 976.128906 645.484375 976.125 646.824219 976.121094 C 648.097656 976.117188 649.265625 976.113281 650.363281 976.019531 C 652.96875 975.789062 654.953125 975.066406 656.398438 972.707031 C 656.640625 972.308594 656.875 971.855469 657.101562 971.347656 C 658.347656 968.546875 659.199219 964.453125 660.15625 959.816406 L 660.15625 959.8125 C 661.253906 954.488281 662.476562 948.535156 664.636719 943.667969 C 666.273438 939.984375 668.4375 936.953125 670.3125 934.320312 C 673.570312 929.746094 675.636719 926.691406 674.492188 923.046875 C 673.742188 920.644531 671.597656 917.894531 669.089844 914.707031 C 665.316406 909.910156 660.554688 904.019531 661.667969 898.023438 C 663.425781 888.550781 679.710938 879.902344 693.648438 874.699219 C 702.945312 871.230469 711.734375 869.101562 720.503906 868.332031 C 725.226562 867.917969 729.9375 867.898438 734.710938 868.273438 C 741.445312 868.804688 748.289062 870.121094 754.617188 871.574219 C 758.101562 872.371094 761.429688 873.214844 764.507812 873.988281 C 767.171875 874.660156 769.632812 875.285156 771.851562 875.792969 C 779.082031 877.449219 783.609375 877.882812 787.808594 877.515625 C 789.09375 877.402344 790.359375 877.214844 791.671875 876.957031 C 793.578125 876.585938 795.574219 876.070312 797.609375 875.546875 C 800.800781 874.726562 804.113281 873.867188 807.082031 873.609375 C 807.800781 873.546875 808.503906 873.515625 809.1875 873.53125 C 814.527344 873.648438 818.5 876.46875 819.625 879.925781 C 820.734375 883.347656 818.820312 886.929688 817.339844 889.828125 L 817.472656 889.167969 C 817.808594 893.855469 818.175781 898.773438 816.375 904.453125 C 814.5625 910.179688 810.570312 916.605469 800.660156 921.636719 C 790.894531 926.589844 775.289062 930.21875 759.929688 933.796875 L 759.703125 931.332031 L 796.132812 932.980469 L 795.261719 933.277344 L 798.136719 930.8125 C 798.445312 930.550781 798.859375 930.453125 799.25 930.550781 C 799.644531 930.648438 799.964844 930.929688 800.113281 931.304688 L 801.582031 935.027344 L 800.414062 934.234375 L 804.894531 934.210938 L 804.085938 934.515625 L 809.179688 930.121094 C 809.472656 929.867188 809.867188 929.765625 810.246094 929.839844 C 810.625 929.917969 810.945312 930.167969 811.117188 930.515625 L 813.386719 935.152344 L 813.390625 935.160156 C 815.503906 939.574219 817.851562 944.40625 817.480469 949.132812 C 817.089844 954.113281 813.746094 958.636719 805.390625 960.246094 C 804.078125 960.5 802.644531 960.679688 801.136719 960.8125 C 797.574219 961.125 793.515625 961.167969 789.542969 961.214844 C 785.582031 961.257812 781.710938 961.300781 778.371094 961.59375 C 777.582031 961.664062 776.828125 961.746094 776.113281 961.84375 C 768.179688 962.945312 764.730469 966.128906 760.863281 970.070312 C 757.0625 973.945312 752.957031 978.414062 747.765625 994.640625 C 742.550781 1010.957031 736.277344 1039.042969 732.03125 1064.34375 C 730.359375 1074.300781 729 1083.820312 727.742188 1092.65625 C 725.804688 1106.230469 724.097656 1118.230469 721.832031 1127.597656 C 721.371094 1129.515625 720.882812 1131.320312 720.375 1133.050781 C 718.746094 1138.613281 716.894531 1143.410156 714.890625 1148.597656 C 712.472656 1154.867188 709.816406 1161.75 706.992188 1171.386719 C 701.089844 1191.523438 694.449219 1223.699219 691.097656 1251.132812 C 687.746094 1278.550781 687.683594 1301.210938 688.546875 1314.402344 C 689.421875 1327.746094 691.242188 1330.804688 694.550781 1332.515625 C 695.449219 1332.980469 696.496094 1333.359375 697.640625 1333.679688 C 699.523438 1334.210938 701.566406 1334.558594 703.496094 1334.886719 C 705.066406 1335.152344 706.601562 1335.410156 707.804688 1335.75 C 711.6875 1336.84375 712.324219 1338.84375 712.804688 1340.617188 L 712.171875 1339.832031 C 713.621094 1340.578125 715.890625 1341.648438 716.515625 1343.667969 C 716.539062 1343.753906 716.5625 1343.835938 716.582031 1343.925781 C 717.121094 1346.25 715.5 1348.578125 711.753906 1349.445312 C 710.972656 1349.628906 710.09375 1349.753906 709.148438 1349.835938 C 705.449219 1350.160156 700.367188 1349.878906 695.425781 1349.605469 L 695.40625 1349.605469 Z M 695.421875 1349.605469 " fill-opacity="1" fill-rule="nonzero"/></g><g clip-path="url(#b869b44720)"><path fill="#f4f4f4" d="M 727.925781 870.007812 C 725.507812 870.007812 723.09375 870.113281 720.679688 870.328125 C 712.117188 871.078125 703.507812 873.160156 694.351562 876.578125 C 680.046875 881.914062 665.148438 890.246094 663.636719 898.386719 C 662.726562 903.296875 666.660156 908.382812 670.664062 913.464844 L 670.664062 913.46875 L 670.667969 913.472656 L 670.785156 913.621094 L 670.898438 913.765625 C 673.238281 916.738281 675.546875 919.707031 676.40625 922.449219 C 677.867188 927.117188 675.144531 930.992188 672.132812 935.214844 L 671.945312 935.484375 C 670.058594 938.128906 668.011719 941.007812 666.46875 944.480469 C 664.410156 949.113281 663.226562 954.839844 662.117188 960.21875 C 662.105469 960.273438 662.101562 960.289062 662.101562 960.289062 C 662.097656 960.300781 662.097656 960.316406 662.089844 960.339844 L 662.058594 960.492188 C 661.140625 964.945312 660.257812 969.179688 658.933594 972.160156 L 658.929688 972.160156 C 658.679688 972.734375 658.402344 973.265625 658.105469 973.753906 C 656.203125 976.863281 653.484375 977.753906 650.539062 978.011719 C 649.351562 978.117188 648.105469 978.121094 646.859375 978.125 L 646.828125 978.125 C 645.476562 978.128906 644.113281 978.132812 642.738281 978.25 C 642.1875 978.300781 641.640625 978.367188 641.089844 978.460938 C 637.667969 979.039062 634.191406 980.632812 629.769531 982.664062 L 629.757812 982.671875 L 629.746094 982.675781 C 626.015625 984.394531 621.65625 986.398438 616.230469 988.257812 C 604.5625 992.253906 587.9375 995.589844 573.023438 998.578125 L 572.957031 998.589844 L 572.472656 998.6875 L 572.261719 998.730469 L 572.257812 998.730469 L 572.078125 998.769531 L 572.074219 998.769531 C 572.066406 998.769531 572.0625 998.769531 572.054688 998.773438 C 562.820312 1000.621094 554.195312 1002.34375 545.875 1003.074219 L 545.871094 1003.074219 C 543.191406 1003.3125 540.535156 1003.441406 537.898438 1003.441406 C 535.519531 1003.441406 533.160156 1003.335938 530.804688 1003.097656 C 525.386719 1002.554688 520.019531 1001.332031 514.039062 999.96875 L 513.992188 999.957031 C 506.242188 998.191406 497.398438 996.171875 485.890625 995.019531 L 485.886719 995.019531 C 485.875 995.015625 485.859375 995.011719 485.847656 995.011719 C 484.621094 994.890625 483.375 994.777344 482.085938 994.675781 C 476.191406 994.207031 469.625 993.972656 462.730469 993.972656 C 453.554688 993.972656 443.796875 994.386719 434.265625 995.222656 C 423.246094 996.191406 412.542969 997.71875 403.417969 999.8125 C 381.90625 1004.742188 369.089844 1012.824219 358.371094 1019.585938 L 358.144531 1019.730469 C 357.523438 1020.121094 356.894531 1020.515625 356.289062 1020.894531 C 345.109375 1027.90625 335.902344 1033.027344 326.71875 1038.136719 L 326.710938 1038.140625 C 326.6875 1038.152344 326.667969 1038.164062 326.640625 1038.175781 C 326.636719 1038.175781 326.632812 1038.179688 326.628906 1038.179688 L 326.59375 1038.195312 L 326.546875 1038.214844 C 315.375 1042.800781 304.078125 1047.4375 291.527344 1048.535156 C 289.703125 1048.695312 287.859375 1048.78125 285.976562 1048.78125 C 285.585938 1048.78125 285.167969 1048.777344 284.777344 1048.769531 C 269.542969 1048.476562 251.804688 1042.445312 248.585938 1026.335938 C 245.554688 1011.183594 255.644531 987.285156 266.101562 963.371094 C 266.148438 963.265625 266.15625 963.144531 266.125 963.03125 C 266.082031 962.890625 265.980469 962.777344 265.847656 962.71875 C 265.785156 962.691406 265.714844 962.675781 265.648438 962.675781 C 265.574219 962.675781 265.5 962.695312 265.429688 962.726562 C 243.441406 973.617188 222.671875 984.773438 218.855469 1006.1875 C 214.835938 1028.746094 229.5625 1062.761719 250.046875 1073.566406 C 255.859375 1076.636719 262.167969 1077.84375 268.589844 1077.84375 C 270.199219 1077.84375 271.816406 1077.769531 273.4375 1077.625 C 286.898438 1076.445312 300.308594 1070.730469 310.097656 1066.550781 C 310.894531 1066.210938 311.601562 1065.90625 312.351562 1065.589844 C 327.773438 1059.054688 331.839844 1058.402344 335.929688 1057.757812 C 335.96875 1057.75 336.007812 1057.75 336.046875 1057.75 C 336.238281 1057.75 336.425781 1057.820312 336.566406 1057.957031 C 336.734375 1058.117188 336.820312 1058.347656 336.796875 1058.582031 C 334.28125 1082.132812 331.792969 1105.5 334.972656 1121.914062 C 336.546875 1130.050781 339.523438 1136.492188 342.523438 1142.988281 L 342.542969 1143.03125 L 342.570312 1143.089844 C 345.53125 1149.492188 348.511719 1155.957031 350.082031 1164.066406 L 350.082031 1164.070312 C 350.109375 1164.207031 350.132812 1164.34375 350.160156 1164.480469 C 353.25 1181.050781 350.417969 1204.414062 343.230469 1222.511719 C 340.089844 1230.414062 336.121094 1237.308594 332.570312 1243.480469 L 332.550781 1243.511719 C 329.617188 1248.605469 326.988281 1253.179688 325.28125 1257.472656 C 324.308594 1259.917969 323.652344 1262.242188 323.40625 1264.496094 C 322.65625 1271.460938 325.84375 1277.949219 329.34375 1285.019531 L 329.367188 1285.0625 L 329.402344 1285.136719 C 331.40625 1289.183594 333.492188 1293.410156 334.863281 1297.925781 C 336.878906 1304.566406 337.335938 1311.800781 337.734375 1318.132812 L 337.738281 1318.199219 C 338.058594 1323.296875 338.34375 1327.746094 339.316406 1330.957031 C 339.390625 1331.207031 339.472656 1331.445312 339.554688 1331.671875 C 341.410156 1336.835938 345.503906 1338.222656 349.125 1339.429688 C 349.140625 1339.433594 349.152344 1339.4375 349.164062 1339.441406 L 349.183594 1339.445312 C 350.289062 1339.816406 351.378906 1340.179688 352.296875 1340.644531 C 355.886719 1342.46875 356.628906 1345.734375 357.035156 1348.8125 C 357.070312 1349.058594 357.28125 1349.242188 357.527344 1349.242188 C 357.539062 1349.242188 357.546875 1349.242188 357.558594 1349.242188 C 357.566406 1349.242188 357.570312 1349.242188 357.578125 1349.242188 L 357.582031 1349.242188 L 357.578125 1349.242188 C 363.03125 1349.085938 368.410156 1348.914062 372.984375 1348.511719 C 376.414062 1348.210938 379.347656 1347.785156 381.511719 1347.152344 C 385.957031 1345.855469 386.714844 1343.894531 386.355469 1342.640625 L 386.351562 1342.640625 L 386.351562 1342.625 L 386.347656 1342.621094 L 386.347656 1342.617188 C 386.261719 1342.324219 386.113281 1342.027344 385.894531 1341.734375 L 385.890625 1341.734375 L 385.886719 1341.726562 C 384.484375 1339.851562 380.730469 1338.554688 376.542969 1337.160156 L 376.539062 1337.160156 C 376.503906 1337.144531 376.464844 1337.132812 376.425781 1337.125 C 374.820312 1336.847656 373.171875 1336.53125 369.59375 1334.625 C 365.953125 1332.683594 360.261719 1329.066406 355.804688 1320.734375 C 351.378906 1312.464844 348.160156 1299.53125 349.097656 1289.515625 C 350.042969 1279.484375 355.15625 1272.453125 360.152344 1265.601562 L 360.214844 1265.511719 C 360.359375 1265.316406 360.585938 1265.203125 360.824219 1265.203125 C 360.871094 1265.203125 360.914062 1265.207031 360.960938 1265.214844 C 361.242188 1265.265625 361.472656 1265.476562 361.550781 1265.753906 L 361.558594 1265.777344 C 363.957031 1274.472656 366.335938 1283.078125 371.558594 1292.3125 C 376.804688 1301.585938 384.894531 1311.449219 391.636719 1316.207031 C 396.222656 1319.445312 400.203125 1320.328125 403.480469 1321.050781 L 403.546875 1321.066406 C 403.5625 1321.070312 403.621094 1321.082031 403.621094 1321.082031 C 405.046875 1321.398438 406.394531 1321.703125 407.570312 1322.183594 C 409.097656 1322.808594 410.304688 1323.722656 411.398438 1324.550781 C 411.398438 1324.554688 411.441406 1324.582031 411.441406 1324.582031 L 411.441406 1324.585938 C 412.503906 1325.390625 413.449219 1326.105469 414.5625 1326.5625 C 414.578125 1326.566406 414.589844 1326.570312 414.605469 1326.578125 C 415.261719 1326.839844 415.984375 1327.015625 416.816406 1327.050781 C 416.832031 1327.054688 416.851562 1327.054688 416.871094 1327.054688 C 416.875 1327.054688 416.878906 1327.054688 416.886719 1327.054688 L 416.890625 1327.054688 C 416.972656 1327.054688 417.058594 1327.058594 417.144531 1327.058594 C 417.410156 1327.058594 417.695312 1327.042969 417.992188 1327.019531 C 421.429688 1326.71875 426.195312 1324.75 431.253906 1322.503906 L 431.316406 1322.472656 L 431.316406 1322.46875 C 431.472656 1322.375 431.5625 1322.203125 431.550781 1322.019531 C 431.539062 1321.839844 431.429688 1321.679688 431.265625 1321.601562 L 408.808594 1311.085938 L 408.804688 1311.082031 C 408.769531 1311.066406 408.730469 1311.042969 408.699219 1311.023438 L 408.347656 1310.78125 C 397.066406 1303.054688 385.492188 1295.019531 384.882812 1278.933594 C 384.269531 1262.863281 394.625 1238.882812 406.804688 1221.960938 C 411.597656 1215.304688 416.683594 1209.730469 421.488281 1204.460938 L 421.503906 1204.441406 L 421.578125 1204.359375 C 425.917969 1199.601562 430.015625 1195.097656 433.511719 1190.242188 C 435.992188 1186.796875 438.167969 1183.175781 439.894531 1179.175781 C 446.796875 1163.21875 446.71875 1141.046875 446.625 1118.640625 C 446.625 1118.417969 446.722656 1118.207031 446.890625 1118.0625 C 447.027344 1117.945312 447.203125 1117.882812 447.378906 1117.882812 C 447.417969 1117.882812 447.460938 1117.886719 447.5 1117.890625 L 455.007812 1119.089844 C 455.03125 1119.09375 455.058594 1119.097656 455.082031 1119.097656 C 465.890625 1120.027344 476.832031 1120.992188 491.550781 1131.6875 C 496.804688 1135.503906 502.539062 1140.558594 508.578125 1145.886719 L 508.609375 1145.914062 C 515.4375 1151.9375 522.664062 1158.308594 530.101562 1163.710938 C 534.476562 1166.894531 538.917969 1169.730469 543.378906 1171.957031 C 555.53125 1178.019531 567.917969 1179.605469 580.457031 1179.605469 C 587.273438 1179.605469 594.152344 1179.136719 601.050781 1178.660156 C 601.070312 1178.660156 601.085938 1178.660156 601.101562 1178.660156 C 601.289062 1178.660156 601.46875 1178.726562 601.605469 1178.851562 C 601.757812 1178.988281 601.847656 1179.179688 601.855469 1179.382812 L 601.859375 1179.425781 L 601.871094 1179.75 C 603.078125 1210.042969 604.277344 1240.378906 602.128906 1267.71875 C 600.945312 1282.769531 598.746094 1296.90625 596.933594 1308.554688 L 596.929688 1308.570312 C 595.65625 1316.777344 594.574219 1323.722656 594.167969 1328.910156 L 594.167969 1328.914062 C 594.097656 1329.792969 594.046875 1330.625 594.019531 1331.394531 C 593.695312 1340.351562 596.257812 1341.925781 598.53125 1343.199219 C 598.648438 1343.265625 598.605469 1343.242188 598.722656 1343.308594 C 598.742188 1343.320312 598.78125 1343.339844 598.78125 1343.339844 L 598.820312 1343.363281 C 599.425781 1343.703125 600.074219 1344.078125 600.648438 1344.570312 C 603.359375 1346.902344 604.140625 1351.734375 604.753906 1356.359375 C 604.773438 1356.507812 604.855469 1356.636719 604.980469 1356.714844 C 605.0625 1356.765625 605.152344 1356.792969 605.242188 1356.792969 C 605.25 1356.792969 605.261719 1356.789062 605.269531 1356.789062 L 605.273438 1356.789062 C 610.613281 1356.910156 615.929688 1357.03125 620.464844 1357.179688 L 620.460938 1357.179688 C 620.480469 1357.183594 620.496094 1357.183594 620.515625 1357.183594 C 620.519531 1357.183594 620.527344 1357.183594 620.53125 1357.183594 L 620.535156 1357.183594 C 624.953125 1357.332031 628.632812 1357.507812 632.261719 1357.6875 C 632.269531 1357.6875 632.277344 1357.6875 632.285156 1357.6875 C 632.414062 1357.6875 632.535156 1357.640625 632.628906 1357.550781 C 632.699219 1357.480469 632.75 1357.394531 632.769531 1357.296875 C 633.910156 1352.109375 634.707031 1347.5625 632.472656 1345.023438 C 630.03125 1342.253906 623.84375 1341.597656 617.082031 1340.941406 C 616.671875 1340.902344 616.371094 1340.542969 616.402344 1340.132812 L 616.40625 1340.105469 L 616.40625 1340.082031 L 616.410156 1340.082031 C 618.414062 1315.023438 620.421875 1289.921875 625.066406 1263.59375 C 629.710938 1237.257812 636.984375 1209.703125 644.253906 1182.183594 L 644.261719 1182.152344 C 644.3125 1181.953125 644.445312 1181.78125 644.628906 1181.683594 L 644.792969 1181.589844 L 644.960938 1181.5 C 648.542969 1179.539062 652.253906 1177.53125 655.152344 1176.988281 L 655.148438 1176.988281 C 655.171875 1176.988281 655.195312 1176.984375 655.214844 1176.976562 L 655.210938 1176.976562 C 655.503906 1176.925781 655.792969 1176.886719 656.070312 1176.863281 C 656.332031 1176.839844 656.585938 1176.828125 656.835938 1176.828125 C 659.074219 1176.828125 660.785156 1177.707031 662.34375 1178.515625 L 662.417969 1178.554688 C 662.648438 1178.671875 662.800781 1178.898438 662.820312 1179.15625 L 662.824219 1179.160156 L 662.824219 1179.167969 C 664.382812 1196.667969 665.941406 1214.1875 666.902344 1230.238281 C 667.863281 1246.296875 668.226562 1260.890625 667.757812 1277.070312 L 667.757812 1277.078125 C 667.667969 1280.195312 667.542969 1283.359375 667.421875 1286.539062 L 667.421875 1286.546875 C 667.300781 1289.742188 667.179688 1292.921875 667.085938 1296.070312 C 666.796875 1306.054688 666.820312 1315.472656 668.128906 1322.671875 C 670.203125 1334.101562 675.515625 1339.976562 681.007812 1345.867188 C 681.101562 1345.96875 681.230469 1346.023438 681.363281 1346.027344 L 681.359375 1346.027344 L 695.542969 1347.609375 C 695.5625 1347.609375 695.578125 1347.613281 695.597656 1347.613281 C 695.601562 1347.613281 695.601562 1347.613281 695.605469 1347.613281 L 695.609375 1347.613281 C 699.003906 1347.796875 702.347656 1347.980469 705.234375 1347.980469 C 706.585938 1347.980469 707.847656 1347.9375 708.972656 1347.839844 C 709.859375 1347.761719 710.640625 1347.648438 711.300781 1347.496094 C 714.460938 1346.761719 714.820312 1345.191406 714.632812 1344.378906 L 714.628906 1344.367188 C 714.621094 1344.332031 714.609375 1344.296875 714.601562 1344.261719 L 714.578125 1344.203125 L 714.582031 1344.203125 C 714.234375 1343.195312 712.972656 1342.496094 711.253906 1341.613281 C 711.070312 1341.519531 710.933594 1341.347656 710.875 1341.148438 L 710.871094 1341.140625 C 710.867188 1341.117188 710.839844 1341.023438 710.835938 1341.003906 C 710.832031 1340.988281 710.804688 1340.882812 710.800781 1340.871094 C 710.445312 1339.558594 709.984375 1338.445312 707.261719 1337.675781 C 706.195312 1337.375 704.796875 1337.136719 703.210938 1336.871094 L 703.207031 1336.871094 C 703.195312 1336.867188 703.183594 1336.863281 703.171875 1336.863281 C 703.171875 1336.863281 703.144531 1336.855469 703.128906 1336.855469 C 703.097656 1336.847656 703.082031 1336.847656 703.074219 1336.84375 C 703.074219 1336.84375 703.0625 1336.84375 703.015625 1336.835938 C 701.15625 1336.519531 699.085938 1336.164062 697.148438 1335.625 L 697.144531 1335.625 C 697.128906 1335.617188 697.113281 1335.613281 697.097656 1335.609375 C 695.875 1335.265625 694.6875 1334.839844 693.628906 1334.292969 C 689.214844 1332.011719 687.417969 1327.757812 686.550781 1314.53125 C 685.675781 1301.210938 685.746094 1278.425781 689.109375 1250.890625 C 692.472656 1223.363281 699.132812 1191.078125 705.070312 1170.820312 C 707.917969 1161.101562 710.597656 1154.160156 713.019531 1147.882812 L 713.023438 1147.878906 C 715.03125 1142.679688 716.851562 1137.957031 718.453125 1132.488281 C 718.953125 1130.789062 719.429688 1129.011719 719.886719 1127.128906 C 722.121094 1117.875 723.816406 1105.980469 725.757812 1092.371094 C 727.019531 1083.539062 728.378906 1074 730.054688 1064.011719 C 734.308594 1038.664062 740.601562 1010.476562 745.859375 994.027344 C 751.136719 977.527344 755.398438 972.78125 759.433594 968.667969 C 763.429688 964.59375 767.265625 961.050781 775.839844 959.859375 C 776.597656 959.757812 777.378906 959.671875 778.199219 959.597656 C 781.617188 959.296875 785.5625 959.253906 789.488281 959.210938 L 789.519531 959.210938 C 793.511719 959.167969 797.492188 959.121094 800.964844 958.816406 C 802.425781 958.691406 803.785156 958.515625 805.011719 958.28125 C 812.648438 956.808594 815.175781 952.898438 815.484375 948.976562 C 815.804688 944.917969 813.789062 940.636719 811.625 936.109375 L 811.617188 936.109375 C 811.609375 936.082031 811.601562 936.054688 811.589844 936.03125 L 810.03125 932.851562 C 809.980469 932.75 809.898438 932.667969 809.792969 932.617188 C 809.726562 932.585938 809.65625 932.574219 809.585938 932.574219 C 809.46875 932.574219 809.351562 932.613281 809.261719 932.691406 L 805.394531 936.03125 C 805.257812 936.148438 805.085938 936.214844 804.90625 936.214844 L 800.421875 936.238281 L 800.417969 936.238281 C 800.109375 936.238281 799.832031 936.046875 799.71875 935.761719 L 798.894531 933.667969 C 798.835938 933.519531 798.707031 933.410156 798.550781 933.371094 C 798.511719 933.359375 798.472656 933.355469 798.433594 933.355469 C 798.316406 933.355469 798.199219 933.398438 798.109375 933.476562 L 796.566406 934.796875 C 796.429688 934.917969 796.253906 934.980469 796.074219 934.980469 C 796.066406 934.980469 796.054688 934.980469 796.042969 934.980469 L 759.609375 933.332031 C 759.234375 933.316406 758.929688 933.023438 758.894531 932.648438 C 758.859375 932.273438 759.105469 931.929688 759.472656 931.84375 L 759.558594 931.824219 C 774.996094 928.230469 790.273438 924.660156 799.753906 919.847656 C 809.164062 915.074219 812.808594 909.085938 814.46875 903.847656 C 816.136719 898.578125 815.8125 894.015625 815.472656 889.3125 C 815.464844 889.175781 815.492188 889.039062 815.554688 888.914062 C 817.167969 885.761719 818.519531 883.015625 817.71875 880.546875 C 816.925781 878.101562 813.871094 875.636719 809.144531 875.535156 C 809.039062 875.53125 808.9375 875.53125 808.832031 875.53125 C 808.324219 875.53125 807.800781 875.554688 807.257812 875.605469 C 804.488281 875.847656 801.34375 876.652344 798.109375 877.488281 L 798.089844 877.492188 L 798.066406 877.496094 C 796.058594 878.015625 794.019531 878.539062 792.058594 878.921875 C 790.6875 879.191406 789.351562 879.390625 787.984375 879.511719 C 787.007812 879.59375 786.019531 879.640625 785 879.640625 C 781.308594 879.640625 777.148438 879.0625 771.402344 877.742188 C 769.164062 877.230469 766.671875 876.601562 764.019531 875.933594 C 760.941406 875.15625 757.625 874.316406 754.171875 873.527344 C 747.886719 872.085938 741.15625 870.792969 734.570312 870.273438 L 734.566406 870.273438 L 734.554688 870.269531 C 732.332031 870.097656 730.128906 870.007812 727.925781 870.007812 Z M 727.925781 870.007812 " fill-opacity="1" fill-rule="nonzero"/></g><path fill="#f4f4f4" d="M 665.664062 996.308594 L 647.28125 977.839844 C 648.546875 972.222656 650.125 968.144531 652.019531 965.609375 C 653.628906 963.171875 657.191406 960.089844 662.703125 956.359375 C 660.714844 959.800781 659.488281 962.355469 659.023438 964.019531 C 658.820312 964.695312 658.691406 965.335938 658.640625 965.953125 L 658.632812 966.847656 C 658.667969 967.429688 658.808594 967.96875 659.046875 968.46875 C 659.296875 968.96875 659.644531 969.429688 660.097656 969.851562 C 660.222656 970.097656 661.085938 970.65625 662.6875 971.527344 C 664.375 972.363281 667.3125 973.3125 671.503906 974.375 L 665.664062 996.308594 " fill-opacity="1" fill-rule="nonzero"/><path fill="#f4f4f4" d="M 715.519531 1032.082031 L 717.757812 1032.382812 C 726.054688 1033.554688 732.148438 1034.007812 736.039062 1033.734375 C 738.285156 1033.597656 740.1875 1033.214844 741.746094 1032.582031 C 743.296875 1031.941406 744.550781 1031.136719 745.511719 1030.171875 C 748.203125 1027.1875 749.238281 1023.90625 748.617188 1020.324219 C 748.285156 1017.539062 745.941406 1013.910156 741.578125 1009.441406 C 742.078125 1012.542969 742.125 1015.070312 741.71875 1017.023438 C 741.492188 1018.121094 741.054688 1019.183594 740.398438 1020.207031 C 739.449219 1021.464844 738.792969 1022.207031 738.433594 1022.429688 C 737.703125 1023.058594 736.851562 1023.664062 735.871094 1024.25 C 735.503906 1024.566406 733.808594 1025.40625 730.789062 1026.773438 C 727.65625 1028.121094 722.566406 1029.890625 715.519531 1032.082031 " fill-opacity="1" fill-rule="nonzero"/></svg>