<svg xmlns="http://www.w3.org/2000/svg" xmlns:xlink="http://www.w3.org/1999/xlink" width="2000" zoomAndPan="magnify" viewBox="0 0 1500 1499.999933" height="2000" preserveAspectRatio="xMidYMid meet" version="1.0"><defs><g/><clipPath id="2449f55a94"><rect x="0" width="462" y="0" height="657"/></clipPath><clipPath id="09cb7a815d"><path d="M 650.773438 753.078125 L 919.273438 753.078125 L 919.273438 978.828125 L 650.773438 978.828125 Z M 650.773438 753.078125 " clip-rule="nonzero"/></clipPath><clipPath id="fc9f492194"><path d="M 480.613281 1013.78125 L 919 1013.78125 L 919 1442.03125 L 480.613281 1442.03125 Z M 480.613281 1013.78125 " clip-rule="nonzero"/></clipPath><clipPath id="c4d0eff541"><path d="M 759.933594 1077.921875 L 918.933594 1077.921875 L 918.933594 1220.421875 L 759.933594 1220.421875 Z M 759.933594 1077.921875 " clip-rule="nonzero"/></clipPath><clipPath id="1bb7e8669c"><path d="M 1 0.921875 L 159.933594 0.921875 L 159.933594 143.09375 L 1 143.09375 Z M 1 0.921875 " clip-rule="nonzero"/></clipPath><clipPath id="399034413c"><rect x="0" width="160" y="0" height="144"/></clipPath><clipPath id="88d0809a39"><path d="M 758.113281 1186.28125 L 848.863281 1186.28125 L 848.863281 1442.03125 L 758.113281 1442.03125 Z M 758.113281 1186.28125 " clip-rule="nonzero"/></clipPath><clipPath id="dacc874b7c"><path d="M 759 1187 L 848.863281 1187 L 848.863281 1442.03125 L 759 1442.03125 Z M 759 1187 " clip-rule="nonzero"/></clipPath></defs><g transform="matrix(1, 0, 0, 1, 560, 87)"><g clip-path="url(#2449f55a94)"><g fill="#16898b" fill-opacity="1"><g transform="translate(368.732779, 656.21346)"><g><path d="M 0 -32.140625 L -276.84375 -32.140625 L -276.84375 -127.828125 C -276.84375 -148.890625 -273.035156 -166.414062 -265.421875 -180.40625 C -257.804688 -194.40625 -247.429688 -204.875 -234.296875 -211.8125 C -221.171875 -218.75 -206.304688 -222.21875 -189.703125 -222.21875 C -173.109375 -222.21875 -158.179688 -218.71875 -144.921875 -211.71875 C -131.671875 -204.726562 -121.203125 -194.234375 -113.515625 -180.234375 C -105.835938 -166.234375 -102 -148.707031 -102 -127.65625 L -102 -57.59375 L -132.84375 -57.59375 L -132.84375 -126.53125 C -132.84375 -140.78125 -135.257812 -152.394531 -140.09375 -161.375 C -144.925781 -170.351562 -151.644531 -176.945312 -160.25 -181.15625 C -168.863281 -185.375 -178.679688 -187.484375 -189.703125 -187.484375 C -200.734375 -187.484375 -210.488281 -185.375 -218.96875 -181.15625 C -227.457031 -176.945312 -234.113281 -170.320312 -238.9375 -161.28125 C -243.769531 -152.238281 -246.1875 -140.53125 -246.1875 -126.15625 L -246.1875 -67.078125 L 0 -67.078125 Z M 0 -32.140625 "/></g></g></g><g fill="#16898b" fill-opacity="1"><g transform="translate(368.732779, 437.478046)"><g><path d="M 0 -32.140625 L -276.84375 -32.140625 L -276.84375 -203.265625 L -246 -203.265625 L -246 -67.078125 L -155.703125 -67.078125 L -155.703125 -193.796875 L -124.671875 -193.796875 L -124.671875 -67.078125 L -30.84375 -67.078125 L -30.84375 -204.578125 L 0 -204.578125 Z M 0 -32.140625 "/></g></g></g><g fill="#16898b" fill-opacity="1"><g transform="translate(368.732779, 232.678203)"><g><path d="M -246 -16.171875 L -276.84375 -16.171875 L -276.84375 -226.5 L -246 -226.5 L -246 -138.984375 L 0 -138.984375 L 0 -104.046875 L -246 -104.046875 Z M -246 -16.171875 "/></g></g></g></g></g><g clip-path="url(#09cb7a815d)"><path fill="#7fd4c0" d="M 650.820312 922.3125 L 777.980469 922.3125 C 779.832031 922.3125 781.679688 922.222656 783.519531 922.039062 C 785.363281 921.859375 787.191406 921.585938 789.007812 921.226562 C 790.824219 920.863281 792.617188 920.414062 794.386719 919.878906 C 796.160156 919.339844 797.898438 918.71875 799.609375 918.007812 C 801.320312 917.300781 802.992188 916.511719 804.621094 915.636719 C 806.253906 914.765625 807.839844 913.816406 809.378906 912.785156 C 810.917969 911.757812 812.402344 910.65625 813.835938 909.484375 C 815.265625 908.308594 816.636719 907.066406 817.945312 905.757812 C 819.253906 904.449219 820.496094 903.078125 821.667969 901.648438 C 822.84375 900.21875 823.945312 898.734375 824.972656 897.195312 C 826 895.65625 826.953125 894.070312 827.824219 892.4375 C 828.695312 890.804688 829.488281 889.132812 830.195312 887.421875 C 830.902344 885.714844 831.527344 883.972656 832.0625 882.199219 C 832.601562 880.429688 833.050781 878.636719 833.410156 876.820312 C 833.773438 875.003906 834.042969 873.175781 834.226562 871.335938 C 834.40625 869.492188 834.496094 867.644531 834.496094 865.796875 C 834.496094 863.945312 834.40625 862.097656 834.226562 860.253906 C 834.042969 858.414062 833.773438 856.585938 833.410156 854.769531 C 833.050781 852.953125 832.601562 851.160156 832.0625 849.390625 C 831.527344 847.617188 830.902344 845.878906 830.195312 844.167969 C 829.488281 842.457031 828.695312 840.785156 827.824219 839.152344 C 826.953125 837.519531 826 835.933594 824.972656 834.394531 C 823.945312 832.855469 822.84375 831.371094 821.667969 829.941406 C 820.496094 828.511719 819.253906 827.140625 817.945312 825.832031 C 816.636719 824.523438 815.265625 823.28125 813.835938 822.105469 C 812.402344 820.933594 810.917969 819.832031 809.378906 818.804688 C 807.839844 817.773438 806.253906 816.824219 804.621094 815.953125 C 802.992188 815.078125 801.320312 814.289062 799.609375 813.582031 C 797.898438 812.871094 796.160156 812.25 794.386719 811.710938 C 792.617188 811.175781 790.824219 810.726562 789.007812 810.363281 C 787.191406 810.003906 785.363281 809.730469 783.519531 809.550781 C 781.679688 809.371094 779.832031 809.277344 777.980469 809.277344 L 650.820312 809.277344 L 650.820312 781.019531 L 777.980469 781.019531 C 779.367188 781.019531 780.753906 781.054688 782.140625 781.121094 C 783.527344 781.191406 784.910156 781.292969 786.289062 781.429688 C 787.671875 781.5625 789.046875 781.734375 790.421875 781.9375 C 791.792969 782.140625 793.160156 782.378906 794.519531 782.648438 C 795.878906 782.917969 797.234375 783.222656 798.578125 783.5625 C 799.925781 783.898438 801.261719 784.269531 802.589844 784.671875 C 803.917969 785.074219 805.234375 785.507812 806.539062 785.976562 C 807.847656 786.441406 809.140625 786.941406 810.421875 787.472656 C 811.703125 788.003906 812.972656 788.566406 814.226562 789.160156 C 815.480469 789.753906 816.71875 790.375 817.945312 791.03125 C 819.167969 791.683594 820.375 792.367188 821.5625 793.082031 C 822.753906 793.792969 823.925781 794.535156 825.078125 795.308594 C 826.234375 796.078125 827.367188 796.875 828.480469 797.703125 C 829.597656 798.53125 830.6875 799.382812 831.761719 800.261719 C 832.835938 801.144531 833.882812 802.050781 834.914062 802.980469 C 835.941406 803.914062 836.945312 804.871094 837.925781 805.851562 C 838.90625 806.832031 839.863281 807.835938 840.796875 808.863281 C 841.726562 809.890625 842.632812 810.941406 843.511719 812.015625 C 844.394531 813.085938 845.246094 814.179688 846.074219 815.292969 C 846.898438 816.410156 847.699219 817.542969 848.46875 818.695312 C 849.238281 819.851562 849.980469 821.023438 850.695312 822.210938 C 851.410156 823.402344 852.09375 824.609375 852.746094 825.832031 C 853.398438 827.054688 854.023438 828.296875 854.617188 829.550781 C 855.210938 830.804688 855.773438 832.070312 856.304688 833.351562 C 856.832031 834.636719 857.332031 835.929688 857.800781 837.234375 C 858.269531 838.542969 858.703125 839.859375 859.105469 841.1875 C 859.507812 842.515625 859.878906 843.851562 860.214844 845.195312 C 860.550781 846.542969 860.855469 847.894531 861.128906 849.257812 C 861.398438 850.617188 861.636719 851.984375 861.839844 853.355469 C 862.042969 854.726562 862.210938 856.105469 862.347656 857.484375 C 862.484375 858.867188 862.585938 860.25 862.652344 861.636719 C 862.722656 863.019531 862.757812 864.40625 862.757812 865.796875 C 862.757812 867.183594 862.722656 868.570312 862.652344 869.953125 C 862.585938 871.339844 862.484375 872.722656 862.347656 874.105469 C 862.210938 875.484375 862.042969 876.863281 861.839844 878.234375 C 861.636719 879.605469 861.398438 880.972656 861.128906 882.332031 C 860.855469 883.695312 860.550781 885.046875 860.214844 886.394531 C 859.878906 887.738281 859.507812 889.078125 859.105469 890.402344 C 858.703125 891.730469 858.269531 893.046875 857.800781 894.355469 C 857.332031 895.660156 856.832031 896.957031 856.304688 898.238281 C 855.773438 899.519531 855.210938 900.785156 854.617188 902.042969 C 854.023438 903.296875 853.398438 904.535156 852.746094 905.757812 C 852.09375 906.980469 851.410156 908.1875 850.695312 909.378906 C 849.980469 910.566406 849.238281 911.738281 848.46875 912.894531 C 847.699219 914.046875 846.898438 915.179688 846.074219 916.296875 C 845.246094 917.410156 844.394531 918.503906 843.511719 919.574219 C 842.632812 920.648438 841.726562 921.699219 840.796875 922.726562 C 839.863281 923.753906 838.90625 924.757812 837.925781 925.738281 C 836.945312 926.722656 835.941406 927.675781 834.914062 928.609375 C 833.882812 929.539062 832.835938 930.445312 831.761719 931.328125 C 830.6875 932.207031 829.597656 933.058594 828.480469 933.886719 C 827.367188 934.714844 826.234375 935.511719 825.078125 936.28125 C 823.925781 937.054688 822.753906 937.796875 821.5625 938.507812 C 820.375 939.222656 819.167969 939.90625 817.945312 940.558594 C 816.71875 941.214844 815.480469 941.835938 814.226562 942.429688 C 812.972656 943.023438 811.703125 943.585938 810.421875 944.117188 C 809.140625 944.648438 807.847656 945.148438 806.539062 945.613281 C 805.234375 946.082031 803.917969 946.515625 802.589844 946.917969 C 801.261719 947.324219 799.925781 947.691406 798.578125 948.03125 C 797.234375 948.367188 795.878906 948.671875 794.519531 948.941406 C 793.160156 949.210938 791.792969 949.449219 790.421875 949.652344 C 789.046875 949.855469 787.671875 950.027344 786.289062 950.160156 C 784.910156 950.296875 783.527344 950.398438 782.140625 950.46875 C 780.753906 950.535156 779.367188 950.570312 777.980469 950.570312 L 650.820312 950.570312 Z M 891.015625 978.828125 L 891.015625 752.761719 L 919.273438 752.761719 L 919.273438 978.828125 Z M 891.015625 978.828125 " fill-opacity="1" fill-rule="nonzero"/></g><g clip-path="url(#fc9f492194)"><path fill="#16898b" d="M 652.53125 1068.589844 L 651.769531 1211.539062 L 480.988281 1097.9375 L 481.75 1261.382812 L 743.613281 1442.03125 L 848.359375 1442.03125 L 848.359375 1228.488281 L 918.949219 1228.488281 L 918.949219 1068.589844 L 848.359375 1068.589844 L 848.359375 1013.9375 L 715.277344 1013.9375 L 715.277344 1068.589844 Z M 727.925781 1224.695312 L 727.925781 1267.707031 L 663.15625 1224.441406 Z M 727.925781 1224.695312 " fill-opacity="1" fill-rule="nonzero"/></g><g clip-path="url(#c4d0eff541)"><g transform="matrix(1, 0, 0, 1, 759, 1077)"><g clip-path="url(#399034413c)"><g clip-path="url(#1bb7e8669c)"><path fill="#f4f4f4" d="M 153.109375 143.410156 C 153.640625 143.335938 153.378906 143.390625 154.304688 143.164062 C 154.601562 143.007812 154.480469 143.0625 154.832031 142.910156 C 154.894531 142.941406 154.816406 142.929688 155.296875 142.964844 C 155.824219 142.855469 155.59375 142.929688 156.324219 142.621094 C 156.886719 142.382812 156.734375 142.484375 157.507812 141.933594 C 157.773438 141.617188 157.675781 141.746094 157.933594 141.367188 C 158.117188 140.746094 158.019531 141.019531 158.371094 140.152344 C 159.027344 139.816406 158.867188 139.925781 159.125 139.671875 C 159.484375 139.175781 159.394531 139.328125 159.550781 138.992188 C 159.6875 138.558594 159.601562 138.703125 159.953125 138.367188 C 160.089844 138.183594 160.007812 138.3125 160.308594 137.804688 C 160.523438 137.253906 160.421875 137.773438 160.59375 135.59375 C 160.78125 122.46875 160.847656 97.910156 160.847656 97.90625 C 160.757812 93.542969 160.890625 94.753906 160.53125 92.136719 C 160.40625 89.886719 160.410156 90.117188 160.222656 89.628906 C 159.664062 88.886719 160.375 89.96875 158.746094 86.472656 C 158.296875 85.167969 158.40625 85.429688 158.222656 85.121094 C 157.878906 84.144531 157.984375 84.464844 157.746094 83.710938 C 157.273438 81.308594 157.3125 82.464844 157.285156 81.503906 C 156.375 78.53125 157.042969 81.394531 156.101562 77.246094 C 155.304688 75.179688 155.484375 75.941406 154.589844 71.761719 C 154.398438 70.109375 154.484375 70.59375 154.105469 68.898438 C 153.835938 67.695312 154.046875 67.878906 153.691406 66.132812 C 153.296875 63.578125 153.03125 62.761719 153.007812 62.628906 C 152.269531 59.664062 150.835938 55.421875 149.582031 52.417969 C 149.074219 50.863281 149.007812 50.789062 148.984375 49.976562 C 148.011719 48.679688 148.476562 49.535156 147.871094 48.472656 C 144.828125 42.207031 144.53125 42.097656 142.460938 39.011719 C 139.441406 34.363281 140.261719 35.257812 137.765625 32.40625 C 136.863281 31.746094 137.980469 32.578125 136.207031 30.890625 C 133.957031 28.5625 133.761719 28.898438 131.238281 26.976562 C 129.195312 25.667969 129.441406 25.90625 129.390625 25.714844 C 129.039062 25.085938 129.113281 25.214844 128.761719 24.875 C 128.242188 24.546875 128.339844 24.605469 128.238281 24.566406 L 128.082031 24.402344 C 128.226562 23.984375 128.121094 24.316406 128.191406 23.855469 C 129.089844 23.648438 128.480469 23.773438 129.023438 23.601562 C 129.285156 23.410156 129.222656 23.492188 129.316406 23.238281 C 129.789062 23.078125 129.875 23.019531 131.226562 22.929688 C 134.746094 21.855469 133.296875 22.007812 136.828125 21.214844 C 138.011719 20.882812 137.582031 21.015625 138.707031 20.613281 C 142.609375 19.566406 142.769531 19.589844 144.710938 19.492188 C 145.699219 19.636719 145.273438 19.578125 146.609375 19.761719 C 147.5625 20.113281 147.253906 19.976562 147.980469 20.363281 C 149.128906 20.917969 148.710938 20.695312 149.820312 21.324219 C 149.691406 21.128906 149.496094 21.011719 150.84375 22.050781 C 152.382812 23.140625 152.285156 23.339844 153.480469 24.082031 C 154.070312 24.589844 153.953125 24.464844 154.085938 24.675781 C 154.351562 25.410156 154.316406 25.15625 154.28125 25.78125 C 154.25 26.894531 154.210938 26.570312 154.425781 27.25 C 154.832031 27.921875 154.574219 27.585938 155.625 28.789062 C 156.121094 29.273438 156.027344 29.183594 156.128906 29.273438 C 157.484375 30.175781 158.167969 30.386719 158.515625 30.523438 C 159.082031 30.550781 158.875 30.597656 160.042969 30.179688 C 161.046875 29.359375 160.800781 28.945312 160.839844 17.738281 C 160.828125 16.140625 160.878906 15.898438 160.570312 14.203125 C 160.503906 13.570312 160.546875 13.796875 160.382812 13.207031 C 159.925781 12.25 159.59375 12.089844 158.824219 11.554688 C 157.964844 11.109375 158.308594 11.25 157.304688 10.960938 C 154.726562 10.457031 154.929688 10.5 154.882812 10.488281 C 152.097656 9.53125 152.976562 9.933594 149.167969 8.765625 C 146.890625 7.988281 147.269531 8.144531 146.980469 7.945312 C 145.476562 7.171875 145.914062 7.378906 145.003906 7 C 142.285156 5.667969 142.410156 5.722656 141.644531 5.632812 C 141.207031 5.667969 141.371094 5.695312 140.921875 5.484375 C 139.203125 4.699219 137.476562 5.125 136.03125 5.449219 C 134.398438 5.800781 135.054688 5.726562 132.863281 5.863281 C 131.902344 5.882812 130.8125 5.839844 129.925781 5.878906 C 127.410156 5.941406 127.164062 5.839844 126.066406 5.640625 C 123.398438 5.316406 124.480469 5.601562 123.300781 5.304688 C 122.613281 5.121094 122.976562 5.25 121.640625 4.71875 C 120.726562 4.488281 121.117188 4.554688 119.894531 4.445312 C 119.097656 4.242188 118.578125 4.125 117.660156 3.804688 C 115.46875 3.152344 116.8125 3.523438 113.285156 2.878906 C 109.613281 2.078125 111.992188 2.832031 107.636719 1.917969 C 99.652344 0.605469 99.753906 0.816406 97.433594 0.707031 C 96.785156 0.605469 96.339844 0.703125 94.898438 0.714844 C 92.523438 1.011719 92.933594 0.953125 92.363281 1.148438 C 91.175781 1.511719 91.652344 1.34375 90.25 1.898438 C 84.90625 3.703125 88.011719 2.585938 83.117188 5.898438 C 80.023438 8.265625 81.097656 7.457031 79.039062 8.621094 C 77.414062 9.277344 77.933594 9.121094 76.730469 9.339844 C 75.042969 9.34375 75.976562 9.304688 74.710938 9.378906 C 73.675781 9.242188 74.089844 9.335938 72.882812 8.9375 C 71.574219 8.46875 71.960938 8.636719 71.148438 8.195312 C 69.863281 7.671875 70.265625 7.820312 69.355469 7.523438 C 67.980469 6.925781 68.234375 7.179688 65.972656 6.414062 C 65.199219 6.320312 65.550781 6.386719 64.386719 6.109375 C 63.617188 6.015625 59.476562 5.257812 59.472656 5.257812 C 58.597656 4.964844 57.578125 4.867188 54.589844 4.507812 C 49.714844 4 51.023438 3.984375 47.792969 3.503906 C 45.679688 3.273438 46.246094 3.308594 45.382812 3.328125 C 44.457031 3.253906 44.777344 3.292969 43.960938 3.167969 C 39.6875 2.589844 38.40625 2.792969 34.929688 2.976562 C 31.835938 3.226562 35.226562 3.132812 29.773438 3.257812 C 24.523438 4.085938 26.117188 3.816406 22.515625 4.839844 C 21.523438 5.148438 21.960938 4.925781 17.292969 7.179688 C 14.417969 8.757812 15.066406 8.367188 13.222656 9.625 C 10.199219 11.851562 10.484375 11.617188 10.40625 11.808594 C 7.804688 14.171875 9.429688 12.699219 6.203125 16.125 C 4.347656 18.589844 4.792969 17.710938 2.472656 21.328125 C 0.933594 24.800781 1.09375 24.589844 1.066406 26.015625 C 1.078125 26.820312 1.011719 26.820312 1.453125 27.726562 C 1.722656 28.289062 1.582031 28.058594 2.101562 28.734375 C 2.660156 29.347656 2.429688 29.113281 3.136719 29.773438 C 3.789062 30.25 3.578125 30.125 4.070312 30.347656 C 4.253906 30.429688 4.140625 30.402344 4.546875 30.449219 C 5.167969 30.304688 5.242188 30.371094 6.621094 29.015625 C 7.109375 28.324219 6.757812 28.757812 8.175781 27.136719 C 8.867188 26.441406 8.617188 26.710938 9.269531 25.957031 C 11.621094 22.828125 10.40625 24.574219 11.570312 22.910156 C 12.332031 22.128906 14.652344 19.4375 16.621094 18.3125 C 18.59375 17.53125 17.792969 17.9375 18.777344 17.363281 C 19.421875 16.941406 19.039062 17.15625 20.550781 16.402344 C 21.589844 15.84375 20.992188 16.09375 23.304688 15.273438 C 28.964844 13.851562 29.597656 13.945312 34.46875 13.636719 C 35.613281 13.632812 35.203125 13.617188 36.269531 13.695312 C 40.058594 13.703125 37.78125 13.929688 41.09375 13.851562 C 42.8125 13.957031 43.261719 14.175781 45.074219 14.472656 C 47.0625 14.664062 47.234375 14.832031 48.425781 14.835938 C 49.171875 14.890625 50.054688 15.183594 51.101562 15.128906 C 51.550781 15.179688 51.261719 15.125 52.40625 15.40625 C 53.242188 15.542969 53.066406 15.507812 53.308594 15.574219 C 58.78125 16.9375 55.589844 16.085938 58.679688 16.863281 C 62.339844 18.074219 61.773438 17.894531 63.699219 18.78125 C 66.273438 20.34375 65.699219 19.675781 68.070312 21.242188 C 68.769531 21.644531 68.480469 21.449219 69.363281 22.128906 C 70.414062 23.105469 70.070312 22.714844 70.882812 23.816406 C 71.566406 25.179688 71.234375 24.414062 72 26.578125 C 72.675781 28.589844 72.363281 27.949219 73.347656 29.75 C 73.695312 30.238281 73.546875 29.960938 74.015625 31.027344 C 76.597656 35.710938 74.9375 33.125 76.664062 36.070312 C 77.121094 36.882812 77.21875 37.1875 77.835938 38.050781 C 78.140625 38.597656 79.203125 40.492188 79.6875 41.160156 C 81.589844 43.554688 80.191406 42.082031 82.421875 44.476562 C 85.351562 46.820312 83.53125 45.632812 86.621094 47.859375 C 88.648438 49.367188 88.488281 49.246094 89.882812 49.90625 C 92.335938 51.308594 92.707031 51.230469 96.738281 53.109375 C 101.59375 55.035156 101.335938 54.671875 103.675781 55.574219 C 104.527344 55.976562 104.1875 55.828125 105.152344 56.222656 C 106.695312 56.933594 107.171875 57.488281 108.296875 58.558594 C 109.246094 59.53125 109.210938 59.496094 109.214844 59.5 C 110.25 60.8125 109.988281 60.445312 110.335938 61.035156 C 112.160156 63.683594 111.828125 62.886719 112.40625 64.671875 C 112.699219 65.796875 112.820312 65.902344 112.480469 67.105469 C 112.492188 68.5625 112.367188 69.164062 112.300781 70.789062 C 112.242188 71.675781 112.222656 71.386719 112.359375 72.074219 C 112.398438 72.847656 112.398438 72.417969 112.351562 74.050781 C 112.484375 74.96875 112.386719 74.617188 112.796875 75.597656 C 113.125 76.34375 113.035156 76.085938 113.4375 77.316406 C 113.460938 77.71875 113.496094 77.539062 113.253906 78.121094 C 113.023438 78.660156 113.128906 78.445312 112.789062 79.066406 C 111.734375 80.269531 111.933594 80.050781 111.515625 80.445312 C 110.765625 80.402344 108.675781 80.191406 106.960938 80.808594 C 106.054688 81.183594 106.644531 80.992188 104.453125 81.585938 C 102.433594 81.910156 100.9375 82.363281 99.117188 82.90625 C 97.945312 83.339844 98.363281 83.15625 97.304688 83.734375 C 96.519531 84.3125 96.753906 84.101562 96.246094 84.652344 C 95.652344 85.664062 95.507812 85.785156 94.644531 86.640625 C 94.207031 87.109375 94.304688 86.976562 94.199219 87.210938 C 94.148438 87.367188 94.140625 87.300781 94.242188 87.492188 C 94.445312 87.863281 94.332031 87.730469 94.761719 88.070312 C 94.871094 88.148438 94.730469 88.074219 95.578125 88.476562 C 96.925781 88.988281 96.800781 88.757812 98.703125 89.171875 C 99.5 89.226562 99.359375 89.207031 99.472656 89.25 C 100 89.566406 99.84375 89.460938 100.171875 89.730469 C 100.890625 90.15625 100.085938 89.777344 101.757812 90.855469 C 102.121094 91.15625 101.847656 90.886719 102.597656 92.0625 C 103.332031 93.085938 103.292969 93.003906 103.402344 94.539062 C 103.316406 95.851562 103.511719 94.621094 103.160156 96.640625 C 102.964844 98.433594 102.675781 100.769531 102.851562 102.621094 C 102.871094 103.277344 102.867188 103.175781 102.875 103.238281 C 103.085938 103.996094 102.9375 103.617188 103.566406 104.949219 C 105.050781 107.855469 103.886719 105.269531 105.398438 108.324219 C 105.9375 110.039062 105.617188 109.058594 106.203125 113.359375 C 106.367188 114.992188 106.40625 114.9375 106.558594 115.222656 C 106.753906 115.472656 106.617188 115.398438 106.988281 115.515625 C 109.636719 115.886719 108.722656 115.753906 109.753906 115.703125 C 111.480469 116.042969 111.140625 115.992188 111.492188 115.996094 C 112.347656 115.945312 112 115.929688 112.441406 115.980469 C 112.957031 115.984375 112.746094 116.011719 113.371094 115.84375 C 114.09375 115.605469 113.914062 115.671875 114.1875 115.566406 C 114.371094 115.773438 114.300781 115.691406 114.484375 115.933594 C 114.917969 116.203125 114.710938 116.109375 115.410156 116.34375 C 116.117188 116.40625 115.828125 116.402344 116.695312 116.339844 C 117.28125 116.136719 117.113281 116.207031 117.445312 116.019531 C 118.273438 115.242188 117.953125 115.59375 118.851562 114.445312 C 120.214844 112.183594 121.207031 111.035156 122.578125 108.828125 C 123.46875 107.605469 123.261719 107.878906 123.597656 107.46875 C 124.710938 106.226562 124.269531 106.660156 125.511719 105.558594 C 128.636719 102.917969 126.34375 104.832031 126.570312 104.691406 C 126.824219 104.597656 126.683594 104.695312 127.152344 104.257812 C 127.867188 103.523438 127.664062 103.71875 128.070312 103.359375 C 129.207031 102.621094 128.941406 102.78125 129.367188 102.5625 C 131.789062 101.222656 129.886719 102.121094 131.917969 101.097656 C 132.519531 100.957031 132.257812 100.96875 133.070312 101.0625 C 133.570312 101.152344 133.320312 101.097656 134.207031 101.3125 C 136.496094 102.210938 136.152344 102.230469 137.082031 102.605469 C 137.980469 103.074219 137.285156 102.582031 138.597656 103.289062 C 139.636719 103.679688 139.253906 103.554688 140.269531 103.835938 C 141.5625 103.9375 140.136719 103.84375 142.566406 104.160156 C 142.570312 104.160156 142.546875 104.152344 143.382812 104.402344 C 144.097656 104.636719 144.789062 104.867188 144.085938 104.636719 C 144.679688 104.929688 144.480469 104.808594 144.976562 105.164062 C 145.421875 105.660156 145.433594 105.644531 145.472656 105.796875 C 145.574219 106.148438 146.195312 108.253906 146.234375 108.363281 C 146.574219 109.9375 146.332031 109.183594 146.847656 111.023438 C 147.140625 112.40625 147.445312 113.675781 147.539062 116.273438 C 147.71875 119.417969 147.671875 120.121094 147.652344 121.128906 C 147.929688 122.640625 147.847656 122.289062 148.027344 122.832031 C 148.976562 125.34375 148.195312 124.894531 148.238281 128.957031 C 147.84375 130.152344 148.03125 129.6875 147.398438 131.015625 C 146.792969 132.019531 147.074219 131.679688 146.199219 132.515625 C 144.4375 133.820312 144.4375 133.816406 143.417969 135.046875 C 142.941406 135.632812 143.054688 135.433594 142.890625 135.914062 C 142.644531 136.40625 142.601562 136.332031 142.636719 137.242188 C 142.804688 137.898438 142.695312 137.683594 143.089844 138.203125 C 143.546875 138.597656 143.40625 138.503906 143.714844 138.644531 C 144.054688 138.855469 143.953125 138.804688 144.167969 138.882812 C 144.828125 139.148438 144.632812 139.101562 145.046875 139.117188 C 145.171875 139.1875 145.066406 139.15625 145.59375 139.257812 C 146.480469 139.128906 146.15625 139.195312 147.003906 138.957031 C 148.089844 138.609375 147.683594 138.769531 148.625 138.296875 C 149.011719 137.992188 148.882812 138.117188 149.175781 137.742188 C 149.320312 137.558594 149.304688 137.578125 149.3125 137.574219 C 149.375 137.597656 149.335938 137.574219 149.480469 137.679688 C 150.042969 137.746094 149.738281 137.738281 150.878906 137.699219 C 151.632812 137.625 151.417969 137.675781 151.851562 137.484375 C 151.898438 137.488281 151.898438 137.40625 151.8125 138.011719 C 151.753906 138.730469 151.792969 138.480469 151.664062 139.125 C 151.585938 140.078125 151.503906 140.824219 151.785156 141.824219 C 151.90625 142.203125 151.8125 142.015625 152.210938 142.664062 C 152.785156 143.222656 152.679688 143.105469 152.777344 143.265625 Z M 153.109375 143.410156 " fill-opacity="1" fill-rule="nonzero"/></g></g></g></g><g clip-path="url(#88d0809a39)"><path fill="#f4f4f4" d="M 989.257812 1246.679688 L 989.257812 1246.671875 L 989.257812 1246.675781 C 989.390625 1244.257812 989.515625 1241.910156 989.371094 1240.230469 C 989.332031 1239.8125 989.28125 1239.445312 989.207031 1239.140625 C 988.875 1237.699219 988.210938 1237.664062 987.992188 1237.714844 C 987.976562 1237.71875 987.964844 1237.722656 987.953125 1237.726562 L 987.949219 1237.726562 C 987.570312 1237.84375 987.269531 1238.332031 986.816406 1239.21875 C 986.738281 1239.367188 986.601562 1239.480469 986.4375 1239.523438 C 985.816406 1239.691406 985.308594 1239.785156 984.9375 1241.097656 C 984.792969 1241.605469 984.679688 1242.273438 984.546875 1243.050781 C 984.394531 1243.972656 984.214844 1245.019531 983.941406 1246 C 983.769531 1246.597656 983.5625 1247.1875 983.289062 1247.71875 C 982.117188 1249.980469 979.925781 1250.84375 973.5625 1251.257812 C 967.125 1251.679688 956.125 1251.648438 942.832031 1250.023438 C 929.550781 1248.402344 913.972656 1245.1875 904.191406 1242.320312 C 899.496094 1240.945312 896.136719 1239.648438 893.109375 1238.480469 C 890.601562 1237.511719 888.335938 1236.636719 885.710938 1235.867188 C 884.890625 1235.628906 884.039062 1235.398438 883.136719 1235.179688 C 878.6875 1234.105469 872.96875 1233.289062 866.402344 1232.351562 C 862.140625 1231.746094 857.539062 1231.089844 852.722656 1230.28125 C 840.496094 1228.230469 826.890625 1225.191406 818.945312 1222.652344 C 810.957031 1220.097656 808.636719 1218.023438 806.625 1216.050781 C 804.644531 1214.109375 802.894531 1212.214844 802.308594 1208.003906 C 802.257812 1207.636719 802.214844 1207.25 802.179688 1206.855469 C 802.035156 1205.191406 802.015625 1203.273438 801.992188 1201.378906 C 801.972656 1199.449219 801.949219 1197.542969 801.804688 1195.878906 C 801.742188 1195.179688 801.660156 1194.53125 801.546875 1193.949219 C 800.855469 1190.355469 799.042969 1189.234375 797.277344 1189.09375 C 795.386719 1188.945312 793.371094 1189.890625 791.15625 1190.953125 L 791.160156 1190.949219 L 788.925781 1192.042969 L 789.117188 1191.109375 L 791.238281 1193.566406 C 791.328125 1193.671875 791.382812 1193.8125 791.382812 1193.953125 L 791.394531 1196.117188 C 791.394531 1196.363281 791.246094 1196.589844 791.011719 1196.679688 L 789.21875 1197.386719 L 789.453125 1196.4375 L 790.644531 1197.820312 C 790.742188 1197.9375 790.792969 1198.089844 790.789062 1198.242188 L 789.992188 1215.804688 C 789.980469 1216.105469 789.746094 1216.351562 789.445312 1216.378906 C 789.148438 1216.40625 788.875 1216.207031 788.804688 1215.914062 C 787.066406 1208.445312 785.347656 1201.097656 783.039062 1196.546875 C 780.769531 1192.070312 777.933594 1190.355469 775.46875 1189.574219 C 772.972656 1188.785156 770.816406 1188.9375 768.546875 1189.097656 C 768.4375 1189.105469 768.328125 1189.085938 768.230469 1189.035156 C 766.679688 1188.242188 765.453125 1187.65625 764.378906 1188.007812 C 763.320312 1188.347656 762.175781 1189.714844 762.125 1191.917969 C 762.121094 1192.195312 762.132812 1192.492188 762.160156 1192.800781 C 762.273438 1194.113281 762.65625 1195.609375 763.058594 1197.175781 C 763.3125 1198.148438 763.566406 1199.144531 763.753906 1200.105469 C 763.886719 1200.773438 763.984375 1201.425781 764.042969 1202.09375 C 764.234375 1204.296875 764 1206.617188 763.183594 1210.164062 C 762.9375 1211.246094 762.632812 1212.449219 762.3125 1213.726562 C 761.9375 1215.214844 761.535156 1216.808594 761.152344 1218.472656 C 760.457031 1221.5 759.835938 1224.734375 759.589844 1227.894531 C 759.410156 1230.132812 759.421875 1232.335938 759.613281 1234.542969 C 759.972656 1238.648438 760.972656 1242.777344 762.613281 1247.175781 C 765.203125 1254.117188 769.183594 1261.136719 772.949219 1261.832031 C 775.1875 1262.25 777.542969 1260.453125 780.027344 1258.492188 C 781.496094 1257.339844 783.015625 1256.128906 784.433594 1255.683594 C 786.871094 1254.921875 788.875 1256.402344 790.929688 1257.867188 C 792.207031 1258.78125 793.578125 1259.753906 795.226562 1260.484375 C 797.429688 1261.464844 800.164062 1262.03125 802.765625 1262.566406 C 804.949219 1263.019531 807.074219 1263.453125 808.570312 1264.117188 C 808.855469 1264.246094 809.121094 1264.382812 809.367188 1264.53125 C 810.957031 1265.503906 811.40625 1266.902344 811.535156 1268.363281 C 811.585938 1268.953125 811.585938 1269.566406 811.589844 1270.171875 C 811.589844 1270.824219 811.59375 1271.472656 811.648438 1272.125 C 811.671875 1272.382812 811.703125 1272.640625 811.746094 1272.898438 C 812.019531 1274.511719 812.773438 1276.15625 813.757812 1278.296875 C 814.585938 1280.097656 815.558594 1282.210938 816.460938 1284.847656 C 818.398438 1290.5 820.011719 1298.550781 821.453125 1305.742188 L 821.5 1305.976562 L 821.519531 1306.078125 L 821.539062 1306.175781 C 822.433594 1310.625 823.265625 1314.796875 823.617188 1318.824219 C 823.835938 1321.296875 823.871094 1323.722656 823.628906 1326.136719 C 823.367188 1328.773438 822.769531 1331.382812 822.109375 1334.273438 C 821.257812 1338.011719 820.285156 1342.269531 819.730469 1347.8125 C 819.671875 1348.402344 819.617188 1349.003906 819.570312 1349.621094 C 819.046875 1356.226562 819.128906 1364.601562 819.832031 1372.636719 C 820.296875 1377.945312 821.035156 1383.09375 822.039062 1387.480469 C 824.410156 1397.808594 828.285156 1403.960938 831.542969 1409.121094 C 831.753906 1409.460938 831.96875 1409.796875 832.175781 1410.128906 C 835.558594 1415.523438 838.03125 1419.96875 840.496094 1424.398438 C 840.507812 1424.421875 840.519531 1424.441406 840.527344 1424.464844 L 840.535156 1424.480469 C 842.746094 1429.871094 845.003906 1435.355469 845.539062 1441.457031 C 845.632812 1442.53125 845.671875 1443.625 845.652344 1444.738281 C 845.507812 1452.097656 842.589844 1460.828125 834.644531 1462.417969 C 826.917969 1463.960938 814.609375 1458.539062 802.628906 1453.292969 L 803.410156 1452.476562 C 808.921875 1463.65625 814.265625 1474.382812 824.921875 1476.28125 C 835.710938 1478.203125 852 1471.140625 857.15625 1461.367188 C 858.980469 1457.910156 859.425781 1454.082031 859.085938 1450.222656 C 858.523438 1443.773438 855.78125 1437.34375 853.765625 1432.617188 C 853.605469 1432.246094 853.449219 1431.882812 853.300781 1431.53125 C 850.148438 1424.085938 849.824219 1422.105469 849.511719 1420.109375 C 849.480469 1419.921875 849.539062 1419.734375 849.667969 1419.597656 C 849.796875 1419.464844 849.980469 1419.394531 850.167969 1419.414062 C 861.539062 1420.628906 872.761719 1421.824219 880.632812 1420.296875 C 884.523438 1419.542969 887.605469 1418.121094 890.738281 1416.675781 C 893.839844 1415.242188 896.992188 1413.78125 900.957031 1413.011719 C 901.023438 1413 901.089844 1412.988281 901.15625 1412.976562 C 909.199219 1411.476562 920.507812 1412.847656 929.269531 1416.328125 C 933.101562 1417.851562 936.445312 1419.777344 939.425781 1421.492188 C 941.882812 1422.910156 944.074219 1424.167969 946.125 1424.984375 C 947.289062 1425.445312 948.390625 1425.757812 949.449219 1425.871094 C 952.726562 1426.226562 955.789062 1424.726562 959.210938 1423.03125 C 961.179688 1422.058594 963.25 1421.03125 965.472656 1420.355469 C 968.714844 1419.371094 972.246094 1419.152344 975.300781 1418.960938 C 977.769531 1418.804688 979.882812 1418.667969 981.398438 1418.207031 C 981.515625 1418.171875 981.625 1418.136719 981.730469 1418.097656 C 984.101562 1417.246094 984.742188 1415.382812 985.324219 1413.632812 C 985.503906 1413.09375 985.6875 1412.539062 985.925781 1412.070312 C 986.980469 1409.996094 988.984375 1409.785156 990.589844 1409.589844 L 990.058594 1410.199219 L 990.058594 1410.195312 L 990.058594 1410.203125 C 989.980469 1407.378906 989.898438 1404.578125 989.691406 1402.226562 C 989.546875 1400.574219 989.34375 1399.179688 989.046875 1398.160156 C 988.429688 1396.042969 987.558594 1395.871094 987.160156 1395.988281 C 987.046875 1396.023438 986.925781 1396.082031 986.800781 1396.175781 C 985.964844 1396.800781 985.355469 1398.542969 984.664062 1400.628906 L 984.683594 1400.542969 L 984.683594 1400.554688 C 984.542969 1401.359375 984.390625 1402.179688 983.445312 1403.953125 C 982.496094 1405.734375 980.722656 1408.519531 976.648438 1410.699219 C 972.628906 1412.851562 966.347656 1414.417969 961.464844 1413.957031 C 956.535156 1413.496094 953.085938 1410.96875 949.773438 1408.554688 C 949.585938 1408.417969 949.492188 1408.1875 949.535156 1407.960938 C 949.578125 1407.734375 949.746094 1407.550781 949.96875 1407.488281 C 954.164062 1406.328125 958.289062 1405.1875 962.714844 1402.683594 C 967.167969 1400.164062 971.894531 1396.285156 974.160156 1393.074219 C 975.691406 1390.902344 976.109375 1389.023438 976.457031 1387.449219 C 976.613281 1386.742188 976.765625 1386.046875 977.015625 1385.441406 C 977.335938 1384.660156 977.800781 1384.050781 978.203125 1383.519531 C 978.597656 1383.003906 978.921875 1382.570312 979.125 1382.066406 C 979.25 1381.765625 979.332031 1381.4375 979.34375 1381.050781 L 979.347656 1381.039062 L 979.34375 1381.050781 C 979.351562 1380.890625 979.347656 1380.714844 979.332031 1380.527344 C 979.167969 1378.65625 977.941406 1375.910156 976.636719 1373.007812 L 977.730469 1373.015625 L 972.101562 1385.035156 C 972.085938 1385.0625 972.070312 1385.09375 972.054688 1385.121094 C 968.304688 1390.59375 964.367188 1396.402344 956.394531 1396.707031 C 948.566406 1397.003906 936.949219 1391.976562 928.777344 1386.09375 C 925.550781 1383.769531 922.847656 1381.304688 920.308594 1378.988281 C 917.996094 1376.878906 915.824219 1374.902344 913.484375 1373.214844 C 911.832031 1372.027344 910.101562 1370.988281 908.191406 1370.164062 C 900.554688 1366.859375 889.921875 1366.894531 879.101562 1366.9375 C 878.921875 1366.9375 878.753906 1366.859375 878.640625 1366.726562 C 878.523438 1366.59375 878.476562 1366.414062 878.503906 1366.242188 L 879.082031 1362.601562 L 879.078125 1362.644531 C 879.527344 1357.40625 879.988281 1352.066406 885.195312 1344.898438 C 887.046875 1342.347656 889.5 1339.570312 892.070312 1336.65625 C 894.976562 1333.363281 898.039062 1329.886719 900.636719 1326.3125 C 902.167969 1324.207031 903.527344 1322.078125 904.59375 1319.941406 C 909.070312 1310.96875 908.449219 1301.707031 907.800781 1292.261719 C 907.789062 1292.097656 907.84375 1291.9375 907.953125 1291.816406 C 908.0625 1291.695312 908.214844 1291.625 908.378906 1291.617188 C 923.039062 1291.03125 937.746094 1290.445312 950.996094 1291.488281 C 958.265625 1292.058594 965.09375 1293.121094 970.710938 1293.996094 C 974.667969 1294.609375 978.007812 1295.128906 980.496094 1295.324219 C 980.921875 1295.359375 981.316406 1295.382812 981.6875 1295.394531 C 986.054688 1295.554688 986.632812 1294.277344 987.214844 1293.25 C 987.382812 1292.949219 987.582031 1292.59375 987.847656 1292.28125 C 989.140625 1290.78125 991.875 1290.460938 994.195312 1290.15625 L 993.671875 1290.738281 C 993.734375 1287.980469 993.792969 1285.210938 993.871094 1282.867188 L 993.871094 1282.859375 L 993.871094 1282.867188 C 993.949219 1280.519531 994.046875 1278.597656 994.140625 1276.679688 L 994.140625 1276.675781 L 994.609375 1277.292969 C 991.828125 1276.671875 989.589844 1276.230469 988.40625 1277.273438 C 987.160156 1278.371094 986.839844 1281.222656 986.519531 1284.539062 C 986.488281 1284.863281 986.199219 1285.105469 985.871094 1285.078125 C 973.78125 1284.113281 961.664062 1283.140625 948.945312 1280.898438 C 936.234375 1278.660156 922.929688 1275.144531 909.660156 1271.640625 C 909.5 1271.597656 909.363281 1271.492188 909.285156 1271.347656 C 908.320312 1269.582031 907.265625 1267.675781 906.992188 1266.183594 C 906.964844 1266.03125 906.945312 1265.882812 906.933594 1265.738281 C 906.8125 1264.378906 907.339844 1263.386719 907.773438 1262.546875 C 907.871094 1262.363281 908.050781 1262.242188 908.257812 1262.222656 C 916.695312 1261.472656 925.144531 1260.71875 932.890625 1260.257812 C 940.640625 1259.792969 947.683594 1259.617188 955.492188 1259.84375 C 957 1259.886719 958.53125 1259.945312 960.0625 1260.003906 C 961.601562 1260.0625 963.140625 1260.121094 964.652344 1260.167969 C 969.46875 1260.304688 973.988281 1260.292969 977.429688 1259.667969 C 982.972656 1258.660156 985.765625 1256.0625 988.65625 1253.367188 L 988.46875 1253.738281 L 989.257812 1246.644531 L 989.257812 1246.679688 M 990.457031 1246.742188 C 990.457031 1246.753906 990.457031 1246.765625 990.457031 1246.777344 L 989.664062 1253.875 C 989.648438 1254.015625 989.582031 1254.148438 989.476562 1254.246094 C 986.5625 1256.964844 983.554688 1259.78125 977.644531 1260.851562 C 974.0625 1261.503906 969.425781 1261.511719 964.617188 1261.371094 C 963.097656 1261.324219 961.554688 1261.265625 960.019531 1261.207031 C 958.484375 1261.148438 956.957031 1261.089844 955.457031 1261.046875 C 947.691406 1260.820312 940.683594 1260.996094 932.964844 1261.457031 C 925.238281 1261.921875 916.808594 1262.671875 908.363281 1263.421875 L 908.84375 1263.101562 C 908.402344 1263.957031 908.046875 1264.660156 908.132812 1265.632812 C 908.140625 1265.738281 908.15625 1265.851562 908.179688 1265.96875 C 908.40625 1267.222656 909.332031 1268.925781 910.34375 1270.769531 L 909.96875 1270.476562 C 923.25 1273.984375 936.5 1277.484375 949.15625 1279.714844 C 961.808594 1281.945312 973.871094 1282.910156 985.96875 1283.878906 L 985.320312 1284.421875 C 985.617188 1281.375 985.914062 1277.863281 987.609375 1276.371094 C 989.367188 1274.824219 992.394531 1275.5625 994.875 1276.117188 C 995.160156 1276.183594 995.359375 1276.441406 995.34375 1276.734375 L 995.34375 1276.738281 C 995.25 1278.660156 995.152344 1280.570312 995.074219 1282.90625 L 995.074219 1282.914062 L 995.074219 1282.90625 C 995 1285.238281 994.9375 1288.007812 994.875 1290.765625 C 994.871094 1291.0625 994.648438 1291.3125 994.351562 1291.347656 C 991.808594 1291.683594 989.679688 1292 988.761719 1293.066406 C 988.585938 1293.273438 988.441406 1293.519531 988.261719 1293.839844 C 987.460938 1295.257812 986.464844 1296.773438 981.644531 1296.597656 C 981.253906 1296.585938 980.839844 1296.558594 980.402344 1296.527344 C 977.855469 1296.324219 974.464844 1295.796875 970.523438 1295.183594 C 964.902344 1294.308594 958.121094 1293.253906 950.902344 1292.6875 C 937.734375 1291.652344 923.101562 1292.234375 908.425781 1292.820312 L 909 1292.175781 C 909.648438 1301.578125 910.316406 1311.167969 905.667969 1320.480469 C 904.566406 1322.695312 903.167969 1324.878906 901.613281 1327.019531 C 898.976562 1330.648438 895.871094 1334.167969 892.972656 1337.453125 C 890.394531 1340.378906 887.984375 1343.113281 886.171875 1345.605469 C 881.160156 1352.503906 880.722656 1357.574219 880.277344 1362.746094 C 880.277344 1362.761719 880.273438 1362.777344 880.273438 1362.789062 L 879.691406 1366.429688 L 879.09375 1365.734375 C 889.828125 1365.6875 900.75 1365.632812 908.671875 1369.058594 C 910.675781 1369.925781 912.480469 1371.011719 914.1875 1372.238281 C 916.59375 1373.972656 918.816406 1376 921.117188 1378.097656 C 923.664062 1380.421875 926.320312 1382.839844 929.480469 1385.113281 C 937.570312 1390.941406 948.914062 1395.785156 956.347656 1395.503906 C 963.632812 1395.226562 967.25 1390 971.058594 1384.4375 L 971.011719 1384.523438 L 976.640625 1372.503906 C 976.738281 1372.292969 976.953125 1372.15625 977.1875 1372.15625 C 977.425781 1372.160156 977.636719 1372.296875 977.734375 1372.511719 C 979 1375.324219 980.34375 1378.296875 980.53125 1380.421875 C 980.550781 1380.652344 980.558594 1380.878906 980.550781 1381.097656 L 980.546875 1381.109375 L 980.550781 1381.097656 C 980.527344 1381.632812 980.414062 1382.101562 980.242188 1382.523438 C 979.964844 1383.195312 979.539062 1383.75 979.164062 1384.246094 C 978.75 1384.789062 978.382812 1385.28125 978.128906 1385.894531 C 977.929688 1386.390625 977.796875 1386.972656 977.632812 1387.710938 C 977.28125 1389.3125 976.820312 1391.390625 975.144531 1393.769531 C 972.738281 1397.175781 967.855469 1401.160156 963.308594 1403.730469 C 958.738281 1406.316406 954.476562 1407.492188 950.289062 1408.648438 L 950.480469 1407.582031 C 953.816406 1410.011719 957.019531 1412.332031 961.578125 1412.757812 C 966.1875 1413.191406 972.234375 1411.695312 976.082031 1409.636719 C 979.875 1407.609375 981.5 1405.039062 982.382812 1403.386719 C 983.257812 1401.742188 983.375 1401.046875 983.496094 1400.347656 L 983.496094 1400.351562 L 983.496094 1400.339844 C 983.503906 1400.308594 983.511719 1400.277344 983.519531 1400.25 C 984.148438 1398.359375 984.863281 1396.125 986.078125 1395.210938 C 986.304688 1395.042969 986.554688 1394.910156 986.824219 1394.832031 C 988.285156 1394.40625 989.554688 1395.597656 990.203125 1397.824219 C 990.535156 1398.960938 990.746094 1400.449219 990.894531 1402.121094 C 991.101562 1404.515625 991.183594 1407.355469 991.261719 1410.167969 L 991.261719 1410.175781 C 991.273438 1410.480469 991.042969 1410.746094 990.734375 1410.785156 C 989.03125 1410.992188 987.722656 1411.1875 987 1412.617188 C 986.808594 1412.988281 986.652344 1413.453125 986.46875 1414.011719 C 985.890625 1415.746094 985.105469 1418.164062 982.140625 1419.230469 C 982.011719 1419.277344 981.882812 1419.320312 981.746094 1419.359375 C 980.066406 1419.871094 977.789062 1420.011719 975.375 1420.164062 C 972.296875 1420.355469 968.910156 1420.574219 965.820312 1421.507812 C 963.710938 1422.148438 961.726562 1423.128906 959.746094 1424.109375 C 956.398438 1425.769531 953.007812 1427.464844 949.320312 1427.066406 C 948.121094 1426.9375 946.910156 1426.589844 945.679688 1426.101562 C 943.535156 1425.25 941.261719 1423.941406 938.824219 1422.535156 C 935.835938 1420.816406 932.566406 1418.933594 928.824219 1417.449219 C 920.238281 1414.039062 909.160156 1412.707031 901.378906 1414.160156 C 901.316406 1414.171875 901.246094 1414.183594 901.183594 1414.195312 C 897.382812 1414.933594 894.351562 1416.332031 891.242188 1417.769531 C 888.117188 1419.210938 884.914062 1420.695312 880.863281 1421.480469 C 872.773438 1423.046875 861.335938 1421.820312 850.039062 1420.613281 L 850.699219 1419.921875 C 850.996094 1421.789062 851.28125 1423.675781 854.410156 1431.0625 C 854.558594 1431.40625 854.714844 1431.777344 854.871094 1432.144531 C 856.878906 1436.84375 859.703125 1443.449219 860.285156 1450.117188 C 860.640625 1454.132812 860.183594 1458.210938 858.222656 1461.929688 C 852.792969 1472.214844 835.957031 1479.46875 824.710938 1477.46875 C 813.335938 1475.441406 807.75 1463.996094 802.332031 1453.007812 C 802.21875 1452.78125 802.261719 1452.507812 802.433594 1452.324219 C 802.609375 1452.144531 802.878906 1452.089844 803.113281 1452.191406 C 815.296875 1457.527344 827.152344 1462.6875 834.40625 1461.238281 C 841.433594 1459.832031 844.304688 1451.996094 844.445312 1444.714844 C 844.46875 1443.644531 844.429688 1442.59375 844.335938 1441.5625 C 843.820312 1435.671875 841.644531 1430.351562 839.421875 1424.9375 L 839.414062 1424.921875 L 839.445312 1424.984375 C 836.980469 1420.554688 834.523438 1416.136719 831.15625 1410.765625 C 830.949219 1410.4375 830.738281 1410.101562 830.523438 1409.765625 C 827.25 1404.574219 823.28125 1398.28125 820.867188 1387.75 C 819.84375 1383.292969 819.101562 1378.085938 818.632812 1372.742188 C 817.925781 1364.648438 817.839844 1356.207031 818.367188 1349.527344 C 818.417969 1348.898438 818.472656 1348.289062 818.53125 1347.691406 C 819.097656 1342.066406 820.082031 1337.75 820.9375 1334.003906 C 821.597656 1331.097656 822.175781 1328.566406 822.429688 1326.015625 C 822.664062 1323.695312 822.628906 1321.347656 822.417969 1318.929688 C 822.074219 1314.980469 821.253906 1310.878906 820.359375 1306.414062 L 820.339844 1306.3125 L 820.273438 1305.980469 C 818.824219 1298.757812 817.226562 1290.796875 815.324219 1285.238281 C 814.441406 1282.664062 813.492188 1280.601562 812.664062 1278.800781 C 811.699219 1276.703125 810.863281 1274.902344 810.558594 1273.101562 C 810.511719 1272.808594 810.476562 1272.515625 810.449219 1272.226562 C 810.386719 1271.519531 810.386719 1270.820312 810.386719 1270.175781 C 810.382812 1269.558594 810.382812 1268.996094 810.335938 1268.46875 C 810.226562 1267.210938 809.875 1266.253906 808.738281 1265.558594 C 808.546875 1265.441406 808.328125 1265.328125 808.082031 1265.21875 C 806.734375 1264.621094 804.757812 1264.207031 802.523438 1263.746094 C 799.953125 1263.21875 797.082031 1262.628906 794.738281 1261.585938 C 792.960938 1260.796875 791.5 1259.753906 790.230469 1258.851562 C 788.027344 1257.277344 786.550781 1256.28125 784.796875 1256.832031 C 783.636719 1257.195312 782.3125 1258.230469 780.773438 1259.4375 C 778.460938 1261.257812 775.621094 1263.554688 772.730469 1263.019531 C 768.164062 1262.171875 763.992188 1254.316406 761.484375 1247.597656 C 759.8125 1243.117188 758.785156 1238.878906 758.414062 1234.648438 C 758.214844 1232.375 758.207031 1230.101562 758.386719 1227.800781 C 758.644531 1224.554688 759.277344 1221.253906 759.976562 1218.203125 C 760.363281 1216.523438 760.769531 1214.917969 761.144531 1213.433594 C 761.46875 1212.148438 761.765625 1210.960938 762.011719 1209.894531 C 762.8125 1206.40625 763.019531 1204.226562 762.84375 1202.199219 C 762.789062 1201.578125 762.699219 1200.96875 762.574219 1200.335938 C 762.394531 1199.417969 762.144531 1198.457031 761.894531 1197.476562 C 761.496094 1195.9375 761.085938 1194.339844 760.960938 1192.90625 C 760.929688 1192.5625 760.914062 1192.222656 760.921875 1191.890625 C 760.976562 1189.316406 762.335938 1187.402344 764.003906 1186.859375 C 765.65625 1186.324219 767.382812 1187.246094 768.777344 1187.960938 L 768.460938 1187.898438 C 770.722656 1187.734375 773.09375 1187.558594 775.832031 1188.425781 C 778.59375 1189.300781 781.691406 1191.226562 784.113281 1196.003906 C 786.503906 1200.710938 788.253906 1208.238281 789.976562 1215.640625 L 788.789062 1215.75 L 789.585938 1198.1875 L 789.730469 1198.605469 L 788.539062 1197.21875 C 788.414062 1197.070312 788.367188 1196.871094 788.414062 1196.683594 C 788.460938 1196.492188 788.59375 1196.339844 788.777344 1196.269531 L 790.570312 1195.558594 L 790.191406 1196.125 L 790.179688 1193.960938 L 790.324219 1194.351562 L 788.207031 1191.894531 C 788.082031 1191.753906 788.035156 1191.566406 788.070312 1191.382812 C 788.109375 1191.199219 788.230469 1191.042969 788.398438 1190.960938 L 790.632812 1189.867188 L 790.636719 1189.863281 C 792.765625 1188.847656 795.09375 1187.714844 797.371094 1187.894531 C 799.773438 1188.082031 801.953125 1189.695312 802.730469 1193.722656 C 802.851562 1194.355469 802.941406 1195.046875 803.003906 1195.773438 C 803.15625 1197.492188 803.175781 1199.449219 803.199219 1201.363281 C 803.21875 1203.273438 803.238281 1205.140625 803.378906 1206.75 C 803.414062 1207.128906 803.453125 1207.492188 803.5 1207.839844 C 804.03125 1211.664062 805.566406 1213.328125 807.46875 1215.191406 C 809.335938 1217.023438 811.492188 1219.003906 819.3125 1221.503906 C 827.179688 1224.019531 840.722656 1227.046875 852.921875 1229.09375 C 857.722656 1229.898438 862.3125 1230.554688 866.570312 1231.160156 C 873.117188 1232.09375 878.902344 1232.917969 883.417969 1234.011719 C 884.34375 1234.234375 885.214844 1234.46875 886.046875 1234.710938 C 888.730469 1235.496094 891.042969 1236.390625 893.542969 1237.355469 C 896.566406 1238.523438 899.886719 1239.804688 904.53125 1241.164062 C 914.238281 1244.011719 929.753906 1247.210938 942.980469 1248.828125 C 956.199219 1250.445312 967.125 1250.476562 973.484375 1250.058594 C 979.917969 1249.636719 981.394531 1248.757812 982.21875 1247.164062 C 982.441406 1246.730469 982.625 1246.226562 982.78125 1245.675781 C 983.035156 1244.765625 983.203125 1243.78125 983.359375 1242.851562 C 983.488281 1242.09375 983.613281 1241.351562 983.777344 1240.773438 C 984.304688 1238.902344 985.269531 1238.59375 986.125 1238.363281 L 985.746094 1238.667969 C 986.105469 1237.96875 986.621094 1236.875 987.597656 1236.574219 C 987.636719 1236.5625 987.675781 1236.550781 987.71875 1236.539062 C 988.839844 1236.28125 989.960938 1237.0625 990.382812 1238.867188 C 990.46875 1239.246094 990.527344 1239.671875 990.570312 1240.125 C 990.726562 1241.910156 990.589844 1244.359375 990.460938 1246.742188 L 990.457031 1246.75 Z M 990.457031 1246.742188 " fill-opacity="1" fill-rule="nonzero"/></g><g clip-path="url(#dacc874b7c)"><path fill="#f4f4f4" d="M 759.222656 1231.070312 C 759.222656 1232.238281 759.273438 1233.402344 759.375 1234.566406 C 759.738281 1238.695312 760.742188 1242.84375 762.390625 1247.261719 C 764.964844 1254.15625 768.980469 1261.339844 772.90625 1262.070312 C 775.273438 1262.507812 777.726562 1260.609375 780.175781 1258.679688 L 780.179688 1258.679688 L 780.25 1258.621094 L 780.320312 1258.566406 C 781.753906 1257.4375 783.183594 1256.328125 784.507812 1255.914062 C 786.757812 1255.207031 788.625 1256.519531 790.664062 1257.972656 L 790.792969 1258.0625 C 792.066406 1258.972656 793.453125 1259.960938 795.128906 1260.703125 C 797.363281 1261.695312 800.125 1262.265625 802.71875 1262.800781 C 802.746094 1262.808594 802.75 1262.808594 802.75 1262.808594 C 802.757812 1262.808594 802.765625 1262.8125 802.777344 1262.8125 L 802.851562 1262.828125 C 804.996094 1263.273438 807.039062 1263.699219 808.476562 1264.335938 C 808.75 1264.460938 809.007812 1264.589844 809.242188 1264.734375 C 810.742188 1265.652344 811.171875 1266.964844 811.296875 1268.382812 C 811.347656 1268.957031 811.347656 1269.554688 811.351562 1270.15625 L 811.351562 1270.171875 C 811.351562 1270.824219 811.355469 1271.480469 811.410156 1272.144531 C 811.433594 1272.410156 811.46875 1272.675781 811.511719 1272.941406 C 811.789062 1274.589844 812.558594 1276.265625 813.539062 1278.398438 L 813.542969 1278.402344 L 813.546875 1278.410156 C 814.375 1280.207031 815.339844 1282.308594 816.238281 1284.925781 C 818.164062 1290.550781 819.769531 1298.566406 821.210938 1305.757812 L 821.21875 1305.789062 L 821.265625 1306.023438 L 821.285156 1306.125 L 821.304688 1306.210938 L 821.304688 1306.214844 C 821.304688 1306.21875 821.304688 1306.222656 821.304688 1306.222656 C 822.199219 1310.675781 823.027344 1314.835938 823.378906 1318.847656 C 823.496094 1320.140625 823.558594 1321.421875 823.558594 1322.691406 C 823.558594 1323.839844 823.507812 1324.976562 823.390625 1326.113281 C 823.128906 1328.726562 822.539062 1331.3125 821.882812 1334.195312 L 821.878906 1334.21875 C 821.023438 1337.957031 820.054688 1342.21875 819.496094 1347.769531 C 819.496094 1347.777344 819.492188 1347.78125 819.492188 1347.789062 C 819.433594 1348.378906 819.378906 1348.980469 819.332031 1349.601562 C 819.105469 1352.445312 818.992188 1355.609375 818.992188 1358.933594 C 818.992188 1363.359375 819.191406 1368.0625 819.59375 1372.65625 C 820.0625 1377.972656 820.796875 1383.132812 821.808594 1387.53125 C 824.183594 1397.902344 828.082031 1404.082031 831.339844 1409.25 L 831.410156 1409.359375 C 831.597656 1409.660156 831.789062 1409.960938 831.972656 1410.253906 C 835.351562 1415.644531 837.824219 1420.082031 840.285156 1424.511719 L 840.289062 1424.515625 C 840.292969 1424.527344 840.296875 1424.535156 840.304688 1424.546875 L 840.304688 1424.550781 C 840.304688 1424.550781 840.304688 1424.554688 840.304688 1424.554688 L 840.324219 1424.59375 C 842.535156 1429.980469 844.769531 1435.429688 845.300781 1441.476562 C 845.375 1442.359375 845.417969 1443.25 845.417969 1444.15625 C 845.417969 1444.34375 845.414062 1444.542969 845.414062 1444.734375 C 845.269531 1452.078125 842.363281 1460.632812 834.597656 1462.183594 C 827.289062 1463.644531 815.769531 1458.78125 804.238281 1453.738281 C 804.1875 1453.714844 804.128906 1453.710938 804.074219 1453.726562 C 804.007812 1453.746094 803.949219 1453.796875 803.921875 1453.859375 C 803.910156 1453.890625 803.902344 1453.921875 803.902344 1453.957031 C 803.902344 1453.992188 803.910156 1454.027344 803.925781 1454.0625 C 809.179688 1464.664062 814.558594 1474.675781 824.882812 1476.515625 C 835.757812 1478.453125 852.15625 1471.355469 857.367188 1461.480469 C 858.847656 1458.675781 859.429688 1455.632812 859.429688 1452.539062 C 859.429688 1451.761719 859.394531 1450.980469 859.324219 1450.199219 C 858.757812 1443.710938 856 1437.246094 853.984375 1432.523438 C 853.820312 1432.140625 853.675781 1431.800781 853.523438 1431.4375 C 850.371094 1424.003906 850.054688 1422.042969 849.746094 1420.070312 C 849.742188 1420.050781 849.742188 1420.03125 849.742188 1420.015625 C 849.742188 1419.921875 849.777344 1419.832031 849.839844 1419.765625 C 849.917969 1419.683594 850.03125 1419.640625 850.144531 1419.652344 C 861.496094 1420.867188 872.765625 1422.066406 880.679688 1420.53125 C 884.601562 1419.773438 887.707031 1418.339844 890.839844 1416.890625 L 890.859375 1416.882812 L 890.886719 1416.867188 C 893.976562 1415.441406 897.09375 1414.003906 901 1413.246094 L 901.003906 1413.246094 C 901.070312 1413.234375 901.136719 1413.222656 901.199219 1413.210938 C 909.191406 1411.71875 920.453125 1413.085938 929.179688 1416.550781 C 932.992188 1418.0625 936.316406 1419.976562 939.292969 1421.691406 L 939.304688 1421.699219 C 941.761719 1423.113281 943.96875 1424.382812 946.039062 1425.203125 C 947.214844 1425.671875 948.335938 1425.992188 949.421875 1426.109375 C 952.78125 1426.472656 955.910156 1424.933594 959.316406 1423.246094 L 959.339844 1423.234375 L 959.375 1423.21875 C 961.328125 1422.25 963.363281 1421.246094 965.542969 1420.585938 C 968.742188 1419.613281 972.230469 1419.394531 975.28125 1419.199219 L 975.316406 1419.199219 C 977.773438 1419.042969 979.917969 1418.90625 981.46875 1418.4375 C 981.585938 1418.402344 981.703125 1418.363281 981.8125 1418.324219 C 984.300781 1417.429688 984.96875 1415.453125 985.550781 1413.707031 C 985.554688 1413.703125 985.554688 1413.695312 985.558594 1413.6875 L 985.558594 1413.691406 L 985.558594 1413.679688 C 985.738281 1413.148438 985.914062 1412.621094 986.136719 1412.179688 C 987.015625 1410.449219 988.589844 1410.089844 990.074219 1409.894531 C 990.195312 1409.878906 990.285156 1409.777344 990.285156 1409.65625 C 990.285156 1409.652344 990.285156 1409.648438 990.28125 1409.640625 C 990.28125 1409.640625 990.28125 1409.636719 990.28125 1409.632812 C 990.207031 1407.003906 990.125 1404.410156 989.929688 1402.203125 C 989.785156 1400.550781 989.582031 1399.136719 989.277344 1398.09375 C 988.652344 1395.949219 987.703125 1395.585938 987.097656 1395.757812 L 987.09375 1395.761719 L 987.089844 1395.761719 C 986.949219 1395.804688 986.804688 1395.875 986.664062 1395.980469 L 986.660156 1395.984375 C 985.753906 1396.660156 985.128906 1398.46875 984.457031 1400.488281 C 984.449219 1400.507812 984.445312 1400.527344 984.441406 1400.546875 C 984.308594 1401.320312 984.152344 1402.117188 983.234375 1403.839844 C 982.300781 1405.59375 980.554688 1408.339844 976.539062 1410.488281 C 972.550781 1412.621094 966.3125 1414.175781 961.488281 1413.722656 C 956.648438 1413.265625 953.257812 1410.800781 949.957031 1408.390625 L 949.914062 1408.363281 C 949.816406 1408.292969 949.765625 1408.183594 949.765625 1408.066406 C 949.765625 1408.046875 949.765625 1408.023438 949.769531 1408.003906 C 949.792969 1407.867188 949.894531 1407.753906 950.03125 1407.71875 L 950.042969 1407.714844 C 954.234375 1406.558594 958.382812 1405.410156 962.835938 1402.890625 C 967.304688 1400.363281 972.0625 1396.460938 974.355469 1393.210938 C 975.917969 1391 976.34375 1389.082031 976.691406 1387.5 L 976.699219 1387.46875 C 976.699219 1387.460938 976.707031 1387.433594 976.707031 1387.433594 C 976.859375 1386.746094 977.003906 1386.09375 977.238281 1385.53125 C 977.539062 1384.792969 977.980469 1384.210938 978.378906 1383.683594 C 978.378906 1383.683594 978.394531 1383.664062 978.394531 1383.664062 C 978.785156 1383.152344 979.128906 1382.695312 979.347656 1382.160156 C 979.351562 1382.152344 979.351562 1382.144531 979.355469 1382.136719 C 979.484375 1381.820312 979.566406 1381.472656 979.582031 1381.070312 C 979.585938 1381.0625 979.585938 1381.054688 979.585938 1381.046875 C 979.585938 1381.042969 979.585938 1381.039062 979.585938 1381.039062 L 979.585938 1381.035156 C 979.585938 1380.996094 979.585938 1380.953125 979.585938 1380.914062 C 979.585938 1380.785156 979.582031 1380.648438 979.566406 1380.503906 C 979.421875 1378.847656 978.472656 1376.546875 977.390625 1374.109375 L 977.375 1374.082031 L 977.375 1374.078125 C 977.328125 1374.003906 977.246094 1373.960938 977.15625 1373.96875 C 977.070312 1373.972656 976.992188 1374.023438 976.957031 1374.105469 L 971.886719 1384.933594 L 971.882812 1384.933594 C 971.875 1384.953125 971.867188 1384.96875 971.855469 1384.984375 L 971.738281 1385.15625 C 968.015625 1390.59375 964.140625 1396.171875 956.382812 1396.46875 C 948.636719 1396.761719 937.074219 1391.773438 928.914062 1385.898438 C 925.707031 1383.585938 923.019531 1381.136719 920.476562 1378.820312 L 920.429688 1378.773438 C 918.132812 1376.683594 915.964844 1374.707031 913.621094 1373.023438 C 911.960938 1371.824219 910.214844 1370.777344 908.289062 1369.945312 C 900.59375 1366.617188 889.902344 1366.652344 879.097656 1366.699219 C 878.992188 1366.699219 878.890625 1366.652344 878.820312 1366.570312 C 878.765625 1366.503906 878.734375 1366.421875 878.734375 1366.335938 C 878.734375 1366.316406 878.734375 1366.296875 878.738281 1366.277344 L 879.316406 1362.660156 C 879.320312 1362.644531 879.320312 1362.632812 879.320312 1362.621094 C 879.769531 1357.410156 880.234375 1352.132812 885.390625 1345.039062 C 887.230469 1342.503906 889.667969 1339.742188 892.234375 1336.828125 L 892.25 1336.8125 C 895.152344 1333.523438 898.226562 1330.039062 900.832031 1326.453125 C 902.363281 1324.34375 903.734375 1322.199219 904.804688 1320.050781 C 907.730469 1314.191406 908.492188 1308.21875 908.492188 1302.175781 C 908.492188 1298.886719 908.265625 1295.570312 908.039062 1292.242188 C 908.039062 1292.234375 908.039062 1292.226562 908.039062 1292.21875 C 908.039062 1292.128906 908.070312 1292.042969 908.128906 1291.976562 C 908.195312 1291.902344 908.289062 1291.859375 908.386719 1291.855469 L 908.40625 1291.855469 L 908.5625 1291.847656 C 923.167969 1291.265625 937.796875 1290.6875 950.976562 1291.726562 C 958.234375 1292.296875 965.050781 1293.355469 970.664062 1294.230469 L 970.671875 1294.230469 C 974.628906 1294.847656 977.976562 1295.367188 980.480469 1295.5625 L 980.484375 1295.5625 C 980.90625 1295.597656 981.308594 1295.621094 981.679688 1295.632812 C 985.996094 1295.789062 986.753906 1294.554688 987.371094 1293.457031 C 987.402344 1293.402344 987.390625 1293.421875 987.421875 1293.367188 C 987.425781 1293.355469 987.4375 1293.339844 987.4375 1293.339844 L 987.449219 1293.320312 C 987.613281 1293.027344 987.792969 1292.714844 988.03125 1292.4375 C 989.15625 1291.128906 991.484375 1290.753906 993.714844 1290.460938 C 993.785156 1290.449219 993.847656 1290.410156 993.886719 1290.347656 C 993.910156 1290.308594 993.921875 1290.265625 993.921875 1290.222656 C 993.921875 1290.21875 993.921875 1290.214844 993.921875 1290.210938 L 993.921875 1290.207031 C 993.980469 1287.632812 994.039062 1285.070312 994.109375 1282.882812 L 994.109375 1282.886719 C 994.113281 1282.875 994.113281 1282.867188 994.113281 1282.859375 C 994.113281 1282.855469 994.113281 1282.855469 994.113281 1282.851562 L 994.113281 1282.847656 C 994.183594 1280.71875 994.269531 1278.945312 994.355469 1277.195312 C 994.355469 1277.191406 994.355469 1277.1875 994.355469 1277.183594 C 994.355469 1277.121094 994.332031 1277.0625 994.289062 1277.019531 C 994.257812 1276.984375 994.214844 1276.960938 994.167969 1276.949219 C 991.664062 1276.402344 989.472656 1276.015625 988.25 1277.09375 C 986.914062 1278.269531 986.597656 1281.253906 986.28125 1284.515625 C 986.261719 1284.710938 986.085938 1284.855469 985.890625 1284.839844 L 985.867188 1284.839844 C 973.785156 1283.871094 961.683594 1282.902344 948.988281 1280.664062 C 936.289062 1278.425781 923.003906 1274.917969 909.738281 1271.414062 L 909.722656 1271.410156 C 909.625 1271.386719 909.542969 1271.320312 909.496094 1271.234375 L 909.453125 1271.152344 L 909.40625 1271.074219 C 908.460938 1269.347656 907.492188 1267.554688 907.230469 1266.160156 C 907.230469 1266.148438 907.230469 1266.140625 907.226562 1266.128906 C 907.203125 1265.988281 907.183594 1265.851562 907.171875 1265.714844 C 907.160156 1265.589844 907.15625 1265.46875 907.15625 1265.347656 C 907.15625 1264.269531 907.578125 1263.445312 907.96875 1262.691406 L 907.988281 1262.65625 C 908.042969 1262.546875 908.152344 1262.472656 908.277344 1262.460938 L 908.28125 1262.460938 C 916.71875 1261.710938 925.167969 1260.957031 932.90625 1260.496094 C 940.648438 1260.03125 947.6875 1259.855469 955.488281 1260.082031 C 956.992188 1260.125 958.519531 1260.183594 960.050781 1260.242188 L 960.054688 1260.242188 C 961.597656 1260.300781 963.128906 1260.359375 964.648438 1260.40625 C 969.460938 1260.546875 974 1260.535156 977.472656 1259.902344 C 982.984375 1258.902344 985.816406 1256.339844 988.65625 1253.691406 C 988.703125 1253.648438 988.730469 1253.585938 988.734375 1253.523438 L 989.496094 1246.683594 C 989.496094 1246.675781 989.496094 1246.667969 989.496094 1246.660156 C 989.496094 1246.65625 989.496094 1246.65625 989.496094 1246.65625 L 989.496094 1246.652344 C 989.585938 1245.015625 989.671875 1243.40625 989.671875 1242.011719 C 989.671875 1241.359375 989.65625 1240.753906 989.605469 1240.210938 C 989.570312 1239.785156 989.515625 1239.40625 989.441406 1239.085938 C 989.085938 1237.5625 988.328125 1237.390625 987.9375 1237.480469 L 987.933594 1237.484375 C 987.914062 1237.488281 987.898438 1237.492188 987.882812 1237.496094 L 987.878906 1237.496094 L 987.851562 1237.507812 L 987.851562 1237.503906 C 987.367188 1237.675781 987.03125 1238.28125 986.605469 1239.109375 C 986.558594 1239.199219 986.476562 1239.265625 986.378906 1239.292969 L 986.375 1239.292969 C 986.367188 1239.296875 986.320312 1239.308594 986.3125 1239.3125 C 986.304688 1239.3125 986.253906 1239.328125 986.246094 1239.328125 C 985.613281 1239.5 985.078125 1239.722656 984.707031 1241.035156 C 984.5625 1241.550781 984.445312 1242.222656 984.316406 1242.988281 L 984.316406 1242.992188 C 984.316406 1242.996094 984.316406 1243 984.3125 1243.007812 C 984.3125 1243.007812 984.3125 1243.019531 984.308594 1243.027344 C 984.308594 1243.042969 984.304688 1243.050781 984.304688 1243.054688 C 984.304688 1243.054688 984.304688 1243.058594 984.300781 1243.082031 C 984.148438 1243.980469 983.976562 1244.976562 983.71875 1245.910156 L 983.71875 1245.914062 C 983.714844 1245.921875 983.710938 1245.929688 983.710938 1245.9375 C 983.542969 1246.523438 983.339844 1247.097656 983.074219 1247.609375 C 981.976562 1249.738281 979.925781 1250.601562 973.546875 1251.019531 C 967.125 1251.441406 956.140625 1251.410156 942.863281 1249.785156 C 929.589844 1248.164062 914.023438 1244.953125 904.257812 1242.089844 C 899.574219 1240.71875 896.222656 1239.425781 893.199219 1238.257812 L 893.195312 1238.257812 C 890.691406 1237.289062 888.414062 1236.410156 885.777344 1235.640625 C 884.957031 1235.398438 884.101562 1235.167969 883.191406 1234.949219 C 878.730469 1233.871094 872.996094 1233.050781 866.433594 1232.117188 C 862.175781 1231.507812 857.574219 1230.855469 852.761719 1230.046875 C 840.539062 1227.992188 826.949219 1224.960938 819.019531 1222.425781 C 811.0625 1219.882812 808.773438 1217.828125 806.792969 1215.882812 C 804.828125 1213.953125 803.121094 1212.105469 802.546875 1207.972656 C 802.496094 1207.605469 802.453125 1207.230469 802.417969 1206.832031 C 802.273438 1205.183594 802.253906 1203.28125 802.230469 1201.390625 L 802.230469 1201.375 C 802.210938 1199.449219 802.1875 1197.53125 802.042969 1195.859375 C 801.980469 1195.152344 801.898438 1194.496094 801.78125 1193.90625 C 801.074219 1190.222656 799.1875 1189.003906 797.296875 1188.855469 C 795.339844 1188.703125 793.277344 1189.671875 791.09375 1190.71875 C 791.082031 1190.722656 791.066406 1190.730469 791.054688 1190.734375 L 789.523438 1191.484375 C 789.472656 1191.507812 789.433594 1191.550781 789.410156 1191.601562 C 789.394531 1191.632812 789.386719 1191.667969 789.386719 1191.699219 C 789.386719 1191.757812 789.410156 1191.8125 789.445312 1191.855469 L 791.054688 1193.722656 C 791.113281 1193.785156 791.144531 1193.871094 791.144531 1193.957031 L 791.15625 1196.117188 L 791.15625 1196.121094 C 791.15625 1196.269531 791.0625 1196.402344 790.925781 1196.457031 L 789.917969 1196.855469 C 789.84375 1196.882812 789.792969 1196.945312 789.773438 1197.019531 C 789.769531 1197.039062 789.765625 1197.058594 789.765625 1197.078125 C 789.765625 1197.132812 789.785156 1197.1875 789.824219 1197.234375 L 790.460938 1197.976562 C 790.519531 1198.042969 790.550781 1198.128906 790.550781 1198.214844 C 790.550781 1198.21875 790.550781 1198.222656 790.546875 1198.230469 L 789.753906 1215.796875 C 789.746094 1215.976562 789.605469 1216.125 789.425781 1216.140625 C 789.242188 1216.15625 789.078125 1216.039062 789.039062 1215.863281 L 789.027344 1215.820312 C 787.292969 1208.378906 785.574219 1201.011719 783.253906 1196.441406 C 780.949219 1191.902344 778.066406 1190.148438 775.539062 1189.347656 C 772.996094 1188.542969 770.796875 1188.699219 768.53125 1188.859375 C 768.464844 1188.867188 768.398438 1188.851562 768.339844 1188.820312 C 766.820312 1188.042969 765.496094 1187.390625 764.304688 1187.777344 C 763.125 1188.160156 761.9375 1189.632812 761.886719 1191.914062 C 761.886719 1191.964844 761.886719 1192.011719 761.886719 1192.0625 C 761.886719 1192.308594 761.898438 1192.558594 761.921875 1192.820312 C 762.039062 1194.160156 762.425781 1195.675781 762.828125 1197.234375 L 762.832031 1197.242188 L 762.832031 1197.253906 C 763.082031 1198.222656 763.335938 1199.207031 763.519531 1200.152344 C 763.652344 1200.8125 763.746094 1201.457031 763.804688 1202.117188 C 763.847656 1202.585938 763.867188 1203.0625 763.867188 1203.554688 C 763.867188 1205.335938 763.589844 1207.339844 762.953125 1210.109375 C 762.707031 1211.1875 762.402344 1212.390625 762.078125 1213.667969 C 761.703125 1215.15625 761.300781 1216.753906 760.917969 1218.417969 C 760.222656 1221.449219 759.601562 1224.691406 759.351562 1227.867188 L 759.351562 1227.875 C 759.265625 1228.949219 759.222656 1230.011719 759.222656 1231.070312 Z M 759.222656 1231.070312 " fill-opacity="1" fill-rule="nonzero"/></g><path fill="#f4f4f4" d="M 820.117188 1261.089844 L 811.214844 1269.953125 C 808.503906 1269.34375 806.539062 1268.582031 805.316406 1267.671875 C 804.140625 1266.894531 802.65625 1265.175781 800.855469 1262.519531 C 802.515625 1263.476562 803.746094 1264.070312 804.550781 1264.292969 C 804.875 1264.390625 805.183594 1264.453125 805.480469 1264.476562 L 805.914062 1264.480469 C 806.195312 1264.464844 806.453125 1264.398438 806.695312 1264.28125 C 806.9375 1264.160156 807.160156 1263.992188 807.359375 1263.773438 C 807.480469 1263.714844 807.75 1263.296875 808.171875 1262.527344 C 808.574219 1261.710938 809.03125 1260.296875 809.542969 1258.277344 L 820.117188 1261.089844 " fill-opacity="1" fill-rule="nonzero"/><path fill="#f4f4f4" d="M 837.367188 1237.054688 L 837.511719 1235.972656 C 838.078125 1231.972656 838.292969 1229.035156 838.164062 1227.160156 C 838.097656 1226.078125 837.910156 1225.160156 837.605469 1224.40625 C 837.296875 1223.660156 836.910156 1223.054688 836.445312 1222.59375 C 835.007812 1221.296875 833.421875 1220.796875 831.699219 1221.097656 C 830.355469 1221.253906 828.605469 1222.386719 826.449219 1224.488281 C 827.945312 1224.25 829.164062 1224.226562 830.105469 1224.421875 C 830.636719 1224.53125 831.148438 1224.742188 831.640625 1225.058594 C 832.246094 1225.515625 832.605469 1225.832031 832.710938 1226.007812 C 833.015625 1226.355469 833.308594 1226.769531 833.589844 1227.242188 C 833.742188 1227.417969 834.148438 1228.234375 834.804688 1229.691406 C 835.457031 1231.203125 836.308594 1233.65625 837.367188 1237.054688 " fill-opacity="1" fill-rule="nonzero"/></svg>