<svg xmlns="http://www.w3.org/2000/svg" xmlns:xlink="http://www.w3.org/1999/xlink" width="2000" zoomAndPan="magnify" viewBox="0 0 1500 1499.999933" height="2000" preserveAspectRatio="xMidYMid meet" version="1.0"><defs><clipPath id="2737fa9151"><path d="M 428 446 L 1483 446 L 1483 1459 L 428 1459 Z M 428 446 " clip-rule="nonzero"/></clipPath><clipPath id="f381d64112"><path d="M 739.132812 446.332031 L 1482.066406 794.5625 L 1171.078125 1458.042969 L 428.140625 1109.8125 Z M 739.132812 446.332031 " clip-rule="nonzero"/></clipPath><clipPath id="645495c60c"><path d="M 695 551 L 911 551 L 911 762 L 695 762 Z M 695 551 " clip-rule="nonzero"/></clipPath><clipPath id="88f13ce562"><path d="M 311.132812 0.332031 L 1054.066406 348.5625 L 743.078125 1012.042969 L 0.140625 663.8125 Z M 311.132812 0.332031 " clip-rule="nonzero"/></clipPath><clipPath id="62b5e214fc"><path d="M 1054.035156 348.546875 L 311.097656 0.316406 L 0.109375 663.796875 L 743.046875 1012.027344 Z M 1054.035156 348.546875 " clip-rule="nonzero"/></clipPath><clipPath id="7938846618"><path d="M 1054.035156 348.546875 L 311.097656 0.316406 L 0.109375 663.796875 L 743.046875 1012.027344 Z M 1054.035156 348.546875 " clip-rule="nonzero"/></clipPath><clipPath id="a74547ddea"><path d="M 167 242 L 368 242 L 368 485 L 167 485 Z M 167 242 " clip-rule="nonzero"/></clipPath><clipPath id="5e4bfc4b5c"><path d="M 311.132812 0.332031 L 1054.066406 348.5625 L 743.078125 1012.042969 L 0.140625 663.8125 Z M 311.132812 0.332031 " clip-rule="nonzero"/></clipPath><clipPath id="3ac29f3fe8"><path d="M 1054.035156 348.546875 L 311.097656 0.316406 L 0.109375 663.796875 L 743.046875 1012.027344 Z M 1054.035156 348.546875 " clip-rule="nonzero"/></clipPath><clipPath id="7cc45f272b"><path d="M 1054.035156 348.546875 L 311.097656 0.316406 L 0.109375 663.796875 L 743.046875 1012.027344 Z M 1054.035156 348.546875 " clip-rule="nonzero"/></clipPath><clipPath id="03a235b22c"><path d="M 641 234 L 857 234 L 857 490 L 641 490 Z M 641 234 " clip-rule="nonzero"/></clipPath><clipPath id="8184b8ca84"><path d="M 311.132812 0.332031 L 1054.066406 348.5625 L 743.078125 1012.042969 L 0.140625 663.8125 Z M 311.132812 0.332031 " clip-rule="nonzero"/></clipPath><clipPath id="54977eb8a2"><path d="M 1054.035156 348.546875 L 311.097656 0.316406 L 0.109375 663.796875 L 743.046875 1012.027344 Z M 1054.035156 348.546875 " clip-rule="nonzero"/></clipPath><clipPath id="7756073ae2"><path d="M 1054.035156 348.546875 L 311.097656 0.316406 L 0.109375 663.796875 L 743.046875 1012.027344 Z M 1054.035156 348.546875 " clip-rule="nonzero"/></clipPath><clipPath id="f939961c37"><path d="M 172 480 L 672 480 L 672 912 L 172 912 Z M 172 480 " clip-rule="nonzero"/></clipPath><clipPath id="c6c0334967"><path d="M 311.132812 0.332031 L 1054.066406 348.5625 L 743.078125 1012.042969 L 0.140625 663.8125 Z M 311.132812 0.332031 " clip-rule="nonzero"/></clipPath><clipPath id="5d73755124"><path d="M 1054.035156 348.546875 L 311.097656 0.316406 L 0.109375 663.796875 L 743.046875 1012.027344 Z M 1054.035156 348.546875 " clip-rule="nonzero"/></clipPath><clipPath id="07db0bd770"><path d="M 1054.035156 348.546875 L 311.097656 0.316406 L 0.109375 663.796875 L 743.046875 1012.027344 Z M 1054.035156 348.546875 " clip-rule="nonzero"/></clipPath><clipPath id="ba3b08a386"><path d="M 432 117 L 636 117 L 636 381 L 432 381 Z M 432 117 " clip-rule="nonzero"/></clipPath><clipPath id="095db06cf5"><path d="M 311.132812 0.332031 L 1054.066406 348.5625 L 743.078125 1012.042969 L 0.140625 663.8125 Z M 311.132812 0.332031 " clip-rule="nonzero"/></clipPath><clipPath id="db44cd4022"><path d="M 1054.035156 348.546875 L 311.097656 0.316406 L 0.109375 663.796875 L 743.046875 1012.027344 Z M 1054.035156 348.546875 " clip-rule="nonzero"/></clipPath><clipPath id="a0ea409c1c"><path d="M 1054.035156 348.546875 L 311.097656 0.316406 L 0.109375 663.796875 L 743.046875 1012.027344 Z M 1054.035156 348.546875 " clip-rule="nonzero"/></clipPath><clipPath id="cb73d83f31"><rect x="0" width="1055" y="0" height="1013"/></clipPath><clipPath id="8ed84a2d08"><path d="M 677 424 L 831 424 L 831 661 L 677 661 Z M 677 424 " clip-rule="nonzero"/></clipPath><clipPath id="b056c4a8c0"><path d="M 17.960938 414.332031 L 752.601562 149.988281 L 1000.691406 839.460938 L 266.054688 1103.804688 Z M 17.960938 414.332031 " clip-rule="nonzero"/></clipPath><clipPath id="292c291621"><path d="M 17.960938 414.332031 L 752.601562 149.988281 L 1000.691406 839.460938 L 266.054688 1103.804688 Z M 17.960938 414.332031 " clip-rule="nonzero"/></clipPath><clipPath id="a8d0dd08a6"><path d="M 17.960938 414.332031 L 752.601562 149.988281 L 1000.691406 839.460938 L 266.054688 1103.804688 Z M 17.960938 414.332031 " clip-rule="nonzero"/></clipPath><clipPath id="af039149f8"><path d="M 641 380 L 868 380 L 868 705 L 641 705 Z M 641 380 " clip-rule="nonzero"/></clipPath><clipPath id="a1525a969a"><path d="M 17.960938 414.332031 L 752.601562 149.988281 L 1000.691406 839.460938 L 266.054688 1103.804688 Z M 17.960938 414.332031 " clip-rule="nonzero"/></clipPath><clipPath id="522eb22485"><path d="M 17.960938 414.332031 L 752.601562 149.988281 L 1000.691406 839.460938 L 266.054688 1103.804688 Z M 17.960938 414.332031 " clip-rule="nonzero"/></clipPath><clipPath id="7f0d01470c"><path d="M 17.960938 414.332031 L 752.601562 149.988281 L 1000.691406 839.460938 L 266.054688 1103.804688 Z M 17.960938 414.332031 " clip-rule="nonzero"/></clipPath><clipPath id="e3f4ae5224"><path d="M 458 267 L 642 267 L 642 530 L 458 530 Z M 458 267 " clip-rule="nonzero"/></clipPath><clipPath id="b0cf60ecc4"><path d="M 17.960938 414.332031 L 752.601562 149.988281 L 1000.691406 839.460938 L 266.054688 1103.804688 Z M 17.960938 414.332031 " clip-rule="nonzero"/></clipPath><clipPath id="7d5ef8b19c"><path d="M 17.960938 414.332031 L 752.601562 149.988281 L 1000.691406 839.460938 L 266.054688 1103.804688 Z M 17.960938 414.332031 " clip-rule="nonzero"/></clipPath><clipPath id="212e9c44b1"><path d="M 17.960938 414.332031 L 752.601562 149.988281 L 1000.691406 839.460938 L 266.054688 1103.804688 Z M 17.960938 414.332031 " clip-rule="nonzero"/></clipPath><clipPath id="525a8d0cf8"><path d="M 418 223 L 683 223 L 683 573 L 418 573 Z M 418 223 " clip-rule="nonzero"/></clipPath><clipPath id="bbc0e1679f"><path d="M 17.960938 414.332031 L 752.601562 149.988281 L 1000.691406 839.460938 L 266.054688 1103.804688 Z M 17.960938 414.332031 " clip-rule="nonzero"/></clipPath><clipPath id="de75971438"><path d="M 17.960938 414.332031 L 752.601562 149.988281 L 1000.691406 839.460938 L 266.054688 1103.804688 Z M 17.960938 414.332031 " clip-rule="nonzero"/></clipPath><clipPath id="548d83d67e"><path d="M 17.960938 414.332031 L 752.601562 149.988281 L 1000.691406 839.460938 L 266.054688 1103.804688 Z M 17.960938 414.332031 " clip-rule="nonzero"/></clipPath><clipPath id="910089bc10"><path d="M 257 361 L 448 361 L 448 599 L 257 599 Z M 257 361 " clip-rule="nonzero"/></clipPath><clipPath id="f7bca81a91"><path d="M 17.960938 414.332031 L 752.601562 149.988281 L 1000.691406 839.460938 L 266.054688 1103.804688 Z M 17.960938 414.332031 " clip-rule="nonzero"/></clipPath><clipPath id="1e9c472d5d"><path d="M 17.960938 414.332031 L 752.601562 149.988281 L 1000.691406 839.460938 L 266.054688 1103.804688 Z M 17.960938 414.332031 " clip-rule="nonzero"/></clipPath><clipPath id="01eeab3cbf"><path d="M 17.960938 414.332031 L 752.601562 149.988281 L 1000.691406 839.460938 L 266.054688 1103.804688 Z M 17.960938 414.332031 " clip-rule="nonzero"/></clipPath><clipPath id="837315a9a2"><path d="M 223 317 L 483 317 L 483 642 L 223 642 Z M 223 317 " clip-rule="nonzero"/></clipPath><clipPath id="ef3a0d6b9b"><path d="M 17.960938 414.332031 L 752.601562 149.988281 L 1000.691406 839.460938 L 266.054688 1103.804688 Z M 17.960938 414.332031 " clip-rule="nonzero"/></clipPath><clipPath id="85f242090e"><path d="M 17.960938 414.332031 L 752.601562 149.988281 L 1000.691406 839.460938 L 266.054688 1103.804688 Z M 17.960938 414.332031 " clip-rule="nonzero"/></clipPath><clipPath id="da7475b802"><path d="M 17.960938 414.332031 L 752.601562 149.988281 L 1000.691406 839.460938 L 266.054688 1103.804688 Z M 17.960938 414.332031 " clip-rule="nonzero"/></clipPath><clipPath id="02f24bb0b5"><path d="M 163 579 L 361 579 L 361 798 L 163 798 Z M 163 579 " clip-rule="nonzero"/></clipPath><clipPath id="0c1fa37121"><path d="M 17.960938 414.332031 L 752.601562 149.988281 L 1000.691406 839.460938 L 266.054688 1103.804688 Z M 17.960938 414.332031 " clip-rule="nonzero"/></clipPath><clipPath id="f299fd38c2"><path d="M 17.960938 414.332031 L 752.601562 149.988281 L 1000.691406 839.460938 L 266.054688 1103.804688 Z M 17.960938 414.332031 " clip-rule="nonzero"/></clipPath><clipPath id="f644169f21"><path d="M 17.960938 414.332031 L 752.601562 149.988281 L 1000.691406 839.460938 L 266.054688 1103.804688 Z M 17.960938 414.332031 " clip-rule="nonzero"/></clipPath><clipPath id="ad32a78c97"><path d="M 128 539 L 396 539 L 396 838 L 128 838 Z M 128 539 " clip-rule="nonzero"/></clipPath><clipPath id="2a95118350"><path d="M 17.960938 414.332031 L 752.601562 149.988281 L 1000.691406 839.460938 L 266.054688 1103.804688 Z M 17.960938 414.332031 " clip-rule="nonzero"/></clipPath><clipPath id="2d486c7099"><path d="M 17.960938 414.332031 L 752.601562 149.988281 L 1000.691406 839.460938 L 266.054688 1103.804688 Z M 17.960938 414.332031 " clip-rule="nonzero"/></clipPath><clipPath id="32bac2d6f7"><path d="M 17.960938 414.332031 L 752.601562 149.988281 L 1000.691406 839.460938 L 266.054688 1103.804688 Z M 17.960938 414.332031 " clip-rule="nonzero"/></clipPath><clipPath id="1693ebaf30"><path d="M 334 646 L 846 646 L 846 996 L 334 996 Z M 334 646 " clip-rule="nonzero"/></clipPath><clipPath id="e9189cfdae"><path d="M 17.960938 414.332031 L 752.601562 149.988281 L 1000.691406 839.460938 L 266.054688 1103.804688 Z M 17.960938 414.332031 " clip-rule="nonzero"/></clipPath><clipPath id="780714f955"><path d="M 17.960938 414.332031 L 752.601562 149.988281 L 1000.691406 839.460938 L 266.054688 1103.804688 Z M 17.960938 414.332031 " clip-rule="nonzero"/></clipPath><clipPath id="fa75bffa99"><path d="M 17.960938 414.332031 L 752.601562 149.988281 L 1000.691406 839.460938 L 266.054688 1103.804688 Z M 17.960938 414.332031 " clip-rule="nonzero"/></clipPath><clipPath id="7f67e7ced3"><path d="M 310 622 L 870 622 L 870 1020 L 310 1020 Z M 310 622 " clip-rule="nonzero"/></clipPath><clipPath id="700a166afa"><path d="M 17.960938 414.332031 L 752.601562 149.988281 L 1000.691406 839.460938 L 266.054688 1103.804688 Z M 17.960938 414.332031 " clip-rule="nonzero"/></clipPath><clipPath id="5922cae0a6"><path d="M 17.960938 414.332031 L 752.601562 149.988281 L 1000.691406 839.460938 L 266.054688 1103.804688 Z M 17.960938 414.332031 " clip-rule="nonzero"/></clipPath><clipPath id="1d83245a00"><path d="M 17.960938 414.332031 L 752.601562 149.988281 L 1000.691406 839.460938 L 266.054688 1103.804688 Z M 17.960938 414.332031 " clip-rule="nonzero"/></clipPath></defs><g clip-path="url(#2737fa9151)"><g clip-path="url(#f381d64112)"><g transform="matrix(1, 0, 0, 1, 428, 446)"><g clip-path="url(#cb73d83f31)"><g clip-path="url(#645495c60c)"><g clip-path="url(#88f13ce562)"><g clip-path="url(#62b5e214fc)"><g clip-path="url(#7938846618)"><path fill="#030000" d="M 727.28125 729.839844 C 678.628906 686.925781 690.285156 616.585938 734.632812 582.882812 C 830.835938 509.34375 959.457031 574.253906 891.128906 693.433594 C 859.921875 747.574219 800.425781 794.285156 727.28125 729.839844 Z M 727.28125 729.839844 " fill-opacity="1" fill-rule="evenodd"/></g></g></g></g><g clip-path="url(#a74547ddea)"><g clip-path="url(#5e4bfc4b5c)"><g clip-path="url(#3ac29f3fe8)"><g clip-path="url(#7cc45f272b)"><path fill="#030000" d="M 332.757812 463.484375 C 282.148438 504.105469 214.855469 480.804688 189.167969 431.367188 C 133.097656 324.054688 190.742188 181.769531 296.648438 269.414062 C 344.734375 309.242188 408.832031 402.425781 332.757812 463.484375 Z M 332.757812 463.484375 " fill-opacity="1" fill-rule="evenodd"/></g></g></g></g><g clip-path="url(#03a235b22c)"><g clip-path="url(#8184b8ca84)"><g clip-path="url(#54977eb8a2)"><g clip-path="url(#7756073ae2)"><path fill="#030000" d="M 649.550781 449.105469 C 628.726562 405.160156 650.382812 321.210938 679.957031 282.992188 C 709.785156 245.097656 755.160156 216.5 810.828125 247.015625 C 912.914062 302.910156 820.832031 432.871094 762.859375 472.050781 C 725.539062 497.1875 673.039062 498.515625 649.550781 449.105469 Z M 649.550781 449.105469 " fill-opacity="1" fill-rule="evenodd"/></g></g></g></g><g clip-path="url(#f939961c37)"><g clip-path="url(#c6c0334967)"><g clip-path="url(#5d73755124)"><g clip-path="url(#07db0bd770)"><path fill="#030000" d="M 660.558594 867.464844 C 645.859375 897.976562 613.882812 925.011719 545.515625 904.425781 C 435.285156 871.058594 441.027344 753.707031 329.242188 781.136719 C 329.242188 781.136719 281.476562 792.527344 230.445312 771.425781 C 195.628906 753.898438 168.65625 730.800781 172.941406 674.898438 C 181.113281 569.949219 224.648438 587.742188 315.648438 553.183594 C 406.886719 518.539062 474.902344 467.375 539.347656 484.3125 C 603.875 501.085938 634.019531 601.070312 636.535156 661.769531 C 640.253906 744.34375 693.769531 799.1875 660.558594 867.464844 Z M 660.558594 867.464844 " fill-opacity="1" fill-rule="evenodd"/></g></g></g></g><g clip-path="url(#ba3b08a386)"><g clip-path="url(#095db06cf5)"><g clip-path="url(#db44cd4022)"><g clip-path="url(#a0ea409c1c)"><path fill="#030000" d="M 523.371094 377.695312 C 570.546875 365.421875 621.136719 295.234375 631.589844 248.058594 C 641.875 200.800781 634.75 147.796875 575.679688 124.53125 C 467.414062 81.828125 426.4375 235.742188 433.414062 305.367188 C 437.890625 350.296875 470.289062 391.417969 523.371094 377.695312 Z M 523.371094 377.695312 " fill-opacity="1" fill-rule="evenodd"/></g></g></g></g></g></g></g></g><g clip-path="url(#8ed84a2d08)"><g clip-path="url(#b056c4a8c0)"><g clip-path="url(#292c291621)"><g clip-path="url(#a8d0dd08a6)"><path fill="#030000" d="M 690.898438 606.253906 C 667.246094 551.617188 676.425781 478.589844 711.398438 443.144531 C 746.371094 407.699219 793.894531 423.253906 817.550781 477.890625 C 841.199219 532.527344 832.023438 605.554688 797.050781 641 C 762.320312 676.195312 715.160156 661.136719 691.328125 607.238281 " fill-opacity="1" fill-rule="nonzero"/></g></g></g></g><g clip-path="url(#af039149f8)"><g clip-path="url(#a1525a969a)"><g clip-path="url(#522eb22485)"><g clip-path="url(#7f0d01470c)"><path stroke-linecap="round" transform="matrix(3.776411, 0.479083, -0.187033, 4.562506, -241.134819, -1461.822662)" fill="none" stroke-linejoin="miter" d="M 267.86029 425.149914 C 261.03949 413.890974 262.669088 397.713888 271.499221 389.017861 C 280.329354 380.321833 293.016509 382.398868 299.838338 393.657701 C 306.658109 404.916749 305.02954 421.093727 296.199407 429.789754 C 287.430374 438.424571 274.844276 436.445658 267.984113 425.352665 " stroke="#090000" stroke-width="1.7" stroke-opacity="1" stroke-miterlimit="4"/></g></g></g></g><g clip-path="url(#e3f4ae5224)"><g clip-path="url(#b0cf60ecc4)"><g clip-path="url(#7d5ef8b19c)"><g clip-path="url(#212e9c44b1)"><path fill="#060000" d="M 491.734375 489.164062 C 453.023438 437.253906 447.910156 354.464844 480.3125 304.242188 C 512.714844 254.023438 570.363281 255.394531 609.074219 307.300781 C 647.785156 359.210938 652.898438 442 620.496094 492.222656 C 588.320312 542.089844 531.195312 541.136719 492.4375 490.09375 " fill-opacity="1" fill-rule="nonzero"/></g></g></g></g><g clip-path="url(#525a8d0cf8)"><g clip-path="url(#bbc0e1679f)"><g clip-path="url(#de75971438)"><g clip-path="url(#548d83d67e)"><path stroke-linecap="round" transform="matrix(4.19559, -0.681773, 0.681018, 4.51446, -696.942963, -1264.580527)" fill="none" stroke-linejoin="miter" d="M 214.989851 420.940407 C 207.805809 408.356834 209.521703 390.277328 218.822422 380.557079 C 228.123005 370.837674 241.486373 373.159517 248.670553 385.742245 C 255.854595 398.325818 254.138701 416.405324 244.837982 426.125574 C 235.602445 435.776927 222.346182 433.563843 215.120801 421.166118 " stroke="#090000" stroke-width="1.7" stroke-opacity="1" stroke-miterlimit="4"/></g></g></g></g><g clip-path="url(#910089bc10)"><g clip-path="url(#f7bca81a91)"><g clip-path="url(#1e9c472d5d)"><g clip-path="url(#01eeab3cbf)"><path fill="#030000" d="M 407.902344 409.316406 C 450.570312 462.027344 460.496094 536.191406 430.074219 574.96875 C 399.652344 613.746094 340.40625 602.445312 297.738281 549.734375 C 255.070312 497.019531 245.144531 422.855469 275.566406 384.078125 C 305.988281 345.304688 365.234375 356.601562 407.902344 409.316406 Z M 407.902344 409.316406 " fill-opacity="1" fill-rule="nonzero"/></g></g></g></g><g clip-path="url(#837315a9a2)"><g clip-path="url(#ef3a0d6b9b)"><g clip-path="url(#85f242090e)"><g clip-path="url(#da7475b802)"><path stroke-linecap="round" transform="matrix(2.370768, -3.021833, 2.683473, 3.315306, -1194.88544, -332.552423)" fill="none" stroke-linejoin="miter" d="M 208.089622 413.440204 C 208.090187 429.339986 197.688032 442.228837 184.855796 442.22898 C 172.023561 442.229123 161.622447 429.340055 161.621882 413.440273 C 161.621974 397.539912 172.024129 384.65106 184.856364 384.650917 C 197.687943 384.651354 208.089713 397.539842 208.089622 413.440204 Z M 208.089622 413.440204 " stroke="#090000" stroke-width="1.7" stroke-opacity="1" stroke-miterlimit="4"/></g></g></g></g><g clip-path="url(#02f24bb0b5)"><g clip-path="url(#0c1fa37121)"><g clip-path="url(#f299fd38c2)"><g clip-path="url(#f644169f21)"><path fill="#090000" d="M 273.128906 792.714844 C 219.152344 774.417969 170.484375 713.050781 164.433594 655.644531 C 158.378906 598.238281 197.230469 566.53125 251.207031 584.824219 C 305.1875 603.121094 353.851562 664.488281 359.90625 721.894531 C 365.917969 778.898438 327.640625 810.636719 274.105469 793.039062 " fill-opacity="1" fill-rule="nonzero"/></g></g></g></g><g clip-path="url(#ad32a78c97)"><g clip-path="url(#2a95118350)"><g clip-path="url(#2d486c7099)"><g clip-path="url(#32bac2d6f7)"><path stroke-linecap="round" transform="matrix(2.298039, -2.790427, 2.869154, 3.063949, -1390.141719, -418.806848)" fill="none" stroke-linejoin="miter" d="M 107.669825 493.469921 C 100.167793 480.665938 101.959201 462.268634 111.673149 452.379374 C 121.386302 442.489389 135.343119 444.851846 142.845896 457.655233 C 150.348723 470.459942 148.556519 488.85652 138.843367 498.746505 C 129.198182 508.567076 115.35233 506.315876 107.806854 493.700535 " stroke="#090000" stroke-width="1.7" stroke-opacity="1" stroke-miterlimit="4"/></g></g></g></g><g clip-path="url(#1693ebaf30)"><g clip-path="url(#e9189cfdae)"><g clip-path="url(#780714f955)"><g clip-path="url(#fa75bffa99)"><path fill="#000000" d="M 336.542969 872.1875 C 327.753906 902.15625 346.246094 952.292969 376.140625 971.929688 C 444.449219 1016.800781 543.035156 988.328125 621.164062 964.398438 C 704.707031 938.8125 814.128906 906.917969 842.726562 824.332031 C 851.511719 798.964844 834.074219 768.113281 815.855469 748.390625 C 788.003906 718.242188 740.277344 716.285156 703.394531 698.28125 C 670.738281 682.34375 643.355469 650.121094 607.148438 647.070312 C 554.242188 642.613281 497.375 664.046875 456.003906 697.324219 C 434.550781 714.582031 429.148438 745.484375 413.742188 768.308594 C 390.925781 802.097656 360.789062 830.757812 339.644531 865.613281 C 338.386719 867.683594 336.550781 872.1875 336.550781 872.1875 Z M 336.542969 872.1875 " fill-opacity="1" fill-rule="nonzero"/></g></g></g></g><g clip-path="url(#7f67e7ced3)"><g clip-path="url(#700a166afa)"><g clip-path="url(#5922cae0a6)"><g clip-path="url(#1d83245a00)"><path stroke-linecap="butt" transform="matrix(4.510583, -1.623041, 1.623643, 4.512255, -2161.46018, -1689.679338)" fill="none" stroke-linejoin="miter" d="M 309.380038 679.040336 C 305.538186 684.300071 305.626812 695.443182 310.107763 701.406827 C 320.346573 715.03396 341.708648 716.407744 358.734421 717.228583 C 376.93988 718.106696 400.670585 719.574116 412.116922 705.388734 C 415.633002 701.031612 414.389294 693.746972 412.206207 688.590816 C 408.8687 680.708871 399.638857 676.955217 393.670877 670.818556 C 388.386564 665.385761 385.287567 657.129921 378.396101 653.974977 C 368.326131 649.365086 355.650039 649.555629 345.179097 653.164152 C 339.749232 655.035704 336.506206 660.717736 331.870106 664.108422 C 325.005052 669.127376 317.065374 672.62313 310.453166 677.969366 C 310.06005 678.286784 309.381572 679.040887 309.381572 679.040887 Z M 309.380038 679.040336 " stroke="#000000" stroke-width="0.897" stroke-opacity="1" stroke-miterlimit="4"/></g></g></g></g></svg>